<svg width="89" height="45" viewBox="0 0 89 45" fill="none" xmlns="http://www.w3.org/2000/svg">
<path d="M61.712 9.40725C60.4651 9.62506 59.4171 10.5405 58.6373 12.182C54.7451 20.3768 51.9041 26.4377 49.6186 31.3433C49.6186 31.3433 46.9449 25.677 44.7194 20.9924C42.4244 25.8664 40.8335 29.1494 39.8864 31.3433C39.8864 31.3433 34.6463 20.178 30.8677 12.182C30.0912 10.5405 29.0305 9.62506 27.7646 9.40725V9.00635C30.1511 9.11683 33.8098 9.11683 36.0889 9.00635C36.1079 9.00635 36.0889 9.46723 36.0889 9.46723C35.3787 9.46723 34.5042 10.0575 34.4159 10.8909C34.378 11.2476 34.3685 11.6138 34.6621 12.1788C36.4172 15.5471 40.7072 23.8903 40.7072 23.8903L43.5325 18.4607C42.4402 16.1847 42.1435 15.4019 41.1302 13.3531C40.0096 11.3139 41.6069 9.11368 43.7692 9.82709C45.2592 10.3195 45.2718 11.8442 45.2718 11.8442C44.7794 11.3013 43.7061 11.5917 43.7376 12.5071C43.7503 12.9175 44.1133 13.3595 44.2995 13.7256C44.5205 14.1613 45.1645 15.2945 45.1645 15.2945L45.9884 13.6972C46.2662 13.189 46.5787 12.6902 46.5976 12.3493C46.6387 11.6611 45.7737 11.2823 45.2718 11.8442C45.2718 11.8442 45.3413 10.6226 46.686 10.2659C47.8572 9.95336 48.7316 10.8972 48.7789 11.9737C48.801 12.5482 48.0687 13.8551 47.7151 14.6221L46.3672 17.4821L50.4804 24.9636L56.4213 12.3146C56.6865 11.7306 56.8475 11.2539 56.7402 10.7615C56.5918 10.067 56.0299 9.53036 55.3228 9.39778L55.3386 9.04107C56.4245 9.09474 57.7093 9.13262 58.6184 9.13262C59.5275 9.13262 61.7151 9.09789 61.7151 9.07264V9.39778L61.712 9.40725Z" fill="#646363"/>
<path d="M44.8456 0.208618V7.56377H53.757L44.8456 0.208618Z" fill="#646363"/>
<path d="M65.1876 9.68186C65.1876 9.68186 61.7972 9.10103 59.8653 12.4061C58.5079 14.7326 53.5551 25.3202 53.5551 25.3202C53.5551 25.3202 66.3808 26.8954 68.0286 31.3401C69.9321 36.4729 56.9801 39.0362 56.9801 39.0362C56.9801 39.0362 71.3368 37.0222 71.4252 31.2359C71.5073 25.9484 58.2112 23.6219 58.2112 23.6219L59.4707 20.9798C59.4707 20.9798 74.1116 23.8776 75.1154 30.3647C76.274 37.8461 58.2207 41.4637 58.2207 41.4637C58.2207 41.4637 80.4029 38.0608 79.014 28.4391C77.8997 20.7367 61.1533 17.5168 61.1533 17.5168L62.7443 14.2244C62.7443 14.2244 82.4264 17.9714 83.6638 27.9214C84.5004 34.6452 75.1154 40.8986 60.1242 43.7997C60.1242 43.7997 70.4561 42.5244 79.0676 37.9818C84.6992 35.0082 89.3964 30.6867 88.6357 25.0488C87.1741 14.1612 65.1844 9.68502 65.1844 9.68502L65.1876 9.68186Z" fill="#FBBC13"/>
<path d="M24.2891 9.68186C24.2891 9.68186 27.6794 9.10103 29.6113 12.4061C30.9687 14.7326 35.9216 25.3202 35.9216 25.3202C35.9216 25.3202 23.0959 26.8954 21.448 31.3401C19.5445 36.4729 32.4966 39.0362 32.4966 39.0362C32.4966 39.0362 18.143 37.0222 18.0546 31.2359C17.9757 25.9484 31.2686 23.6219 31.2686 23.6219L30.0122 20.9798C30.0122 20.9798 15.3714 23.8776 14.3644 30.3647C13.2059 37.8461 31.2591 41.4637 31.2591 41.4637C31.2591 41.4637 9.08003 38.0608 10.469 28.4391C11.5802 20.7367 28.3297 17.5168 28.3297 17.5168L26.7355 14.2244C26.7355 14.2244 7.05658 17.9714 5.81599 27.9214C4.9763 34.6452 14.3612 40.8986 29.3525 43.7997C29.3525 43.7997 19.0205 42.5244 10.4122 37.9818C4.78058 35.0082 0.0833871 30.6867 0.840999 25.0488C2.30256 14.1612 24.2922 9.68502 24.2922 9.68502L24.2891 9.68186Z" fill="#FBBC13"/>
<path d="M44.8456 0.208618V7.56377H35.9342L44.8456 0.208618Z" fill="#FBBC13"/>
<path d="M49.3788 5.19309L55.0388 3.04968L53.694 7.56379H42.3929L49.3788 5.18994V5.19309Z" fill="#FBBC13"/>
<path d="M40.3 5.19309L34.6432 3.04968L35.988 7.56379H47.289L40.3032 5.18994L40.3 5.19309Z" fill="#FBBC13"/>
</svg>
