<svg width="98" height="119" viewBox="0 0 98 119" fill="none" xmlns="http://www.w3.org/2000/svg">
<path d="M70.6866 43.0568C80.4937 20.4252 65.0227 4.97707 55.8342 0C59.3618 0 68.7685 2.11652 78.1753 10.5826C87.1352 18.6466 86.1384 35.1738 84.33 43.4998C84.1676 44.2474 84.3534 45.0213 84.8346 45.6162C92.333 54.8857 103.722 77.2334 94.6371 99.9468C85.2303 123.464 44 120.5 30.5 114C37.1631 115.96 60.3024 122.523 78.1753 99.9468C95.3044 78.3099 81.4008 55.665 71.2433 45.8824C70.486 45.153 70.2686 44.0215 70.6866 43.0568Z" fill="black"/>
<path d="M21.7341 45.8586H8.79981C8.79981 31.7482 15.8555 4.70421 45.251 9.40759C68.7673 13.1703 60.5367 39.1956 53.4819 51.738C67.592 47.0346 93.4612 89.365 58.1859 103.475C22.9106 117.585 5.27228 89.365 0.568899 83.4858C-4.13448 77.6065 21.7341 59.9689 26.4375 70.5515C31.1408 81.1341 45.251 87.0133 53.4819 78.7824C60.0666 72.1977 50.7382 63.4964 45.251 59.9689C43.2912 61.5367 38.1959 64.9074 33.4925 65.8481C28.7892 66.7888 26.8294 56.8333 26.4375 51.738C33.8845 45.0748 46.8972 30.3374 39.3718 24.6934C31.8464 19.0493 24.4777 36.4518 21.7341 45.8586Z" fill="#F4CD64"/>
</svg>
