<svg width="105" height="106" viewBox="0 0 105 106" fill="none" xmlns="http://www.w3.org/2000/svg">
<path d="M77.1094 63.6194V79.1849C77.1093 81.4132 76.224 83.5502 74.6483 85.1259C73.0727 86.7015 70.9356 87.5868 68.7073 87.5869H13.3239C11.0956 87.5868 8.95858 86.7015 7.38292 85.1259C5.80725 83.5502 4.922 81.4132 4.92188 79.1849V77.1874C4.92167 53.7674 9.93612 30.6188 19.628 9.29834L21.3281 5.55566H61.0005C62.8002 5.55563 64.5499 6.14747 65.98 7.23998C67.4101 8.33249 68.4413 9.86502 68.9145 11.6014L71.3282 20.4525C75.1651 34.5206 77.1093 49.0375 77.1094 63.6194Z" fill="#EEDC9A"/>
<path d="M71.3282 20.4525L68.9145 11.6014C68.5017 10.0872 67.6632 8.72321 66.4986 7.67121C65.3339 6.61921 63.892 5.92336 62.3438 5.6662V5.55566H47.5781V18.6807H55.0876C47.9549 37.3622 44.2979 57.1905 44.2969 77.1874V79.1849C44.2969 81.4132 45.1821 83.5503 46.7578 85.126C48.3335 86.7017 50.4706 87.5869 52.6989 87.5869H68.7073C70.9357 87.5869 73.0728 86.7017 74.6484 85.126C76.2241 83.5503 77.1093 81.4132 77.1094 79.1849V63.6194C77.1093 49.0375 75.1651 34.5206 71.3282 20.4525Z" fill="#E88604"/>
<path d="M52.5 20.3213C52.5 21.6267 53.0186 22.8786 53.9416 23.8016C54.8646 24.7246 56.1165 25.2432 57.4219 25.2432H13.125C11.8196 25.2432 10.5677 24.7246 9.64471 23.8016C8.72168 22.8786 8.20312 21.6267 8.20312 20.3213V13.7588C8.20312 11.5832 9.06738 9.49669 10.6058 7.9583C12.1441 6.41992 14.2306 5.55566 16.4062 5.55566H60.7031C58.5275 5.55566 56.441 6.41992 54.9026 7.9583C53.3643 9.49669 52.5 11.5832 52.5 13.7588V20.3213Z" fill="#ECE9C0"/>
<path d="M52.5 15.3994H62.3438V20.3213C62.3438 21.6267 61.8252 22.8786 60.9022 23.8016C59.9791 24.7246 58.7272 25.2432 57.4219 25.2432C56.1165 25.2432 54.8646 24.7246 53.9416 23.8016C53.0186 22.8786 52.5 21.6267 52.5 20.3213V15.3994Z" fill="#EEBE33"/>
<path d="M21.3281 58.0557C21.3281 61.3085 21.933 64.533 23.112 67.5647L28.7448 82.0489C29.943 85.13 32.044 87.7772 34.7725 89.6436C37.501 91.5101 40.7297 92.5088 44.0355 92.5088H77.3708C80.6766 92.5088 83.9053 91.5101 86.6338 89.6436C89.3623 87.7772 91.4633 85.13 92.6615 82.0489L98.2942 67.5647C99.4732 64.5331 100.078 61.3085 100.078 58.0557H21.3281Z" fill="#379EC3"/>
<path d="M100.078 58.0557C100.078 61.0108 96.2493 63.7056 89.9575 65.742C82.7511 68.0737 72.3146 69.54 60.7031 69.54C49.0916 69.54 38.6552 68.0737 31.4487 65.742C25.1569 63.7056 21.3281 61.0108 21.3281 58.0557C21.3281 51.7126 38.9566 46.5713 60.7031 46.5713C82.4496 46.5713 100.078 51.7126 100.078 58.0557Z" fill="#8ACCE7"/>
<path d="M90.2344 64.6182C90.2311 65.0092 90.1363 65.3941 89.9575 65.742C82.7511 68.0737 72.3146 69.54 60.7031 69.54C49.0916 69.54 38.6552 68.0737 31.4487 65.742C31.27 65.3941 31.1752 65.0092 31.1719 64.6182C31.1719 60.088 44.3933 56.415 60.7031 56.415C77.013 56.415 90.2344 60.088 90.2344 64.6182Z" fill="#EEDC9A"/>
<path d="M82.5571 41.4866L82.0212 36.6646L81.0008 36.7779L80.9275 36.1177L79.9071 36.2311L79.8338 35.5709L77.2543 35.8574L76.7535 33.6035C71.899 34.6724 67.3455 36.8151 63.4274 39.8743C59.5094 42.9334 56.3263 46.8312 54.1119 51.2816L49.392 60.7214L52.3268 62.1888L57.0467 52.749C58.882 49.0605 61.4574 45.7896 64.6124 43.1402C67.7673 40.4907 71.4342 38.5195 75.3844 37.3494C69.8878 41.2232 64.8561 47.1837 61.3411 54.0573L56.5101 63.4384L59.4273 64.9406L64.2604 55.5554C67.6286 48.9688 72.4511 43.3077 77.6714 39.7551C76.5835 41.8119 75.3662 44.0842 74.0863 46.473C72.3014 49.8043 70.4628 53.2576 68.5705 56.833L64.8508 63.8499L67.7499 65.3868L71.472 58.3652C73.3538 54.7877 75.1893 51.3401 76.9785 48.0226C77.8283 46.4366 78.6496 44.9034 79.426 43.4468C79.7595 49.0678 78.5029 54.6691 75.8002 59.6089L73.4963 63.8327L76.3768 65.404L78.6807 61.1801C81.97 55.1714 83.3238 48.2937 82.5571 41.4866Z" fill="#C4D4E0"/>
<path d="M74.702 34.254L87.7604 12.8856C88.4184 11.8089 89.4752 11.0359 90.7005 10.7348C91.9259 10.4338 93.2206 10.6291 94.3026 11.2783C94.844 11.6032 95.3157 12.032 95.6906 12.5401C96.0654 13.0481 96.336 13.6254 96.4866 14.2385C96.6373 14.8517 96.665 15.4886 96.5683 16.1126C96.4716 16.7365 96.2522 17.3351 95.923 17.8739L82.8645 39.2423C82.2066 40.3189 81.1498 41.092 79.9244 41.393C78.6991 41.6941 77.4044 41.4988 76.3224 40.8496C75.781 40.5247 75.3093 40.0959 74.9344 39.5878C74.5595 39.0797 74.289 38.5025 74.1383 37.8893C73.9877 37.2762 73.9599 36.6393 74.0567 36.0153C74.1534 35.3914 74.3727 34.7928 74.702 34.254Z" fill="#A6B2BC"/>
<path d="M67.2656 87.5865L80.4108 86.3915C81.0328 86.335 81.6598 86.4087 82.2517 86.6079C82.8437 86.8072 83.3875 87.1276 83.8487 87.5488C84.3099 87.9699 84.6783 88.4826 84.9303 89.054C85.1823 89.6255 85.3125 90.2432 85.3125 90.8678C85.3125 91.4923 85.1823 92.11 84.9303 92.6815C84.6783 93.253 84.3099 93.7656 83.8487 94.1868C83.3875 94.608 82.8436 94.9284 82.2517 95.1276C81.6598 95.3269 81.0328 95.4006 80.4108 95.344L67.2656 94.149V87.5865Z" fill="#966342"/>
<path d="M68.9062 81.0244H21.3281C15.8916 81.0244 11.4844 85.4316 11.4844 90.8682C11.4844 96.3047 15.8916 100.712 21.3281 100.712H68.9062C74.3428 100.712 78.75 96.3047 78.75 90.8682C78.75 85.4316 74.3428 81.0244 68.9062 81.0244Z" fill="#723024"/>
<path d="M21.3281 100.712C26.7647 100.712 31.1719 96.3047 31.1719 90.8682C31.1719 85.4316 26.7647 81.0244 21.3281 81.0244C15.8916 81.0244 11.4844 85.4316 11.4844 90.8682C11.4844 96.3047 15.8916 100.712 21.3281 100.712Z" fill="#984E3C"/>
<path d="M19.701 94.4461L9.82353 95.344C9.20153 95.4006 8.57458 95.3269 7.98265 95.1276C7.39073 94.9284 6.84682 94.6079 6.38563 94.1868C5.92444 93.7656 5.55609 93.253 5.30406 92.6815C5.05204 92.11 4.92187 91.4923 4.92188 90.8678C4.92187 90.2432 5.05204 89.6255 5.30406 89.054C5.55609 88.4826 5.92444 87.9699 6.38563 87.5488C6.84682 87.1276 7.39073 86.8072 7.98265 86.6079C8.57458 86.4087 9.20153 86.335 9.82353 86.3915L19.701 87.2895C20.5939 87.3706 21.4243 87.7827 22.0289 88.4448C22.6335 89.1069 22.9688 89.9711 22.9688 90.8678C22.9688 91.7644 22.6335 92.6286 22.0289 93.2907C21.4243 93.9528 20.5939 94.3649 19.701 94.4461Z" fill="#AD7D4D"/>
</svg>
