<svg width="105" height="106" viewBox="0 0 105 106" fill="none" xmlns="http://www.w3.org/2000/svg">
<g clip-path="url(#clip0_1070_14474)">
<mask id="mask0_1070_14474" style="mask-type:luminance" maskUnits="userSpaceOnUse" x="0" y="0" width="105" height="106">
<path d="M0 0.633797H105V105.634H0V0.633797Z" fill="white"/>
</mask>
<g mask="url(#mask0_1070_14474)">
<path d="M52.5 5.14597C24.7509 5.14597 2.25586 27.641 2.25586 55.3901C2.25586 70.0854 8.5657 83.3062 18.6225 92.4939L22.3305 94.0319V95.57C25.7506 98.1421 29.5099 100.288 33.529 101.928L33.5303 101.926H35.0684L36.6052 103.065C41.1381 104.576 45.958 105.458 50.9621 105.608L52.5 104.295L54.0379 105.608C59.042 105.458 63.8619 104.576 68.3948 103.065L69.9316 101.926H71.4697L71.472 101.928C75.4907 100.287 79.2498 98.1419 82.6694 95.57V94.0319L86.3775 92.4939C96.4343 83.3062 102.744 70.0854 102.744 55.3901C102.744 27.641 80.2491 5.14597 52.5 5.14597Z" fill="#FFDD40"/>
<path d="M84.8178 76.5449C90.2668 69.5823 93.5156 60.8146 93.5156 51.2879C93.5156 28.6356 75.1523 10.2723 52.5 10.2723C29.8477 10.2723 11.4844 28.6356 11.4844 51.2879C11.4844 60.8146 14.733 69.5823 20.1822 76.5449H84.8178Z" fill="#FFC839"/>
<path d="M84.4984 9.62048C84.0585 11.2615 82.3717 12.2354 80.7307 11.7955C79.0897 11.3561 78.116 9.66909 78.5554 8.02805C78.9953 6.38702 80.6823 5.4131 82.3233 5.85299C83.9644 6.29268 84.9381 7.97945 84.4984 9.62048ZM89.3222 7.21881C88.8653 4.28107 86.7305 1.7262 83.65 0.90056C79.4822 -0.216091 75.2334 2.27376 74.1309 6.38804C74.0944 6.52483 74.0616 6.66264 74.0324 6.80353L72.7439 12.904L66.1136 44.2998H78.1018L89.028 10.8212C89.4207 9.61658 89.5042 8.38632 89.3222 7.21881Z" fill="#CE684D"/>
<path d="M78.5553 8.02989L78.5555 8.02825C78.9952 6.38722 80.682 5.41351 82.323 5.8532C80.9556 5.48672 80.1441 4.08091 80.5103 2.71345C80.8768 1.34599 82.2824 0.534493 83.6501 0.900763C79.3445 -0.252802 74.9527 2.44254 74.0315 6.80373L66.1136 44.2998H70.8967L78.4885 8.34654C78.5051 8.24113 78.527 8.13551 78.5553 8.02989Z" fill="#BF5E4B"/>
<path d="M87.6867 59.6807H17.3133C14.4902 59.6807 12.0295 57.7593 11.3447 55.0203L10.459 51.4775H94.541L93.6553 55.0203C92.9705 57.7593 90.5098 59.6807 87.6867 59.6807Z" fill="#003060"/>
<path d="M94.541 53.5283H10.459C8.76012 53.5283 7.38281 52.151 7.38281 50.4521C7.38281 48.7533 8.76012 47.376 10.459 47.376H94.541C96.2399 47.376 97.6172 48.7533 97.6172 50.4521C97.6172 52.151 96.2399 53.5283 94.541 53.5283Z" fill="#024788"/>
<path d="M41.8688 6.04127C37.0501 2.14438 31.2958 5.90695 31.2958 5.90695C31.2958 5.90695 28.1938 -0.22858 22.0724 0.736928C15.9508 1.70223 13.7873 9.77718 17.2071 16.4631C19.3141 20.5825 22.0271 23.628 23.7992 25.359C24.9242 26.4578 26.5386 26.8903 28.0621 26.5013C30.4626 25.8881 34.3346 24.6072 38.219 22.0931C44.5237 18.0129 46.6875 9.93796 41.8688 6.04127Z" fill="#FF7186"/>
<path d="M28.0622 26.5013C25.9726 21.5197 26.4833 9.12852 31.2958 5.90695C31.2958 5.90695 28.1938 -0.228583 22.0722 0.736925C15.9509 1.70223 13.7873 9.77718 17.207 16.4633C19.3141 20.5827 22.0269 23.6279 23.7992 25.3592C24.9241 26.4578 26.5386 26.8903 28.0622 26.5013Z" fill="#FF4155"/>
<path d="M59.1902 19.5485C55.2318 18.9242 53.226 22.8919 53.226 22.8919C53.226 22.8919 49.5048 20.4586 46.3891 22.9786C43.2731 25.4986 44.6721 30.7201 48.7491 33.3587C51.2609 34.9843 53.7649 35.8126 55.3169 36.2091C56.3021 36.4607 57.3462 36.181 58.0736 35.4704C59.2198 34.351 60.9738 32.3817 62.3365 29.7179C64.5479 25.3945 63.1489 20.1728 59.1902 19.5485Z" fill="#FF7186"/>
<path d="M58.0736 35.4703C55.2927 33.3561 51.5724 26.2518 53.2259 22.8918C53.2259 22.8918 49.505 20.4588 46.389 22.9786C43.2731 25.4986 44.6721 30.72 48.7491 33.3586C51.2611 34.9842 53.7649 35.8125 55.3171 36.2092C56.3021 36.4606 57.3461 36.1809 58.0736 35.4703Z" fill="#FF4155"/>
<path d="M78.1348 89.417H26.8652C22.3349 89.417 18.6621 85.7442 18.6621 81.2139V44.2998H86.3379V81.2139C86.3379 85.7442 82.6654 89.417 78.1348 89.417Z" fill="#D9F9FC"/>
<path d="M30.9668 81.2139V44.2998H18.6621V81.2139C18.6621 85.7442 22.3349 89.417 26.8652 89.417H39.1699C34.6395 89.417 30.9668 85.7442 30.9668 81.2139Z" fill="#A0F1FE"/>
<path d="M52.5 76.2155C51.1758 76.2155 46.3477 82.8032 46.3477 87.795C46.3477 92.787 52.5 95.5693 52.5 95.5693C52.5 95.5693 58.6523 92.787 58.6523 87.795C58.6523 82.8032 53.8242 76.2155 52.5 76.2155Z" fill="#FFC839"/>
<path d="M52.5 85.313C51.7984 85.313 49.2397 88.804 49.2397 91.4495C49.2397 94.0946 52.5 95.5693 52.5 95.5693C52.5 95.5693 55.7601 94.0946 55.7601 91.4495C55.7601 88.804 53.2018 85.313 52.5 85.313Z" fill="#FF9100"/>
<path d="M35.0684 76.2155C33.7442 76.2155 28.916 82.8032 28.916 87.795C28.916 92.787 35.0684 95.5693 35.0684 95.5693C35.0684 95.5693 41.2207 92.787 41.2207 87.795C41.2207 82.8032 36.3925 76.2155 35.0684 76.2155Z" fill="#FFC839"/>
<path d="M35.0684 85.313C34.3668 85.313 31.808 88.804 31.808 91.4495C31.808 94.0946 35.0684 95.5693 35.0684 95.5693C35.0684 95.5693 38.3287 94.0946 38.3287 91.4495C38.3287 88.804 35.7699 85.313 35.0684 85.313Z" fill="#FF9100"/>
<path d="M69.9316 76.2155C68.6075 76.2155 63.7793 82.8032 63.7793 87.795C63.7793 92.787 69.9316 95.5693 69.9316 95.5693C69.9316 95.5693 76.084 92.787 76.084 87.795C76.084 82.8032 71.2558 76.2155 69.9316 76.2155Z" fill="#FFC839"/>
<path d="M69.9316 85.313C69.2299 85.313 66.6715 88.804 66.6715 91.4495C66.6715 94.0946 69.9316 95.5693 69.9316 95.5693C69.9316 95.5693 73.1918 94.0946 73.1918 91.4495C73.1918 88.804 70.6334 85.313 69.9316 85.313Z" fill="#FF9100"/>
<path d="M86.3379 47.376H18.6621C16.9632 47.376 15.5859 45.9987 15.5859 44.2998C15.5859 42.6009 16.9632 41.2236 18.6621 41.2236H86.3379C88.0368 41.2236 89.4141 42.6009 89.4141 44.2998C89.4141 45.9987 88.0368 47.376 86.3379 47.376Z" fill="white"/>
<path d="M27.8906 44.2998C27.8906 42.6009 29.2679 41.2236 30.9668 41.2236H18.6621C16.9632 41.2236 15.5859 42.6009 15.5859 44.2998C15.5859 45.9987 16.9632 47.376 18.6621 47.376H30.9668C29.2679 47.376 27.8906 45.9987 27.8906 44.2998Z" fill="#D9F9FC"/>
<path d="M50.9619 105.608C51.473 105.624 51.9853 105.634 52.5 105.634C53.0147 105.634 53.527 105.624 54.0381 105.608V94.0315H50.9619V105.608Z" fill="#003060"/>
<path d="M33.5303 101.925C34.5399 102.337 35.5653 102.718 36.6064 103.065V94.0311H33.5303V101.925Z" fill="#003060"/>
<path d="M68.3936 103.065C69.4347 102.718 70.4599 102.337 71.4697 101.925V94.0311H68.3936V103.065Z" fill="#003060"/>
<path d="M86.3775 92.4932H18.6224C19.808 93.576 21.0452 94.6026 22.3304 95.5693H82.6695C83.955 94.6026 85.1922 93.576 86.3775 92.4932Z" fill="#024788"/>
<path d="M58.6523 62.7568H46.3477C44.6488 62.7568 43.2715 61.3795 43.2715 59.6807C43.2715 57.9818 44.6488 56.6045 46.3477 56.6045H58.6523C60.3512 56.6045 61.7285 57.9818 61.7285 59.6807C61.7285 61.3795 60.3512 62.7568 58.6523 62.7568Z" fill="#A0F1FE"/>
<path d="M51.4746 59.6807C51.4746 57.9818 52.8519 56.6045 54.5508 56.6045H46.3477C44.6488 56.6045 43.2715 57.9818 43.2715 59.6807C43.2715 61.3795 44.6488 62.7568 46.3477 62.7568H54.5508C52.8519 62.7568 51.4746 61.3795 51.4746 59.6807Z" fill="#66E9FF"/>
</g>
</g>
<defs>
<clipPath id="clip0_1070_14474">
<rect width="105" height="105" fill="white" transform="translate(0 0.633789)"/>
</clipPath>
</defs>
</svg>
