<svg width="105" height="106" viewBox="0 0 105 106" fill="none" xmlns="http://www.w3.org/2000/svg">
<g clip-path="url(#clip0_1070_14384)">
<path d="M104.995 52.4232C105.121 61.9171 102.726 70.8417 98.4375 78.57C98.0148 79.3317 96.7452 78.932 96.2864 79.6699C94.1397 83.122 92.4322 85.3973 89.5679 88.2532C89.1146 88.7052 88.653 91.2078 88.1836 91.643C78.8177 100.326 66.2788 105.634 52.5 105.634C43.2194 105.634 34.5011 103.226 26.9362 99.0003C26.6296 98.8291 26.629 98.3902 26.9302 98.2098C42.2467 89.0395 52.5 72.284 52.5 53.1338C52.5 33.943 42.2032 17.1571 26.8328 7.99958C26.5744 7.84577 26.5748 7.46986 26.8371 7.32282C34.4234 3.06376 43.1753 0.634815 52.4942 0.633789C81.3048 0.630713 104.614 23.6153 104.995 52.4232Z" fill="#004B94"/>
<path d="M96.6853 50.0448C96.6853 73.4775 77.6893 92.4734 54.2567 92.4734C30.824 92.4734 11.8281 73.4775 11.8281 50.0448C11.8281 26.6122 30.824 7.61621 54.2567 7.61621C77.6893 7.61621 96.6853 26.6122 96.6853 50.0448Z" fill="#005AAF"/>
<path d="M101.736 22.6797V29.3839C101.736 32.7601 98.9992 35.4971 95.623 35.4971H95.3613V77.0254C95.3613 77.8748 94.6727 78.5635 93.8232 78.5635H92.7979C91.9484 78.5635 91.2598 77.8748 91.2598 77.0254V35.4971H90.1952C86.819 35.4971 84.082 32.7601 84.082 29.3839V6.27344C84.082 5.424 84.7707 4.73535 85.6201 4.73535H86.6455C87.4949 4.73535 88.1836 5.424 88.1836 6.27344V21.1416H100.198C101.048 21.1416 101.736 21.8303 101.736 22.6797Z" fill="#00BFD8"/>
<path d="M102.539 6.27344V29.3839C102.539 32.7601 99.8021 35.4971 96.4259 35.4971H95.6273C92.2511 35.4971 89.5142 32.7601 89.5142 29.3839V21.9139C89.5142 21.4874 89.8599 21.1416 90.2865 21.1416H91.2598V6.27344C91.2598 5.424 91.9484 4.73535 92.7979 4.73535H93.8233C94.6727 4.73535 95.3613 5.424 95.3613 6.27344V21.1416H98.4375V6.27344C98.4375 5.424 99.1262 4.73535 99.9756 4.73535H101.001C101.85 4.73535 102.539 5.424 102.539 6.27344Z" fill="#2DD2E3"/>
<path d="M98.4375 54.9795V78.57C95.7245 83.4591 92.2536 87.8697 88.1836 91.6427V54.9795C88.1836 52.148 90.479 49.8525 93.3105 49.8525C96.1421 49.8525 98.4375 52.148 98.4375 54.9795Z" fill="#FFCD6B"/>
<path d="M98.4375 54.9795V70.4401C98.4375 73.2716 96.1421 75.5671 93.3105 75.5671C90.479 75.5671 88.1836 73.2716 88.1836 70.4401V54.9795C88.1836 52.148 90.479 49.8525 93.3105 49.8525C96.1421 49.8525 98.4375 52.148 98.4375 54.9795Z" fill="#FFD98F"/>
<path d="M79.9805 53.1338C79.9805 78.7308 59.2298 99.4814 33.6328 99.4814C31.3593 99.4814 29.1242 99.3178 26.9382 99.0016C10.8673 90.0259 0 72.849 0 53.1338C0 33.4186 10.8673 16.2417 26.9382 7.26602C29.1242 6.94979 31.3593 6.78613 33.6328 6.78613C59.2298 6.78613 79.9805 27.5368 79.9805 53.1338Z" fill="#AFEAF2"/>
<path d="M33.6328 87.6897C30.731 87.6897 27.9113 87.33 25.2164 86.653C17.6652 77.5601 13.125 65.8774 13.125 53.134C13.125 40.3907 17.6652 28.708 25.2164 19.615C27.9113 18.9381 30.731 18.5784 33.6328 18.5784C52.6868 18.5784 68.1885 34.08 68.1885 53.134C68.1885 72.1881 52.6868 87.6897 33.6328 87.6897ZM40.1172 7.23633C36.4975 9.25225 33.1412 11.6841 30.1126 14.467C29.6479 14.8939 29.9791 15.6728 30.6081 15.6226C31.677 15.5371 32.7582 15.4965 33.85 15.5028C54.5822 15.6205 71.5862 33.005 71.2599 53.7349C70.9378 74.2093 54.1825 90.7659 33.6328 90.7659C31.9571 90.7659 30.3067 90.6557 28.6882 90.4423C32.0767 93.7973 35.9198 96.6941 40.1172 99.0315C62.6446 95.8779 79.9805 76.5306 79.9805 53.134C79.9805 29.7375 62.6446 10.3902 40.1172 7.23633Z" fill="#D5F3F7"/>
<path d="M70.6166 61.7971C65.288 64.1075 59.3381 62.9974 55.2208 59.4366C55.4361 53.9971 58.6927 48.8956 64.0213 46.5852C69.3498 44.2748 76.7525 45.8127 82.2933 47.6988C79.695 53.1793 75.9451 59.4867 70.6166 61.7971Z" fill="#007B4E"/>
<path d="M72.7773 55.4176C68.0259 60.169 61.1518 61.5043 55.2075 59.4234C53.1265 53.479 54.4618 46.605 59.2132 41.8535C63.9647 37.102 72.5837 35.6097 79.3476 35.2832C78.8819 42.285 77.5288 50.6661 72.7773 55.4176Z" fill="#00A86D"/>
<path d="M68.9011 45.7305C68.6267 47.9082 66.6785 51.1702 63.6628 54.1858C60.6471 57.2015 57.3852 59.1498 55.2074 59.4241C55.4818 57.2464 57.4301 53.9845 60.4457 50.9688C63.4614 47.9531 66.7234 46.0049 68.9011 45.7305Z" fill="#007B4E"/>
<path d="M24.6922 73.3022C24.6922 77.8422 21.0117 81.5228 16.4716 81.5228C11.9316 81.5228 8.25109 77.8422 8.25109 73.3022C8.25109 72.3986 8.3971 71.5293 8.66637 70.716C6.08505 69.4945 4.29944 66.8665 4.29944 63.821C4.29944 59.6106 7.71276 56.1973 11.9232 56.1973C16.1337 56.1973 19.547 59.6106 19.547 63.821C19.547 64.432 19.475 65.0263 19.3393 65.5958C22.4655 66.7596 24.6922 69.7708 24.6922 73.3022Z" fill="#00915D"/>
<path d="M59.4727 57.0303C59.4727 64.3922 53.5047 70.3604 46.1426 70.3604H21.5332C14.1711 70.3604 8.20312 64.3922 8.20312 57.0303C8.20312 55.0308 8.64343 53.1342 9.43216 51.432C7.38958 49.0896 6.15234 46.0268 6.15234 42.6748C6.15234 35.3127 12.1203 29.3447 19.4824 29.3447H29.7363C37.0984 29.3447 43.0664 35.3127 43.0664 42.6748C43.0664 43.0197 43.0533 43.3618 43.0276 43.7002H46.1426C53.5047 43.7002 59.4727 49.6682 59.4727 57.0303Z" fill="#FFEF31"/>
<path d="M49.6289 77.7432C49.6289 86.3511 42.6509 93.3291 34.043 93.3291C25.435 93.3291 18.457 86.3511 18.457 77.7432C18.457 69.1352 25.435 62.1572 34.043 62.1572C42.6509 62.1572 49.6289 69.1352 49.6289 77.7432Z" fill="#FF4343"/>
<path d="M38.1316 92.7873C36.8285 93.1406 35.4578 93.3291 34.043 93.3291C25.435 93.3291 18.457 86.3511 18.457 77.7432C18.457 69.1352 25.435 62.1572 34.043 62.1572C35.4578 62.1572 36.8285 62.3457 38.1316 62.699C31.507 64.4951 26.6343 70.55 26.6343 77.7432C26.6343 84.9363 31.507 90.9912 38.1316 92.7873Z" fill="#F72C2C"/>
<path d="M45.5273 77.7432C45.5273 84.0858 40.3856 89.2275 34.043 89.2275C27.7003 89.2275 22.5586 84.0858 22.5586 77.7432C22.5586 71.4005 27.7003 66.2588 34.043 66.2588C40.3856 66.2588 45.5273 71.4005 45.5273 77.7432Z" fill="#FF5757"/>
<path d="M39.868 77.743C39.868 80.9601 37.26 83.568 34.043 83.568C30.8259 83.568 28.2179 80.9601 28.2179 77.743C28.2179 74.5259 30.8259 71.918 34.043 71.918C37.26 71.918 39.868 74.5259 39.868 77.743Z" fill="#FF7A7A"/>
<path d="M35.594 71.5908C35.594 72.8367 34.8996 73.8467 34.043 73.8467C33.1863 73.8467 32.492 72.8367 32.492 71.5908C32.492 70.345 33.1863 69.335 34.043 69.335C34.8996 69.335 35.594 70.345 35.594 71.5908ZM34.043 81.6396C33.1863 81.6396 32.492 82.6497 32.492 83.8955C32.492 85.1414 33.1863 86.1514 34.043 86.1514C34.8996 86.1514 35.594 85.1414 35.594 83.8955C35.594 82.6497 34.8996 81.6396 34.043 81.6396ZM29.4904 73.3239C28.4115 72.7009 27.1897 72.7973 26.7613 73.5391C26.3328 74.2808 26.8605 75.3872 27.9394 76.0101C29.0183 76.6329 30.2402 76.5367 30.6684 75.7949C31.0966 75.0532 30.5693 73.9468 29.4904 73.3239ZM40.1465 79.4763C39.0676 78.8532 37.8457 78.9496 37.4175 79.6914C36.9893 80.4332 37.5168 81.5396 38.5957 82.1624C39.6746 82.7852 40.8965 82.689 41.3249 81.9473C41.7533 81.2055 41.2254 80.0991 40.1465 79.4763ZM27.9394 79.4763C26.8605 80.0993 26.333 81.2055 26.7613 81.9473C27.1895 82.689 28.4113 82.7854 29.4904 82.1624C30.5696 81.5394 31.0968 80.4332 30.6686 79.6914C30.2404 78.9496 29.0183 78.8532 27.9394 79.4763ZM40.1465 76.0101C41.2254 75.387 41.7529 74.2808 41.3247 73.5391C40.8965 72.7973 39.6746 72.7009 38.5955 73.3239C37.5164 73.947 36.9891 75.0532 37.4173 75.7949C37.8455 76.5367 39.0676 76.6331 40.1465 76.0101Z" fill="#CB2222"/>
<path d="M80.7883 62.0816L80.7686 76.1838C80.7559 85.2238 76.3087 93.6823 68.8687 98.8172L61.2205 104.096L53.5615 98.8104C46.0979 93.6601 41.6469 85.1666 41.6596 76.0985L41.6793 62.0775C47.5308 61.3878 61.2164 55.4385 61.2164 55.4385C61.2164 55.4385 74.9259 61.3978 80.7883 62.0816Z" fill="#A3E72D"/>
<path d="M61.2162 55.4385C61.2162 55.4385 74.9257 61.3976 80.7883 62.0814L80.7686 76.1836C80.7565 84.7907 76.7242 92.8708 69.9165 98.0568C63.5242 89.3592 59.7481 78.6195 59.7481 66.9981C59.7481 63.059 60.182 59.2214 61.0044 55.5299C61.1426 55.4705 61.2162 55.4385 61.2162 55.4385Z" fill="#BAED6A"/>
<path d="M80.9665 60.5536C75.3976 59.9041 61.9646 54.0865 61.8294 54.0278C61.4385 53.8578 60.9946 53.858 60.6033 54.0278C60.4685 54.0865 47.0585 59.8947 41.4994 60.5499C40.7259 60.641 40.1424 61.2962 40.1414 62.0753L40.1217 76.0963C40.1084 85.6728 44.8061 94.6374 52.6881 100.076L60.3471 105.361C60.61 105.543 60.9154 105.633 61.2208 105.633C61.5261 105.633 61.8315 105.543 62.0944 105.361L69.7426 100.083C77.5965 94.6622 82.2934 85.7286 82.3071 76.1855L82.3268 62.0833C82.3272 61.3021 81.7425 60.6443 80.9665 60.5536ZM79.2305 76.1814C79.2184 84.7153 75.0182 92.7039 67.9951 97.5511L61.2206 102.227L54.4351 97.5444C47.3866 92.6807 43.1858 84.6644 43.1977 76.1008L43.2155 63.3866C48.9171 62.2642 58.6558 58.2038 61.2162 57.1126C63.7791 58.2044 73.5345 62.2709 79.2484 63.3913L79.2305 76.1814Z" fill="#80CF00"/>
<path d="M85.4253 64.27L61.8928 87.8025C61.5923 88.1027 61.1986 88.253 60.8051 88.253C60.4115 88.253 60.0178 88.1029 59.7173 87.8025L49.5666 77.6517C48.9659 77.0511 48.9659 76.0771 49.5666 75.4767C50.1674 74.876 51.1412 74.876 51.7418 75.4767L60.8048 84.5399L83.2496 62.0951C83.8507 61.4942 84.8244 61.4944 85.4249 62.0951C86.0254 62.6958 86.026 63.6695 85.4253 64.27Z" fill="white"/>
<path d="M55.3711 44.7256C55.3711 47.5571 53.0757 49.8525 50.2441 49.8525C47.7635 49.8525 45.6943 48.0907 45.2197 45.75C45.1857 45.7506 45.1514 45.751 45.1172 45.751C41.7192 45.751 38.9648 42.9966 38.9648 39.5986C38.9648 39.249 38.9942 38.9063 39.0502 38.5724C39.0217 38.5728 38.9933 38.5732 38.9648 38.5732C36.1333 38.5732 33.8379 36.2778 33.8379 33.4463C33.8379 30.6148 36.1333 28.3193 38.9648 28.3193C41.7964 28.3193 44.0918 30.6148 44.0918 33.4463C44.0918 33.4748 44.0914 33.5031 44.091 33.5316C44.4246 33.4756 44.7675 33.4463 45.1172 33.4463C48.5151 33.4463 51.2695 36.2007 51.2695 39.5986C51.2695 39.6329 51.2691 39.6669 51.2685 39.7012C53.6093 40.1757 55.3711 42.245 55.3711 44.7256Z" fill="#FFB509"/>
<path d="M45.1172 35.8145C47.2073 35.8145 48.9017 37.5088 48.9017 39.599C48.9017 41.6892 47.2073 43.3835 45.1172 43.3835C43.027 43.3835 41.3327 41.6892 41.3327 39.599C41.3327 37.5088 43.027 35.8145 45.1172 35.8145ZM35.9508 33.4467C35.9508 35.1113 37.3002 36.4607 38.9648 36.4607C40.6295 36.4607 41.9789 35.1113 41.9789 33.4467C41.9789 31.782 40.6295 30.4326 38.9648 30.4326C37.3002 30.4326 35.9508 31.782 35.9508 33.4467ZM48.292 45.1462C48.292 46.4564 49.3541 47.5185 50.6643 47.5185C51.9746 47.5185 53.0367 46.4564 53.0367 45.1462C53.0367 43.8359 51.9746 42.7738 50.6643 42.7738C49.3541 42.7738 48.292 43.8359 48.292 45.1462Z" fill="#FF9500"/>
<path d="M50.4529 26.2866C51.3339 27.1676 51.557 28.3726 50.9514 28.9784C50.3458 29.584 49.1406 29.3609 48.2596 28.4799C47.3786 27.5989 47.1554 26.3938 47.761 25.788C48.3666 25.1822 49.5719 25.4055 50.4529 26.2866ZM24.9974 13.4833C24.3918 14.0889 24.6149 15.2942 25.4959 16.1752C26.3769 17.0562 27.582 17.2793 28.1878 16.6737C28.7934 16.0681 28.5702 14.8629 27.6892 13.9819C26.8082 13.1009 25.603 12.8777 24.9974 13.4833ZM6.54034 50.1923C5.93474 50.7979 6.15787 52.0032 7.03888 52.8842C7.9199 53.7652 9.12494 53.9883 9.73074 53.3827C10.3363 52.7771 10.1132 51.5719 9.23219 50.6909C8.35118 49.8098 7.14593 49.5867 6.54034 50.1923ZM65.1016 27.8388C64.496 27.2332 63.2908 27.4563 62.41 28.3373C61.529 29.2184 61.3058 30.4234 61.9114 31.0292C62.517 31.635 63.7223 31.4117 64.6031 30.5307C65.4841 29.6496 65.7074 28.4444 65.1016 27.8388Z" fill="#00A86D"/>
<path d="M20.339 59.0482C21.22 59.9292 21.4432 61.1343 20.8376 61.7401C20.232 62.3457 19.0267 62.1225 18.1457 61.2415C17.2647 60.3605 17.0416 59.1555 17.6472 58.5497C18.253 57.9441 19.4582 58.1672 20.339 59.0482ZM20.694 51.1828C19.813 52.0639 19.5899 53.2689 20.1955 53.8745C20.8011 54.4801 22.0063 54.257 22.8873 53.3759C23.7683 52.4949 23.9915 51.2899 23.3859 50.6841C22.7801 50.0787 21.575 50.3018 20.694 51.1828ZM37.9032 48.9477C37.0221 49.8287 36.799 51.0337 37.4046 51.6395C38.0102 52.2453 39.2155 52.022 40.0965 51.141C40.9775 50.26 41.2006 49.055 40.595 48.4491C39.9892 47.8436 38.784 48.0667 37.9032 48.9477ZM49.1913 52.625C48.5857 52.0194 47.3804 52.2425 46.4994 53.1235C45.6184 54.0045 45.3953 55.2095 46.0009 55.8153C46.6065 56.4209 47.8117 56.1978 48.6927 55.3168C49.5739 54.4358 49.7971 53.2305 49.1913 52.625Z" fill="#FFC143"/>
<path d="M23.584 45.8975H16.6636C9.30154 45.8975 3.33356 39.9295 3.33356 32.5674C3.33356 25.2055 9.30154 19.2373 16.6636 19.2373H23.584C30.9461 19.2373 36.9141 25.2053 36.9141 32.5674C36.9141 39.9293 30.9461 45.8975 23.584 45.8975Z" fill="#BB5D4C"/>
<path d="M23.8577 45.8975H15.7223C8.36019 45.8975 2.39221 39.9293 2.39221 32.5674C2.39221 25.2053 8.36019 19.2373 15.7223 19.2373H23.8577C16.4958 19.2373 10.5277 25.2053 10.5277 32.5674C10.5277 39.9293 16.4958 45.8975 23.8577 45.8975Z" fill="#A44F3E"/>
<path d="M30.6503 34.106H8.14856C7.29913 34.106 6.61047 33.4173 6.61047 32.5679C6.61047 31.7184 7.29913 31.0298 8.14856 31.0298H30.6503C31.4998 31.0298 32.1884 31.7184 32.1884 32.5679C32.1884 33.4173 31.5 34.106 30.6503 34.106ZM29.6053 26.4258C29.6053 25.5763 28.9166 24.8877 28.0672 24.8877H10.7319C9.8825 24.8877 9.19384 25.5763 9.19384 26.4258C9.19384 27.2752 9.8825 27.9639 10.7319 27.9639H28.0672C28.9166 27.9639 29.6053 27.2752 29.6053 26.4258ZM29.6053 38.7202C29.6053 37.8708 28.9166 37.1821 28.0672 37.1821H10.7319C9.8825 37.1821 9.19384 37.8708 9.19384 38.7202C9.19384 39.5696 9.8825 40.2583 10.7319 40.2583H28.0672C28.9166 40.2583 29.6053 39.5696 29.6053 38.7202Z" fill="#883F2E"/>
</g>
<defs>
<clipPath id="clip0_1070_14384">
<rect width="105" height="105" fill="white" transform="translate(0 0.633789)"/>
</clipPath>
</defs>
</svg>
