<svg width="72" height="72" viewBox="0 0 72 72" fill="none" xmlns="http://www.w3.org/2000/svg">
<path d="M15.8887 1.0791V31.7823H16.9457L26.4857 22.2421H70.9404V1.0791H15.8887Z" fill="#54C9F3"/>
<path d="M28.1596 19.0664L24.9838 22.2422H70.9406V19.0664H28.1596Z" fill="#00ADEB"/>
<path d="M19.0645 28.6065V1.0791H15.8887V31.7823H16.9457L20.1215 28.6065H19.0645Z" fill="#00ADEB"/>
<path d="M39.2438 47.3556L39.2317 47.3434C37.9921 46.1039 35.9825 46.1039 34.7429 47.3434L37.681 44.4053C38.8934 43.193 38.9876 41.2196 37.8254 39.959C36.6064 38.6369 34.5537 38.5948 33.2805 39.8302L34.739 38.3693C35.9764 37.1295 35.9754 35.1215 34.7367 33.8828L34.724 33.8701C33.4839 32.63 31.4728 32.6307 30.2337 33.8718L27.3748 36.7309C28.4479 35.4838 28.3951 33.6019 27.2129 32.4195L27.2103 32.417C25.9708 31.1774 23.9611 31.1774 22.7216 32.417L7.47132 47.6676V41.1582C7.47132 39.3038 5.99351 37.8206 4.08986 37.9967C2.35672 38.1567 1.05774 39.6637 1.05774 41.4042V57.4092C1.05774 60.9928 2.48135 64.4297 5.01536 66.9637C10.2922 72.2405 18.8476 72.2405 24.1244 66.9637L39.2438 51.8443C40.4834 50.6048 40.4834 48.5951 39.2438 47.3556Z" fill="#FFDAAA"/>
<path d="M15.5389 70.8828C15.5855 70.8794 15.6319 70.8766 15.6784 70.8728C18.7581 70.6207 21.768 69.3197 24.1242 66.9636L26.2864 64.8013C21.0096 70.0781 12.4541 70.0781 7.17736 64.8013C5.18126 62.8693 3.95497 60.102 3.95497 57.409V41.4041C3.95497 40.0827 4.70461 38.8976 5.82348 38.3326C3.66986 37.168 1.00161 39.0099 1.0575 41.4041V57.409C1.0575 60.9926 2.48111 64.4295 5.01513 66.9636C7.73927 69.7173 11.6785 71.18 15.5389 70.8828Z" fill="#FFB680"/>
<path d="M16.4942 38.6454L22.7226 32.417C23.9621 31.1774 25.9718 31.1774 27.2113 32.417L27.2139 32.4195C28.4022 33.6078 28.4505 35.5036 27.3602 36.7505L16.7697 47.3379L30.2346 33.8718C31.4738 32.6307 33.4848 32.63 34.7249 33.8701L34.7376 33.8828C35.9763 35.1215 35.9773 37.1293 34.7398 38.3693L21.2709 51.8391L33.2815 39.8302C34.5546 38.5948 36.6074 38.6369 37.8264 39.959C38.9886 41.2196 38.8944 43.1928 37.682 44.4053L25.7596 56.3277L34.7439 47.3434C35.9835 46.1039 37.9931 46.1039 39.2327 47.3434L39.2448 47.3556C40.4844 48.5951 40.4844 50.6048 39.2448 51.8443L24.1253 66.9636C18.8485 72.2404 10.293 72.2404 5.01622 66.9636C2.4822 64.4296 1.05859 60.9928 1.05859 57.409V41.4041C1.05859 39.6636 2.35757 38.1567 4.09072 37.9964C5.99437 37.8204 7.47218 39.3035 7.47218 41.1579V47.6674L14.8295 40.3101" stroke="black" stroke-width="2.11721" stroke-miterlimit="10"/>
<path fill-rule="evenodd" clip-rule="evenodd" d="M13.027 49.5836L14.5241 48.0864L16.0212 49.5835L14.5241 51.0807L13.027 49.5836Z" fill="black"/>
<path fill-rule="evenodd" clip-rule="evenodd" d="M17.5281 54.0848L19.0252 52.5876L20.5223 54.0847L19.0252 55.5819L17.5281 54.0848Z" fill="black"/>
<path fill-rule="evenodd" clip-rule="evenodd" d="M22.0168 58.5733L23.514 57.0762L25.0111 58.5733L23.5139 60.0704L22.0168 58.5733Z" fill="black"/>
<path fill-rule="evenodd" clip-rule="evenodd" d="M21.1783 16.9479V6.36182H23.2956V16.9479H21.1783Z" fill="black"/>
<path fill-rule="evenodd" clip-rule="evenodd" d="M27.5344 16.9479V6.36182H29.6516V16.9479H27.5344Z" fill="black"/>
<path fill-rule="evenodd" clip-rule="evenodd" d="M28.5931 12.7134H22.2369V10.5962H28.5931V12.7134Z" fill="black"/>
<path fill-rule="evenodd" clip-rule="evenodd" d="M31.7656 6.36621H38.1188V8.48342H33.8828V14.826H38.1188V16.9432H31.7656V6.36621Z" fill="black"/>
<path fill-rule="evenodd" clip-rule="evenodd" d="M36.0016 12.7134H32.8242V10.5962H36.0016V12.7134Z" fill="black"/>
<path fill-rule="evenodd" clip-rule="evenodd" d="M40.2734 6.37378H42.3906V14.8261H46.5875V16.9433H40.2734V6.37378Z" fill="black"/>
<path fill-rule="evenodd" clip-rule="evenodd" d="M48.7422 6.37378H50.8594V14.8261H55.0563V16.9433H48.7422V6.37378Z" fill="black"/>
<path fill-rule="evenodd" clip-rule="evenodd" d="M61.4078 8.47878C60.2385 8.47878 59.2905 9.42674 59.2905 10.596V12.7273C59.2905 13.8966 60.2385 14.8445 61.4078 14.8445C62.577 14.8445 63.525 13.8966 63.525 12.7273V10.596C63.525 9.42674 62.577 8.47878 61.4078 8.47878ZM57.1733 10.596C57.1733 8.25744 59.0692 6.36157 61.4078 6.36157C63.7463 6.36157 65.6422 8.25744 65.6422 10.596V12.7273C65.6422 15.0659 63.7463 16.9617 61.4078 16.9617C59.0692 16.9617 57.1733 15.0659 57.1733 12.7273V10.596Z" fill="black"/>
<path fill-rule="evenodd" clip-rule="evenodd" d="M14.8309 0.0205078H71.9999V23.3008H63.5251V21.1835H69.8827V2.13772H16.9481V30.2836L26.0481 21.1835H61.4079V23.3008H26.9251L17.3851 32.8409H14.8309V0.0205078Z" fill="black"/>
<path d="M46.7608 31.7783L42.4032 36.1358" stroke="black" stroke-width="2.11721" stroke-miterlimit="10"/>
<path fill-rule="evenodd" clip-rule="evenodd" d="M44.5747 38.5871L49.4964 34.8784L50.7705 36.5693L45.8489 40.278L44.5747 38.5871Z" fill="black"/>
<path fill-rule="evenodd" clip-rule="evenodd" d="M38.2454 32.4588L41.954 27.5371L43.6449 28.8113L39.9363 33.7329L38.2454 32.4588Z" fill="black"/>
<path fill-rule="evenodd" clip-rule="evenodd" d="M41.6547 35.3873L46.0123 31.0298L47.5094 32.5269L43.1517 36.8844L41.6547 35.3873Z" fill="black"/>
</svg>
