<svg width="70" height="70" viewBox="0 0 70 70" fill="none" xmlns="http://www.w3.org/2000/svg">
<g clip-path="url(#clip0_123_8430)">
<path d="M34.7605 65.603C51.662 65.603 65.3634 51.9016 65.3634 35.0001C65.3634 18.0986 51.662 4.39722 34.7605 4.39722C17.859 4.39722 4.15759 18.0986 4.15759 35.0001C4.15759 51.9016 17.859 65.603 34.7605 65.603Z" fill="#D8EEF5"/>
<path d="M58.5685 53.0525C68.7939 39.5989 66.4192 20.5874 53.2644 10.5891C40.1096 0.590766 21.1562 3.39183 10.9308 16.8454C0.705347 30.299 3.08008 49.3106 16.2349 59.3089C29.3897 69.3072 48.3431 66.5061 58.5685 53.0525Z" fill="#F1F7F8"/>
<path d="M35.5179 34.2426H60.044C59.8506 27.799 57.2046 21.6723 52.6463 17.1138C48.0881 12.5553 41.9615 9.90887 35.5179 9.71509V34.2426Z" fill="#F2D382"/>
<path d="M34.0016 41.48V9.71509C30.1934 9.83101 26.4606 10.8051 23.0814 12.5648C19.7022 14.3245 16.7638 16.8244 14.4854 19.8779C12.207 22.9315 10.6474 26.4601 9.92279 30.2005C9.1982 33.9408 9.32735 37.7965 10.3006 41.48H34.0016Z" fill="#8BC782"/>
<path d="M34.0016 42.989H10.7513C12.3899 47.9055 15.4982 52.2006 19.6562 55.2937C23.8142 58.3869 28.8216 60.1291 34.0016 60.2849V42.989Z" fill="#F8CAD6"/>
<path d="M35.5179 35.7573V60.2848C41.9615 60.0911 48.0881 57.4447 52.6463 52.8862C57.2046 48.3277 59.8506 42.2009 60.044 35.7573H35.5179Z" fill="#F6AB43"/>
<path d="M18.1285 26.7503C18.347 26.5016 18.5157 26.2131 18.6253 25.9007C19.1032 26.3288 19.7229 26.5644 20.3645 26.562C21.006 26.5597 21.6239 26.3194 22.0986 25.8878L22.1216 25.869C22.3452 25.6601 22.5295 25.4128 22.666 25.139C22.7689 25.1937 22.8752 25.2418 22.9842 25.283C23.3375 25.4243 23.7176 25.4862 24.0975 25.4641C24.4774 25.4421 24.8478 25.3367 25.1823 25.1553C25.5169 24.974 25.8074 24.7212 26.0333 24.415C26.2591 24.1087 26.4148 23.7565 26.4892 23.3833C26.5636 23.0101 26.5549 22.6251 26.4638 22.2556C26.3726 21.8862 26.2012 21.5413 25.9618 21.2456C25.7224 20.9498 25.4207 20.7104 25.0783 20.5443C24.7359 20.3783 24.3612 20.2896 23.9807 20.2847C23.9332 20.2257 23.8842 20.1652 23.8367 20.109C23.5323 19.7842 23.1494 19.5432 22.7249 19.4093C22.3003 19.2754 21.8485 19.2531 21.4128 19.3446C20.9771 19.436 20.5724 19.6381 20.2375 19.9314C19.9026 20.2247 19.6489 20.5993 19.5008 21.0191C19.1477 20.6829 18.7066 20.4535 18.2286 20.3575C17.7506 20.2614 17.2551 20.3026 16.7995 20.4762C16.3439 20.6499 15.9467 20.9489 15.6539 21.3388C15.3611 21.7287 15.1846 22.1935 15.1448 22.6794C14.7943 22.8272 14.4806 23.0504 14.2259 23.3331C13.9713 23.6157 13.782 23.951 13.6715 24.315C13.5611 24.6791 13.532 25.063 13.5866 25.4395C13.6411 25.816 13.7779 26.1759 13.9872 26.4936C14.1964 26.8113 14.4731 27.0791 14.7975 27.2779C15.1218 27.4767 15.486 27.6016 15.8641 27.6438C16.2422 27.6861 16.6249 27.6445 16.9852 27.5222C17.3454 27.3999 17.6743 27.1998 17.9485 26.9361C18.0076 26.8799 18.0709 26.8166 18.1285 26.7503Z" fill="#00834E"/>
<path d="M22.9841 25.283L22.1503 26.579L22.0985 25.8892C21.8364 26.1292 21.5275 26.3124 21.1913 26.4274C20.855 26.5424 20.4986 26.5866 20.1444 26.5574L20.2683 27.227L19.3855 26.3745C19.1064 26.2627 18.8491 26.1029 18.6252 25.9022C18.5156 26.2146 18.3469 26.503 18.1284 26.7518L20.5519 29.0442L20.7463 30.0897C20.7817 30.2823 20.8815 30.4572 21.0294 30.5856C21.1772 30.7141 21.3643 30.7885 21.5599 30.7967C21.8652 30.8037 22.1644 30.7112 22.4124 30.5332C22.5406 30.4436 22.6421 30.3208 22.706 30.178C22.7699 30.0353 22.7939 29.8778 22.7753 29.7225L22.5377 27.7065L23.9619 25.4572C23.6278 25.4627 23.2957 25.4035 22.9841 25.283Z" fill="white"/>
<g opacity="0.2">
<path d="M18.788 22.973C18.8577 22.9075 18.9064 22.8229 18.928 22.7298C18.9497 22.6367 18.9432 22.5392 18.9095 22.4498C18.8758 22.3603 18.8164 22.2828 18.7387 22.2271C18.661 22.1714 18.5685 22.14 18.473 22.1367C18.3774 22.1335 18.2831 22.1587 18.2018 22.2091C18.1206 22.2594 18.0561 22.3327 18.0164 22.4197C17.9768 22.5067 17.9638 22.6035 17.9792 22.6979C17.9945 22.7923 18.0374 22.88 18.1026 22.9499C18.1459 22.9968 18.198 23.0345 18.256 23.0611C18.314 23.0876 18.3767 23.1023 18.4405 23.1045C18.5042 23.1066 18.5677 23.0961 18.6274 23.0735C18.6871 23.051 18.7416 23.0168 18.788 22.973Z" fill="white"/>
</g>
<g opacity="0.2">
<path d="M15.2916 24.9099C15.2219 24.9753 15.1732 25.06 15.1516 25.1531C15.13 25.2462 15.1364 25.3436 15.1701 25.4331C15.2038 25.5226 15.2632 25.6 15.3409 25.6557C15.4186 25.7114 15.5111 25.7429 15.6066 25.7461C15.7022 25.7493 15.7965 25.7242 15.8778 25.6738C15.959 25.6234 16.0236 25.5501 16.0632 25.4631C16.1028 25.3761 16.1158 25.2793 16.1005 25.185C16.0851 25.0906 16.0422 25.0029 15.9771 24.9329C15.8892 24.839 15.7676 24.7839 15.6391 24.7796C15.5106 24.7753 15.3856 24.8221 15.2916 24.9099Z" fill="white"/>
</g>
<path d="M44.8347 37.6899C44.1453 37.7038 43.4606 37.8059 42.7971 37.9938C42.3721 38.1165 41.9776 38.3271 41.6392 38.6121C41.3007 38.897 41.0259 39.2499 40.8326 39.6478C40.6393 40.0457 40.5317 40.4798 40.5169 40.922C40.5021 41.3641 40.5803 41.8044 40.7466 42.2144C41.311 43.5867 42.3306 45.1117 44.191 46.016C46.927 47.3509 50.7675 46.9837 52.9016 46.6237C52.9945 47.4576 53.2385 48.2676 53.6216 49.0141C53.6897 49.1458 53.8007 49.2503 53.9362 49.3104C54.0717 49.3706 54.2236 49.3828 54.3669 49.3451C54.5103 49.3074 54.6365 49.222 54.7249 49.1029C54.8132 48.9838 54.8583 48.8382 54.8528 48.6901L54.7549 46.4091L56.5232 45.2571C57.1338 44.8597 56.7291 43.9223 56.0163 44.0792C55.2476 44.2676 54.5075 44.5582 53.816 44.9432C52.808 43.0554 50.7042 39.7261 47.9206 38.3696C46.9603 37.903 45.9021 37.6733 44.8347 37.7" fill="#EA5442"/>
<path d="M42.6128 43.8013C42.6128 43.8013 43.8728 46.8771 50.2448 46.2766C50.2434 46.2766 45.3949 46.6395 42.6128 43.8013Z" fill="white"/>
<path d="M42.7755 39.8383C42.8064 39.7751 42.8177 39.7041 42.8082 39.6344C42.7986 39.5647 42.7687 39.4994 42.722 39.4467C42.6753 39.394 42.6141 39.3564 42.546 39.3385C42.478 39.3207 42.4061 39.3234 42.3396 39.3464C42.2731 39.3694 42.2149 39.4116 42.1724 39.4676C42.1299 39.5237 42.1049 39.5911 42.1007 39.6613C42.0965 39.7316 42.1132 39.8015 42.1488 39.8622C42.1843 39.9229 42.2371 39.9718 42.3003 40.0025C42.3851 40.0437 42.4828 40.0496 42.5719 40.0188C42.661 39.988 42.7343 39.9231 42.7755 39.8383Z" fill="white"/>
<path d="M43.8339 42.4549C43.8339 42.4549 46.4561 40.809 44.8347 37.6899C45.1361 38.4974 45.2021 39.3739 45.0249 40.2175C44.8477 41.061 44.4347 41.8369 43.8339 42.4549Z" fill="white"/>
<path d="M45.2725 17.491L38.5549 18.787C38.288 18.8386 38.034 18.9423 37.8072 19.0921C37.5804 19.2419 37.3854 19.4349 37.2332 19.6601C37.081 19.8852 36.9747 20.1382 36.9203 20.4045C36.8659 20.6708 36.8645 20.9452 36.9161 21.212L37.3035 23.192C37.3243 23.3036 37.3668 23.41 37.4287 23.5051C37.4906 23.6002 37.5707 23.6822 37.6643 23.7464C37.7579 23.8106 37.8632 23.8557 37.9743 23.8792C38.0853 23.9027 38.1999 23.904 38.3115 23.8832L39.2158 28.5661C39.2876 28.9377 39.5041 29.2655 39.8176 29.4775C40.1312 29.6895 40.5161 29.7683 40.8877 29.6965L47.1661 28.4826C47.5374 28.4104 47.8649 28.1938 48.0766 27.8803C48.2883 27.5668 48.3668 27.1821 48.295 26.8107L47.3893 22.1278C47.5013 22.1066 47.6081 22.0634 47.7034 22.0007C47.7987 21.9381 47.8806 21.8571 47.9445 21.7626C48.0083 21.6681 48.0529 21.5619 48.0754 21.4501C48.098 21.3383 48.0983 21.2231 48.0761 21.1112L47.6931 19.1297C47.5889 18.5917 47.2754 18.1171 46.8216 17.8098C46.3678 17.5026 45.8107 17.388 45.2725 17.491ZM47.6355 20.947C47.6556 21.0506 47.655 21.1571 47.6339 21.2604C47.6127 21.3637 47.5714 21.4619 47.5123 21.5492C47.4532 21.6365 47.3774 21.7114 47.2893 21.7694C47.2013 21.8274 47.1026 21.8675 46.999 21.8874L47.9163 26.6264C47.9493 26.7968 47.9484 26.972 47.9137 27.1421C47.8789 27.3121 47.811 27.4736 47.7138 27.6174C47.6165 27.7612 47.4919 27.8844 47.347 27.98C47.2022 28.0755 47.0399 28.1416 46.8694 28.1744L41.0561 29.299C40.8857 29.3321 40.7105 29.3312 40.5405 29.2964C40.3704 29.2617 40.2089 29.1937 40.0651 29.0965C39.9213 28.9993 39.7981 28.8747 39.7026 28.7298C39.607 28.5849 39.5409 28.4226 39.5081 28.2521L38.5909 23.5131C38.4874 23.5332 38.381 23.5327 38.2778 23.5116C38.1745 23.4906 38.0764 23.4494 37.9891 23.3904C37.9018 23.3314 37.827 23.2558 37.7689 23.1679C37.7108 23.08 37.6706 22.9815 37.6505 22.8781L37.3539 21.343C37.306 21.096 37.3073 20.8419 37.3577 20.5953C37.4081 20.3487 37.5065 20.1145 37.6475 19.906C37.7885 19.6975 37.9691 19.5188 38.1792 19.3802C38.3892 19.2416 38.6245 19.1457 38.8717 19.0981L45.0939 17.8942C45.5928 17.7983 46.1094 17.9043 46.5303 18.1888C46.9512 18.4734 47.242 18.9133 47.3389 19.412L47.6355 20.947Z" fill="#7F4F21"/>
<path d="M38.935 22.1466C39.0781 22.1466 39.1942 22.0305 39.1942 21.8874C39.1942 21.7442 39.0781 21.6282 38.935 21.6282C38.7918 21.6282 38.6758 21.7442 38.6758 21.8874C38.6758 22.0305 38.7918 22.1466 38.935 22.1466Z" fill="#7F4F21"/>
<path d="M42.5048 21.4554C42.648 21.4554 42.764 21.3394 42.764 21.1962C42.764 21.0531 42.648 20.937 42.5048 20.937C42.3617 20.937 42.2456 21.0531 42.2456 21.1962C42.2456 21.3394 42.3617 21.4554 42.5048 21.4554Z" fill="#7F4F21"/>
<path d="M44.1061 20.1566C44.2493 20.1566 44.3653 20.0405 44.3653 19.8974C44.3653 19.7542 44.2493 19.6382 44.1061 19.6382C43.963 19.6382 43.8469 19.7542 43.8469 19.8974C43.8469 20.0405 43.963 20.1566 44.1061 20.1566Z" fill="#7F4F21"/>
<path d="M46.0745 20.7655C46.2177 20.7655 46.3337 20.6494 46.3337 20.5063C46.3337 20.3631 46.2177 20.2471 46.0745 20.2471C45.9314 20.2471 45.8153 20.3631 45.8153 20.5063C45.8153 20.6494 45.9314 20.7655 46.0745 20.7655Z" fill="#7F4F21"/>
<path d="M40.5335 20.8333C40.6766 20.8333 40.7927 20.7173 40.7927 20.5741C40.7927 20.431 40.6766 20.3149 40.5335 20.3149C40.3903 20.3149 40.2743 20.431 40.2743 20.5741C40.2743 20.7173 40.3903 20.8333 40.5335 20.8333Z" fill="#7F4F21"/>
<path d="M45.094 17.8929L38.8717 19.0967C38.6246 19.1444 38.3893 19.2402 38.1792 19.3789C37.9692 19.5175 37.7885 19.6962 37.6476 19.9047C37.5066 20.1131 37.4081 20.3474 37.3577 20.594C37.3074 20.8405 37.3061 21.0946 37.354 21.3417L37.6506 22.8767C37.6706 22.9802 37.7108 23.0787 37.7689 23.1666C37.827 23.2545 37.9018 23.3301 37.9892 23.3891C38.0765 23.4481 38.1746 23.4893 38.2778 23.5103C38.3811 23.5314 38.4875 23.5319 38.5909 23.5118L39.5082 28.2508C39.541 28.4213 39.6071 28.5836 39.7026 28.7284C39.7982 28.8733 39.9214 28.9979 40.0652 29.0952C40.2089 29.1924 40.3705 29.2603 40.5405 29.2951C40.7106 29.3298 40.8858 29.3307 41.0562 29.2977L46.8695 28.1731C47.0399 28.1403 47.2022 28.0742 47.3471 27.9786C47.492 27.8831 47.6166 27.7599 47.7138 27.6161C47.8111 27.4723 47.879 27.3108 47.9137 27.1407C47.9485 26.9707 47.9494 26.7954 47.9164 26.6251L46.9991 21.886C47.1027 21.8662 47.2013 21.8261 47.2894 21.7681C47.3775 21.71 47.4532 21.6352 47.5123 21.5479C47.5715 21.4605 47.6128 21.3624 47.6339 21.259C47.6551 21.1557 47.6556 21.0492 47.6356 20.9457L47.3389 19.4107C47.242 18.9119 46.9512 18.472 46.5303 18.1875C46.1094 17.9029 45.5929 17.797 45.094 17.8929ZM38.984 22.1409C38.9337 22.1505 38.8817 22.145 38.8345 22.125C38.7873 22.105 38.7471 22.0715 38.7189 22.0287C38.6908 21.9859 38.6759 21.9357 38.6763 21.8845C38.6766 21.8333 38.6922 21.7833 38.7209 21.7409C38.7496 21.6985 38.7903 21.6655 38.8378 21.6462C38.8852 21.6269 38.9373 21.6221 38.9875 21.6324C39.0377 21.6427 39.0837 21.6676 39.1198 21.704C39.1558 21.7405 39.1802 21.7868 39.19 21.8371C39.1964 21.8705 39.1962 21.905 39.1894 21.9384C39.1825 21.9718 39.1692 22.0035 39.15 22.0317C39.1309 22.0599 39.1064 22.0841 39.0779 22.1028C39.0494 22.1216 39.0175 22.1345 38.984 22.1409ZM40.5824 20.8291C40.5321 20.8389 40.48 20.8337 40.4327 20.8139C40.3853 20.7942 40.3449 20.7608 40.3166 20.7181C40.2882 20.6754 40.2731 20.6252 40.2733 20.5739C40.2734 20.5226 40.2888 20.4725 40.3174 20.43C40.3461 20.3874 40.3867 20.3544 40.4341 20.3349C40.4816 20.3154 40.5337 20.3105 40.584 20.3207C40.6343 20.3309 40.6804 20.3558 40.7165 20.3922C40.7526 20.4286 40.7771 20.4749 40.7869 20.5252C40.8 20.5926 40.7859 20.6625 40.7475 20.7194C40.7092 20.7764 40.6498 20.8158 40.5824 20.8291ZM42.5538 21.4511C42.5035 21.4607 42.4514 21.4552 42.4042 21.4352C42.357 21.4153 42.3168 21.3818 42.2887 21.339C42.2605 21.2962 42.2457 21.246 42.246 21.1947C42.2464 21.1435 42.2619 21.0935 42.2907 21.0511C42.3194 21.0087 42.3601 20.9758 42.4075 20.9564C42.455 20.9371 42.5071 20.9323 42.5573 20.9426C42.6075 20.9529 42.6535 20.9778 42.6895 21.0143C42.7256 21.0507 42.75 21.097 42.7597 21.1473C42.7662 21.1808 42.766 21.2152 42.7591 21.2486C42.7523 21.282 42.7389 21.3137 42.7198 21.3419C42.7007 21.3702 42.6762 21.3943 42.6477 21.4131C42.6192 21.4318 42.5873 21.4447 42.5538 21.4511ZM44.1551 20.1551C44.1047 20.165 44.0526 20.1597 44.0053 20.14C43.958 20.1202 43.9176 20.0869 43.8892 20.0442C43.8608 20.0015 43.8458 19.9513 43.8459 19.9C43.8461 19.8487 43.8615 19.7986 43.8901 19.7561C43.9187 19.7135 43.9593 19.6804 44.0068 19.661C44.0542 19.6415 44.1064 19.6366 44.1566 19.6468C44.2069 19.657 44.253 19.6818 44.2891 19.7182C44.3253 19.7546 44.3498 19.801 44.3596 19.8513C44.3718 19.9183 44.3573 19.9874 44.319 20.0437C44.2807 20.1 44.2218 20.139 44.1551 20.1523V20.1551ZM46.1236 20.7643C46.0732 20.7739 46.0212 20.7683 45.974 20.7484C45.9268 20.7284 45.8866 20.6949 45.8584 20.6521C45.8303 20.6093 45.8154 20.5591 45.8158 20.5079C45.8161 20.4566 45.8317 20.4066 45.8604 20.3642C45.8892 20.3218 45.9298 20.2889 45.9773 20.2696C46.0247 20.2502 46.0769 20.2454 46.1271 20.2557C46.1772 20.266 46.2233 20.291 46.2593 20.3274C46.2953 20.3638 46.3197 20.4101 46.3295 20.4604C46.3417 20.5276 46.3269 20.5969 46.2884 20.6532C46.2498 20.7096 46.1906 20.7484 46.1236 20.7614V20.7643Z" fill="white"/>
<path d="M55.1062 25.5867C55.1155 25.5069 55.1073 25.4261 55.0822 25.3498C55.0571 25.2734 55.0158 25.2035 54.961 25.1447C54.9062 25.086 54.8393 25.0398 54.7649 25.0095C54.6905 24.9791 54.6104 24.9653 54.5302 24.969C54.7275 22.328 54.4395 20.456 53.1132 20.0485C51.787 19.641 50.5126 21.0061 49.1676 23.3907C49.1088 23.3218 49.0338 23.2685 48.9495 23.2353C48.8651 23.2022 48.7739 23.1903 48.6839 23.2006C48.5939 23.211 48.5077 23.2434 48.4332 23.2949C48.3586 23.3463 48.2978 23.4154 48.2561 23.4959C44.1881 31.3914 48.5542 32.8026 49.1201 32.948C49.6601 33.141 54.0708 34.4082 55.1062 25.5867ZM51.1275 23.408C51.7143 23.6712 52.3301 23.8645 52.962 23.984C52.8766 24.5831 52.7777 25.1797 52.6654 25.7739C51.8412 25.6316 51.0403 25.3773 50.2851 25.0179C50.5212 24.4621 50.7713 23.913 51.0353 23.3706L51.1275 23.408ZM51.175 23.2496L51.1073 23.2179C51.3473 22.7293 51.5984 22.2464 51.8604 21.7693C52.2822 21.956 52.7223 22.0979 53.1737 22.1927C53.1435 22.4951 53.1118 22.7975 53.0758 23.0984C53.0484 23.3375 53.0168 23.5765 52.9836 23.8184C52.3606 23.7002 51.7536 23.5093 51.175 23.2496ZM49.591 31.3871C49.7288 30.7853 49.8355 30.1768 49.9107 29.564C50.0547 29.6144 50.1987 29.6605 50.3427 29.708C50.064 30.2547 49.8131 30.8151 49.591 31.3871ZM50.4161 29.5597C50.252 29.5107 50.0907 29.4575 49.928 29.3999C50.0101 28.67 50.0337 27.9347 49.9985 27.201C50.5094 27.4089 51.0344 27.5802 51.5696 27.7136C51.1373 28.2978 50.7516 28.9151 50.4161 29.5597ZM52.7028 26.4047C52.7345 26.2607 52.7662 26.1051 52.7964 25.9554C52.9088 25.9712 53.0211 25.9813 53.1348 25.9928C52.9995 26.1195 52.8555 26.2563 52.7028 26.4047ZM52.4868 26.6264C52.2007 26.9265 51.931 27.2418 51.679 27.5711C51.1019 27.4336 50.5366 27.2506 49.9884 27.0239C49.964 26.6639 49.9265 26.3298 49.879 26.0159C49.915 25.9251 49.9467 25.8315 49.9827 25.7408C50.0604 25.5464 50.1411 25.3535 50.2217 25.1648C50.9317 25.5026 51.681 25.7508 52.4523 25.9035C52.5128 25.9151 52.5732 25.9223 52.6337 25.9323C52.5876 26.1613 52.5372 26.3931 52.4868 26.6264ZM49.8315 25.6976C49.7768 25.4 49.7168 25.1235 49.6515 24.8682C49.7091 24.8999 49.7667 24.933 49.8243 24.9632L50.0777 25.0899C49.9884 25.2915 49.9078 25.496 49.8315 25.6976ZM54.1011 25.1835C53.8649 25.3736 53.5956 25.5896 53.3048 25.8459C53.1464 25.8315 52.988 25.8171 52.831 25.7927C52.9443 25.2003 53.0436 24.6056 53.1291 24.0085C53.4782 24.0652 53.831 24.096 54.1846 24.1007C54.163 24.4434 54.1342 24.8063 54.0968 25.1835H54.1011ZM54.1918 23.9351C53.8435 23.9301 53.496 23.8997 53.1521 23.8443C53.227 23.3048 53.2894 22.7639 53.3393 22.2215C53.6018 22.2699 53.8675 22.2997 54.1342 22.3107C54.1976 22.8497 54.2154 23.3931 54.1875 23.9351H54.1918ZM54.1083 22.1451C53.8557 22.1311 53.6042 22.1017 53.3552 22.0573C53.3811 21.7693 53.4056 21.4712 53.4243 21.1775C53.4344 21.0219 53.4444 20.8664 53.4531 20.7109C53.7872 21.0061 53.996 21.4971 54.104 22.1451H54.1083ZM52.9894 20.456C53.0963 20.49 53.198 20.5385 53.2918 20.6C53.2716 21.0781 53.2356 21.5562 53.1896 22.0328C52.7606 21.9406 52.3419 21.806 51.9396 21.6311C52.075 21.3834 52.2147 21.1371 52.3558 20.8923C52.4508 20.7296 52.5473 20.5669 52.6438 20.4056C52.7607 20.4069 52.877 20.4239 52.9894 20.456ZM52.4436 20.4099C52.2152 20.7872 51.9958 21.1712 51.7856 21.5619C51.5603 21.46 51.3406 21.346 51.1275 21.2207C51.5696 20.744 52.0044 20.4661 52.4436 20.4085V20.4099ZM51.0137 21.3416C51.2384 21.4746 51.4701 21.5952 51.7078 21.7031C51.5638 21.981 51.4097 22.2603 51.2657 22.5411C51.162 22.7442 51.0612 22.9472 50.9604 23.1531C50.6507 23.0092 50.351 22.8447 50.0633 22.6607C50.3424 22.1945 50.6603 21.7528 51.0137 21.3402V21.3416ZM49.9755 22.8003C50.2662 22.9872 50.5699 23.1532 50.8841 23.2971C50.6211 23.8386 50.3705 24.3867 50.1324 24.9416C49.9467 24.8495 49.7652 24.7501 49.5867 24.6536C49.5118 24.3757 49.4355 24.1223 49.3649 23.8933C49.5737 23.4973 49.7768 23.133 49.9755 22.8003Z" fill="#7F4F21"/>
<path d="M52.4868 26.6263C52.5372 26.393 52.5876 26.1612 52.6308 25.9279C52.5703 25.9178 52.5099 25.9106 52.4494 25.8991C51.6781 25.7463 50.9288 25.4982 50.2188 25.1604C50.1382 25.3548 50.0575 25.5478 49.9798 25.7364C49.9438 25.8271 49.9121 25.9207 49.8761 26.0114C49.9236 26.3239 49.9611 26.658 49.9855 27.0194C50.5337 27.2462 51.099 27.4292 51.6761 27.5666C51.9292 27.2388 52.1998 26.9249 52.4868 26.6263Z" fill="white"/>
<path d="M52.7965 25.9553C52.7662 26.0993 52.7346 26.2548 52.7029 26.4046C52.8469 26.2606 52.9909 26.1166 53.1349 25.9928C53.0211 25.9812 52.9088 25.9712 52.7965 25.9553Z" fill="white"/>
<path d="M51.1274 23.408L51.0353 23.3662C50.7713 23.9086 50.5212 24.4577 50.285 25.0136C51.0403 25.3729 51.8412 25.6273 52.6654 25.7696C52.7796 25.1753 52.8785 24.5787 52.962 23.9797C52.3302 23.8615 51.7145 23.6696 51.1274 23.408Z" fill="white"/>
<path d="M51.5696 27.7136C51.0344 27.5801 50.5094 27.4088 49.9985 27.2009C50.0337 27.9346 50.0101 28.6699 49.928 29.3998C50.0907 29.4574 50.252 29.5107 50.4161 29.5596C50.7516 28.915 51.1373 28.2978 51.5696 27.7136Z" fill="white"/>
<path d="M54.1803 24.1007C53.8266 24.096 53.4738 24.0652 53.1247 24.0085C53.0393 24.6057 52.9399 25.2004 52.8267 25.7927C52.9836 25.8172 53.142 25.8316 53.3004 25.846C53.5884 25.5897 53.8606 25.3737 54.0967 25.1836C54.1342 24.8063 54.163 24.4434 54.1803 24.1007Z" fill="white"/>
<path d="M50.887 23.2971C50.5728 23.1532 50.2691 22.9872 49.9784 22.8003C49.7768 23.1329 49.5737 23.4973 49.3678 23.8875C49.4384 24.1165 49.5118 24.3699 49.5896 24.6478C49.7681 24.7501 49.9496 24.8494 50.1353 24.9358C50.3734 24.3857 50.624 23.8395 50.887 23.2971Z" fill="white"/>
<path d="M49.82 24.9632C49.7624 24.933 49.7048 24.8998 49.6472 24.8682C49.7115 25.1235 49.7715 25.4 49.8272 25.6976C49.9079 25.4946 49.9885 25.2915 50.0735 25.0899L49.82 24.9632Z" fill="white"/>
<path d="M53.1434 23.8443C53.4873 23.8997 53.8348 23.93 54.1831 23.935C54.2096 23.3929 54.1904 22.8496 54.1255 22.3107C53.8588 22.2997 53.5932 22.2699 53.3306 22.2214C53.2836 22.7648 53.2212 23.3058 53.1434 23.8443Z" fill="white"/>
<path d="M51.2715 22.5396C51.4155 22.2588 51.5595 21.9794 51.7136 21.7015C51.4758 21.5937 51.2441 21.473 51.0195 21.3401C50.6661 21.7522 50.3482 22.1935 50.0691 22.6591C50.3568 22.8431 50.6565 23.0077 50.9662 23.1516C51.0613 22.9457 51.1621 22.7426 51.2715 22.5396Z" fill="white"/>
<path d="M51.9397 21.6253C52.342 21.8002 52.7607 21.9348 53.1896 22.027C53.2357 21.5504 53.2717 21.0723 53.2919 20.5942C53.1981 20.5327 53.0963 20.4842 52.9895 20.4502C52.8772 20.4166 52.761 20.3982 52.6439 20.3955C52.5474 20.5568 52.4509 20.7195 52.3559 20.8822C52.2147 21.1313 52.0751 21.3776 51.9397 21.6253Z" fill="white"/>
<path d="M53.3508 22.0572C53.5999 22.1017 53.8514 22.131 54.104 22.1451C53.996 21.4971 53.7871 21.006 53.4487 20.7051C53.4401 20.8606 53.43 21.0161 53.42 21.1716C53.4012 21.4712 53.3768 21.7635 53.3508 22.0572Z" fill="white"/>
<path d="M52.9836 23.8155C53.0167 23.5764 53.0484 23.3374 53.0758 23.0955C53.1118 22.7945 53.1435 22.4921 53.1737 22.1897C52.7223 22.0949 52.2822 21.953 51.8604 21.7664C51.5983 22.2464 51.3473 22.7292 51.1073 23.215L51.175 23.2467C51.7536 23.5063 52.3606 23.6972 52.9836 23.8155Z" fill="white"/>
<path d="M52.4436 20.4084C52.0044 20.466 51.5695 20.7483 51.1274 21.2163C51.3406 21.3417 51.5602 21.4556 51.7855 21.5576C51.9958 21.1688 52.2151 20.7857 52.4436 20.4084Z" fill="white"/>
<path d="M50.3398 29.705C50.1958 29.6604 50.0518 29.6143 49.9078 29.561C49.8327 30.1738 49.726 30.7823 49.5881 31.3841C49.8102 30.8121 50.0611 30.2517 50.3398 29.705Z" fill="white"/>
<path d="M32.5112 52.4931C32.3326 52.312 32.1916 52.0975 32.0962 51.8617C32.0009 51.626 31.953 51.3737 31.9554 51.1194C31.9554 51.0618 31.9554 51.0042 31.9554 50.9466C31.9554 48.9075 30.8941 47.2559 29.5851 47.2559C29.5211 47.2559 29.4571 47.2602 29.3936 47.2688C28.1754 47.42 27.2163 49.0083 27.2163 50.9466V51.1035C27.2184 51.3592 27.1695 51.6127 27.0726 51.8493C26.9757 52.0859 26.8327 52.3009 26.6518 52.4816C26.4787 52.6625 26.3437 52.8762 26.2546 53.1102C26.1656 53.3442 26.1244 53.5937 26.1334 53.8439C26.1527 54.2248 26.2868 54.591 26.5181 54.8943C26.7494 55.1976 27.0671 55.4238 27.4294 55.5431C27.7304 55.6405 28.0503 55.6647 28.3626 55.6136L29.1315 55.5042C29.4224 55.4639 29.7175 55.4639 30.0085 55.5042L30.7789 55.6136C31.0901 55.6645 31.4089 55.6409 31.7091 55.5445C32.0697 55.4255 32.3861 55.2007 32.6172 54.8995C32.8483 54.5983 32.9835 54.2345 33.0051 53.8554C33.0174 53.6069 32.9801 53.3584 32.8953 53.1245C32.8105 52.8906 32.6799 52.676 32.5112 52.4931Z" fill="#C8203D"/>
<g opacity="0.3">
<path d="M32.0086 52.3492C31.8885 52.1235 31.804 51.8806 31.7581 51.6292C31.7149 50.8746 31.6731 48.9191 30.5355 47.9788C30.5355 47.9788 31.5435 49.39 31.3318 51.6709C31.3131 51.8783 32.3182 53.4983 32.0778 54.561C32.0778 54.5567 32.7301 53.6898 32.0086 52.3492Z" fill="white"/>
</g>
<path d="M22.0468 54.2226C22.0226 54.435 22.0521 54.65 22.1327 54.8479C22.2133 55.0459 22.3423 55.2204 22.5079 55.3555C22.6735 55.4906 22.8703 55.582 23.0804 55.6212C23.2905 55.6604 23.5071 55.6461 23.7103 55.5798C23.9134 55.5135 24.0967 55.3972 24.2432 55.2417C24.3897 55.0861 24.4948 54.8962 24.5488 54.6894C24.6029 54.4826 24.6041 54.2656 24.5523 54.0582C24.5006 53.8509 24.3976 53.6598 24.2529 53.5026C24.5735 53.3967 24.8391 53.1677 24.9911 52.8661C25.1431 52.5645 25.1692 52.2149 25.0636 51.8941C25.0149 51.7459 24.9387 51.6081 24.8389 51.488C25.1551 51.38 25.4162 51.152 25.5659 50.8533C25.7157 50.5546 25.7421 50.2091 25.6396 49.8911C25.5913 49.7498 25.5192 49.6179 25.4265 49.5009C25.7076 49.3727 25.9323 49.1464 26.0585 48.8644C26.1846 48.5824 26.2035 48.264 26.1116 47.9691C26.0197 47.6741 25.8233 47.4228 25.5593 47.2623C25.2953 47.1019 24.9818 47.0432 24.6777 47.0975C24.6731 46.988 24.6542 46.8795 24.6215 46.7749C24.5314 46.4981 24.3492 46.2605 24.1053 46.1016C23.8614 45.9426 23.5704 45.8721 23.2807 45.9015C22.9911 45.931 22.7203 46.0587 22.5134 46.2634C22.3064 46.4682 22.1758 46.7376 22.1433 47.0269C21.9212 46.7867 21.6157 46.6404 21.2893 46.618L20.9711 45.6445L21.622 45.4314C21.7366 45.3942 21.8316 45.3129 21.8863 45.2056C21.941 45.0983 21.9508 44.9736 21.9136 44.859C21.8763 44.7444 21.7951 44.6493 21.6878 44.5947C21.5804 44.54 21.4557 44.5302 21.3412 44.5674L19.138 45.2874C19.0812 45.3063 19.0288 45.3362 18.9836 45.3754C18.9384 45.4146 18.9014 45.4623 18.8747 45.5158C18.8479 45.5692 18.832 45.6275 18.8278 45.6871C18.8235 45.7468 18.8311 45.8067 18.85 45.8634C18.8689 45.9201 18.8988 45.9726 18.938 46.0178C18.9771 46.0629 19.0248 46.1 19.0783 46.1267C19.1318 46.1534 19.19 46.1694 19.2497 46.1736C19.3093 46.1779 19.3692 46.1703 19.426 46.1514L20.0769 45.9383L20.3937 46.9117C20.1434 47.1229 19.9832 47.4216 19.9458 47.7469C19.7489 47.5328 19.4847 47.3924 19.197 47.3492C18.9093 47.306 18.6155 47.3625 18.3644 47.5093C18.1133 47.6562 17.9199 47.8845 17.8165 48.1564C17.7131 48.4283 17.7058 48.7274 17.7959 49.004C17.8296 49.1028 17.875 49.197 17.9313 49.2849L17.8909 49.2949C17.7316 49.3469 17.5841 49.4298 17.4568 49.5388C17.3295 49.6478 17.2249 49.7809 17.1491 49.9303C17.0732 50.0797 17.0275 50.2426 17.0145 50.4097C17.0016 50.5768 17.0217 50.7448 17.0737 50.9041C17.1257 51.0634 17.2086 51.211 17.3176 51.3383C17.4266 51.4655 17.5597 51.5701 17.7091 51.646C17.8585 51.7219 18.0214 51.7676 18.1885 51.7805C18.3556 51.7934 18.5236 51.7733 18.6829 51.7213C18.7089 51.7127 18.7305 51.6983 18.7564 51.6882C18.7501 51.8345 18.7696 51.9807 18.814 52.1202C18.9175 52.4376 19.1414 52.7017 19.4376 52.8558C19.7338 53.0098 20.0787 53.0414 20.398 52.9439C20.3881 53.0997 20.4077 53.2561 20.4556 53.4047C20.5605 53.7225 20.7861 53.9863 21.0838 54.1393C21.3814 54.2923 21.7273 54.3222 22.0468 54.2226Z" fill="#C8203D"/>
<g opacity="0.3">
<path d="M23.6033 46.2319C23.525 46.2574 23.456 46.3055 23.4051 46.3702C23.3541 46.4349 23.3235 46.5132 23.3171 46.5953C23.3106 46.6774 23.3287 46.7595 23.369 46.8313C23.4093 46.9032 23.47 46.9614 23.5434 46.9987C23.6168 47.036 23.6996 47.0507 23.7814 47.0409C23.8631 47.0312 23.9402 46.9973 24.0027 46.9438C24.0652 46.8902 24.1105 46.8193 24.1327 46.74C24.1549 46.6607 24.1531 46.5766 24.1275 46.4983C24.1107 46.4463 24.0838 46.3982 24.0483 46.3566C24.0128 46.3151 23.9695 46.2809 23.9208 46.2562C23.8721 46.2314 23.819 46.2166 23.7645 46.2124C23.71 46.2082 23.6552 46.2149 23.6033 46.2319Z" fill="white"/>
</g>
<g opacity="0.3">
<path d="M25.0088 47.397C24.9305 47.4224 24.8615 47.4705 24.8106 47.5352C24.7596 47.5999 24.729 47.6782 24.7226 47.7603C24.7162 47.8424 24.7342 47.9246 24.7745 47.9964C24.8148 48.0682 24.8755 48.1264 24.9489 48.1637C25.0223 48.201 25.1051 48.2157 25.1869 48.206C25.2687 48.1962 25.3457 48.1624 25.4082 48.1088C25.4708 48.0552 25.516 47.9843 25.5382 47.905C25.5604 47.8257 25.5586 47.7416 25.533 47.6634C25.4984 47.5588 25.4239 47.4722 25.3258 47.4223C25.2276 47.3724 25.1137 47.3633 25.0088 47.397Z" fill="white"/>
</g>
<g opacity="0.3">
<path d="M22.6342 48.1716H22.6198C22.5437 48.2002 22.4777 48.2505 22.43 48.3162C22.3823 48.382 22.3549 48.4603 22.3514 48.5415C22.3478 48.6227 22.3681 48.7032 22.4099 48.7729C22.4516 48.8426 22.513 48.8985 22.5862 48.9337C22.6595 48.9688 22.7415 48.9817 22.822 48.9707C22.9025 48.9597 22.978 48.9252 23.0391 48.8716C23.1002 48.8181 23.1442 48.7477 23.1657 48.6693C23.1871 48.591 23.1851 48.508 23.1598 48.4308L23.1497 48.4092C23.1098 48.3117 23.0344 48.2329 22.9388 48.1888C22.8431 48.1448 22.7343 48.1386 22.6342 48.1716Z" fill="white"/>
</g>
<g opacity="0.3">
<path d="M21.3929 46.952C21.3139 46.9769 21.2443 47.0249 21.1929 47.0899C21.1415 47.1549 21.1109 47.2337 21.1049 47.3163C21.1004 47.3703 21.1068 47.4247 21.1236 47.4762C21.1491 47.5545 21.1972 47.6235 21.2619 47.6745C21.3265 47.7254 21.4049 47.756 21.487 47.7625C21.5691 47.7689 21.6512 47.7508 21.723 47.7105C21.7949 47.6702 21.8531 47.6095 21.8904 47.5361C21.9277 47.4627 21.9424 47.3799 21.9326 47.2981C21.9228 47.2164 21.889 47.1393 21.8355 47.0768C21.7819 47.0143 21.711 46.969 21.6317 46.9468C21.5524 46.9246 21.4683 46.9264 21.39 46.952H21.3929Z" fill="white"/>
</g>
<g opacity="0.3">
<path d="M19.0227 47.7253C18.9445 47.7509 18.8757 47.7992 18.825 47.864C18.7743 47.9287 18.7439 48.0071 18.7376 48.0891C18.7314 48.1711 18.7496 48.2532 18.79 48.3248C18.8304 48.3965 18.8911 48.4546 18.9645 48.4918C19.0378 48.529 19.1206 48.5436 19.2023 48.5338C19.284 48.524 19.3609 48.4902 19.4234 48.4367C19.4858 48.3831 19.531 48.3123 19.5533 48.2331C19.5755 48.1539 19.5738 48.0699 19.5483 47.9917C19.5137 47.8868 19.439 47.7999 19.3405 47.7499C19.242 47.7 19.1277 47.6911 19.0227 47.7253Z" fill="white"/>
</g>
<path d="M28.6462 33.7299C25.7115 37.8195 21.5283 40.7311 19.5886 38.6331C18.5374 37.4969 19.0126 36.3089 19.5065 35.5846C20.4295 34.2367 22.7335 33.5153 24.6401 30.8571C27.5734 26.7675 29.022 22.7844 31.303 24.4203C33.5839 26.0561 31.5795 29.6403 28.6462 33.7299Z" fill="#00834E"/>
<path d="M32.3773 25.1259C32.3561 24.7496 32.2031 24.3928 31.9453 24.1179L31.9597 24.1078C32.2318 23.7896 32.4478 23.1934 32.5227 22.9486C32.5443 22.8835 32.5398 22.8125 32.5103 22.7505C32.4808 22.6886 32.4285 22.6404 32.3643 22.616C32.3323 22.6052 32.2984 22.6008 32.2647 22.6032C32.2309 22.6055 32.198 22.6145 32.1677 22.6296C32.1375 22.6447 32.1105 22.6657 32.0884 22.6913C32.0663 22.7169 32.0495 22.7466 32.0389 22.7787C31.8948 23.1525 31.7129 23.5105 31.496 23.8472C31.0035 23.683 30.2576 23.7464 29.1402 24.259C29.0094 24.3038 28.875 24.337 28.7384 24.3584L29.0566 24.596C29.6182 24.8739 30.4318 24.6867 30.4318 24.6867C30.1712 25.0352 30.2778 25.8229 30.2778 25.8229C30.9229 25.8229 31.6602 25.2699 31.6602 25.2699C31.5939 26.4219 32.5818 26.4219 32.5818 26.4219C32.3888 25.833 32.4162 25.5262 32.3773 25.1259Z" fill="white"/>
<g opacity="0.2">
<path d="M22.9856 33.4058C23.3139 33.1178 23.589 32.7635 23.9 32.4511C25.3314 31.0111 26.6504 29.3335 27.2883 27.8805C27.2883 27.8805 27.4323 27.3218 27.6771 27.388C27.8744 27.4427 27.9075 27.7048 27.8744 27.9064C27.8283 28.1858 27.4266 29.0584 26.8664 29.7712C26.8664 29.7712 24.5307 33.3871 23.1714 34.0192C23.1401 34.035 23.1059 34.044 23.0709 34.0458C23.0359 34.0475 23.001 34.0419 22.9683 34.0293C22.925 34.0094 22.8868 33.9799 22.8566 33.943C22.8265 33.9061 22.8052 33.8628 22.7943 33.8163C22.7835 33.7699 22.7834 33.7216 22.7941 33.6752C22.8048 33.6287 22.826 33.5854 22.856 33.5483C22.8951 33.4972 22.9384 33.4495 22.9856 33.4058Z" fill="white"/>
</g>
<g opacity="0.2">
<path d="M20.6298 35.2363C20.8818 34.9814 21.7112 34.1764 22.2484 34.1116C22.2905 34.1068 22.3331 34.1107 22.3736 34.1231C22.4192 34.1313 22.4623 34.1494 22.4999 34.1763C22.5375 34.2032 22.5687 34.2382 22.5911 34.2787C22.6386 34.4011 22.5248 34.5667 22.4082 34.6689C22.0525 34.9843 21.2778 35.6323 20.8501 35.6999C20.8501 35.6999 20.5506 35.7316 20.5304 35.4926C20.5278 35.4452 20.5353 35.3979 20.5524 35.3537C20.5695 35.3095 20.5959 35.2694 20.6298 35.2363Z" fill="white"/>
</g>
<path d="M40.3593 50.2035C40.3593 51.4189 41.5372 52.4038 42.9916 52.4038C44.446 52.4038 45.6239 51.4189 45.6239 50.2035C45.6239 48.9881 44.446 48.0032 42.9916 48.0032C41.5372 48.0032 40.3593 48.9881 40.3593 50.2035ZM41.8655 49.0414C41.4825 49.4734 41.1455 50.1445 41.5357 50.984C41.6164 51.1582 41.4652 51.4923 41.2405 51.2043C40.8316 50.6787 40.6876 49.4763 41.638 48.7894C41.8468 48.6411 42.1751 48.6915 41.8655 49.0414Z" fill="#EA5442"/>
<path d="M39.1856 48.248C37.1495 48.536 36.814 50.4512 36.814 51.9574C36.814 54.5595 39.7847 55.0189 43.196 55.0189C46.6074 55.0189 49.1692 54.5595 49.1692 51.9574C49.1692 49.3554 46.4029 47.24 42.9916 47.24C41.5559 47.24 40.3477 48.0752 39.1856 48.248ZM45.6239 50.2093C45.6239 51.4246 44.446 52.4096 42.9916 52.4096C41.5372 52.4096 40.3592 51.4246 40.3592 50.2093C40.3592 48.9939 41.5372 48.0089 42.9916 48.0089C44.446 48.0089 45.6239 48.9881 45.6239 50.2035V50.2093Z" fill="white"/>
<path d="M41.6379 48.7894C40.6875 49.469 40.8315 50.6786 41.2405 51.2042C41.4651 51.4922 41.6163 51.1582 41.5357 50.9839C41.1426 50.1444 41.4824 49.4734 41.8654 49.0414C42.175 48.6914 41.8467 48.641 41.6379 48.7894Z" fill="white"/>
<path d="M9.44528 23.4583C9.86576 26.9489 5.3888 30.3588 5.3888 30.3588C5.3888 30.3588 0.229278 28.111 -0.191202 24.6204C-0.611682 21.1299 0.407838 18.1404 3.86528 17.7199C7.32272 17.2995 9.0248 19.9678 9.44528 23.4583Z" fill="#7F4F21"/>
<path d="M3.76038 27.8901L6.4043 27.5706L9.8603 56.169C9.88147 56.3426 9.86821 56.5187 9.82129 56.6872C9.77437 56.8557 9.6947 57.0133 9.58683 57.1509C9.47897 57.2886 9.34503 57.4036 9.19267 57.4895C9.04031 57.5754 8.87252 57.6304 8.69889 57.6514C8.34848 57.6937 7.99559 57.5951 7.71787 57.3773C7.44014 57.1595 7.26033 56.8402 7.21798 56.4898L3.76198 27.8914L3.76038 27.8901Z" fill="#7F4F21"/>
<g opacity="0.3">
<path d="M1.01558 21.4036C1.01558 21.4036 0.599416 27.5279 4.60118 28.2119C4.59686 28.2119 -0.113384 28.6165 1.01558 21.4036Z" fill="white"/>
</g>
<path d="M62.0903 17.72L61.0751 26.9201C61.0158 27.4576 61.0631 28.0014 61.214 28.5206C61.365 29.0398 61.6168 29.5241 61.9549 29.946C62.2931 30.3679 62.7111 30.719 63.185 30.9794C63.6589 31.2397 64.1794 31.4042 64.7168 31.4633C65.802 31.583 66.8903 31.2666 67.7423 30.584C68.5943 29.9013 69.1402 28.9082 69.26 27.823L70.2795 18.6156C70.3014 18.4173 70.2436 18.2183 70.1188 18.0625C69.9941 17.9067 69.8126 17.8068 69.6143 17.7848L69.4703 17.7689C69.3721 17.7579 69.2727 17.7664 69.1778 17.7939C69.0829 17.8215 68.9944 17.8674 68.9173 17.9293C68.8403 17.9911 68.7762 18.0675 68.7287 18.1542C68.6813 18.2408 68.6514 18.336 68.6408 18.4342L67.8978 25.1662C67.8753 25.3644 67.7753 25.5456 67.6196 25.6703C67.4639 25.795 67.2652 25.8529 67.0669 25.8315C66.9687 25.8206 66.8737 25.7904 66.7872 25.7427C66.7007 25.695 66.6244 25.6308 66.5628 25.5536C66.5011 25.4764 66.4553 25.3879 66.4279 25.293C66.4005 25.1981 66.3921 25.0988 66.4031 25.0006L67.2671 17.1656C67.2885 16.9673 67.2306 16.7685 67.1059 16.6128C66.9812 16.4571 66.8 16.3571 66.6018 16.3347L66.3023 16.303C66.2041 16.292 66.1047 16.3005 66.0098 16.328C65.9149 16.3555 65.8264 16.4015 65.7493 16.4633C65.6723 16.5252 65.6082 16.6016 65.5607 16.6882C65.5133 16.7749 65.4834 16.8701 65.4728 16.9683L64.6088 24.8033C64.5981 24.9015 64.5681 24.9965 64.5206 25.0831C64.4731 25.1697 64.409 25.246 64.3319 25.3078C64.2549 25.3696 64.1665 25.4156 64.0717 25.4432C63.9769 25.4708 63.8775 25.4794 63.7794 25.4686L63.6699 25.4556C63.5713 25.4463 63.4755 25.4175 63.388 25.371C63.3006 25.3244 63.2232 25.2611 63.1603 25.1845C63.0974 25.108 63.0502 25.0198 63.0215 24.9249C62.9929 24.8301 62.9832 24.7305 62.9931 24.632L63.7347 17.9C63.7566 17.7016 63.6988 17.5026 63.574 17.3469C63.4493 17.1911 63.2678 17.0912 63.0695 17.0691L62.9255 17.0532C62.8268 17.0416 62.7267 17.0497 62.6312 17.077C62.5356 17.1043 62.4464 17.1503 62.3687 17.2123C62.2911 17.2743 62.2265 17.3511 62.1787 17.4383C62.1309 17.5254 62.1008 17.6211 62.0903 17.72Z" fill="#7F4F21"/>
<path d="M63.65 29.4998L66.1707 29.7787L63.1538 57.0404C63.1168 57.3744 62.9486 57.6801 62.6863 57.8902C62.4239 58.1003 62.0888 58.1976 61.7548 58.1606C61.4207 58.1236 61.115 57.9555 60.9049 57.6931C60.6949 57.4307 60.5976 57.0957 60.6346 56.7616L63.6515 29.4999L63.65 29.4998Z" fill="#7F4F21"/>
<g opacity="0.3">
<path d="M64.9817 30.4971C64.9817 30.4971 60.2571 30.3819 62.1651 23.3359C62.1651 23.3359 61.0793 29.3767 64.9817 30.4971Z" fill="white"/>
</g>
</g>
<defs>
<clipPath id="clip0_123_8430">
<rect width="70" height="70" fill="white"/>
</clipPath>
</defs>
</svg>
