<svg width="72" height="72" viewBox="0 0 72 72" fill="none" xmlns="http://www.w3.org/2000/svg">
<path d="M44.4996 67.8937C44.9014 67.8934 45.2984 67.8072 45.664 67.6409C46.0297 67.4745 46.3555 67.232 46.6198 66.9294C46.884 66.6268 47.0805 66.2712 47.196 65.8865C47.3115 65.5018 47.3435 65.0968 47.2896 64.6987L46.8903 61.8074C46.4759 58.7815 45.0624 55.9807 42.8744 53.8497C40.6864 51.7188 37.8493 50.3799 34.8134 50.0456C34.7893 50.0409 34.7648 50.039 34.7403 50.0399C34.4903 50.007 34.2386 49.9882 33.9865 49.9837C33.8628 49.9724 33.739 49.9724 33.6096 49.9668C33.4803 49.9612 33.3565 49.9612 33.2271 49.9612H18.3884C18.1859 49.9612 17.9834 49.9668 17.7809 49.9781C17.5559 49.9893 17.3309 50.0062 17.1059 50.0287C17.0812 50.0297 17.0566 50.0334 17.0328 50.0399C13.9828 50.3589 11.1281 51.6917 8.92529 53.8251C6.72252 55.9586 5.29908 58.7693 4.88277 61.8074L4.48902 64.6987C4.43442 65.0964 4.46561 65.5013 4.58049 65.886C4.69538 66.2707 4.8913 66.6263 5.15507 66.929C5.41885 67.2317 5.74437 67.4744 6.10975 67.6408C6.47514 67.8072 6.87191 67.8934 7.2734 67.8937H44.4996Z" fill="#4158B1"/>
<path d="M21.4877 49.9607H18.3883C18.1858 49.9607 17.9833 49.9663 17.7808 49.9776C17.5558 49.9888 17.3308 50.0057 17.1058 50.0282C17.0811 50.0292 17.0566 50.033 17.0327 50.0394L21.004 60.5976L25.8865 56.3001L21.4877 49.9607Z" fill="#6A7BB3"/>
<path d="M33.9842 49.9832C33.8604 49.9719 33.7367 49.9719 33.6073 49.9663C33.4779 49.9607 33.3542 49.9607 33.2248 49.9607H30.2829L25.8842 56.3001L30.761 60.5976L34.7379 50.0394C34.4879 50.0065 34.2363 49.9877 33.9842 49.9832Z" fill="#6A7BB3"/>
<path d="M46.2941 44.744V24.5143C46.2658 19.1204 44.1032 13.957 40.279 10.1529C36.4549 6.34883 31.2803 4.21338 25.8863 4.21338C20.4923 4.21338 15.3177 6.34883 11.4935 10.1529C7.66942 13.957 5.50683 19.1204 5.47852 24.5143V44.744C19.0824 51.6988 32.6876 51.6988 46.2941 44.744Z" fill="#673821"/>
<path d="M30.2837 44.9988H21.4884V49.9589L25.8855 56.3L30.2837 49.9589V44.9988Z" fill="#F6B891"/>
<path d="M39.9738 35.4933C42.3494 35.4933 44.2752 33.5674 44.2752 31.1918C44.2752 28.8162 42.3494 26.8904 39.9738 26.8904C37.5982 26.8904 35.6724 28.8162 35.6724 31.1918C35.6724 33.5674 37.5982 35.4933 39.9738 35.4933Z" fill="#F6B891"/>
<path d="M11.7982 35.4926C14.1735 35.4926 16.0991 33.5671 16.0991 31.1917C16.0991 28.8164 14.1735 26.8909 11.7982 26.8909C9.42288 26.8909 7.49731 28.8164 7.49731 31.1917C7.49731 33.5671 9.42288 35.4926 11.7982 35.4926Z" fill="#F6B891"/>
<path d="M39.9738 32.5451V26.892C32.7738 25.5667 27.0971 22.3965 25.8101 17.1804C24.1316 22.55 18.7817 26.586 11.7982 26.892V32.5451C11.7982 36.2814 13.2825 39.8647 15.9244 42.5067C18.5664 45.1487 22.1497 46.6329 25.886 46.6329C29.6224 46.6329 33.2056 45.1487 35.8476 42.5067C38.4896 39.8647 39.9738 36.2814 39.9738 32.5451Z" fill="#FCCBA8"/>
<path d="M47.194 41.1869L35.674 39.082V55.4958L51.6073 58.4067V46.4795C51.6073 45.2203 51.1656 44.001 50.3592 43.0339C49.5527 42.0668 48.4326 41.4132 47.194 41.1869Z" fill="#E6E6E6"/>
<path d="M56.0202 41.1869C54.7814 41.4131 53.6613 42.0667 52.8548 43.0338C52.0484 44.0009 51.6067 45.2202 51.6068 46.4795V58.4045L67.5402 55.4935V39.082L56.0202 41.1869Z" fill="#E6E6E6"/>
<path d="M54.7472 62.9151L67.5385 60.5807V44.167L54.7472 46.507L51.6085 47.0807L48.4641 46.507L35.6729 44.167V60.5807L48.4641 62.9151L51.6085 63.4889L54.7472 62.9151Z" fill="#DA8D4D"/>
<path d="M54.7472 46.5071L51.6085 47.0808L48.4641 46.5071V62.9152L51.6085 63.489L54.7472 62.9152V46.5071Z" fill="#673821"/>
<path d="M6.46338 34.7063V31.905C6.46338 31.644 6.35967 31.3936 6.17506 31.209C5.99046 31.0244 5.74008 30.9207 5.479 30.9207C5.21793 30.9207 4.96755 31.0244 4.78295 31.209C4.59834 31.3936 4.49463 31.644 4.49463 31.905V34.7063C4.49463 34.9674 4.59834 35.2177 4.78295 35.4023C4.96755 35.5869 5.21793 35.6907 5.479 35.6907C5.74008 35.6907 5.99046 35.5869 6.17506 35.4023C6.35967 35.2177 6.46338 34.9674 6.46338 34.7063Z" fill="black"/>
<path d="M25.9518 39.6482C27.0017 39.638 28.0251 39.3168 28.8925 38.7252C29.0007 38.6543 29.0938 38.5629 29.1666 38.456C29.2394 38.3492 29.2905 38.2291 29.3168 38.1025C29.3432 37.976 29.3444 37.8454 29.3203 37.7184C29.2963 37.5914 29.2474 37.4704 29.1766 37.3622C29.1058 37.2541 29.0143 37.1609 28.9075 37.0881C28.8006 37.0153 28.6805 36.9643 28.554 36.9379C28.4274 36.9115 28.2969 36.9103 28.1699 36.9344C28.0428 36.9585 27.9218 37.0073 27.8137 37.0782C26.5677 37.8955 25.3302 37.887 23.9195 37.0545C23.8081 36.9862 23.6843 36.9407 23.5551 36.9207C23.426 36.9008 23.2942 36.9067 23.1674 36.9382C23.0406 36.9697 22.9213 37.0261 22.8166 37.1042C22.7118 37.1822 22.6236 37.2804 22.5571 37.3929C22.4907 37.5054 22.4473 37.6299 22.4295 37.7594C22.4117 37.8888 22.4198 38.0205 22.4534 38.1468C22.487 38.273 22.5454 38.3913 22.6252 38.4948C22.705 38.5982 22.8046 38.6848 22.9182 38.7493C23.8297 39.3174 24.878 39.628 25.9518 39.6482Z" fill="black"/>
<path d="M20.8127 31.5252V30.0627C20.8127 29.8017 20.709 29.5513 20.5244 29.3667C20.3398 29.1821 20.0894 29.0784 19.8284 29.0784C19.5673 29.0784 19.3169 29.1821 19.1323 29.3667C18.9477 29.5513 18.844 29.8017 18.844 30.0627V31.5252C18.844 31.7863 18.9477 32.0367 19.1323 32.2213C19.3169 32.4059 19.5673 32.5096 19.8284 32.5096C20.0894 32.5096 20.3398 32.4059 20.5244 32.2213C20.709 32.0367 20.8127 31.7863 20.8127 31.5252Z" fill="black"/>
<path d="M32.9302 31.5252V30.0627C32.9302 29.8017 32.8265 29.5513 32.6419 29.3667C32.4573 29.1821 32.2069 29.0784 31.9458 29.0784C31.6847 29.0784 31.4343 29.1821 31.2497 29.3667C31.0651 29.5513 30.9614 29.8017 30.9614 30.0627V31.5252C30.9614 31.7863 31.0651 32.0367 31.2497 32.2213C31.4343 32.4059 31.6847 32.5096 31.9458 32.5096C32.2069 32.5096 32.4573 32.4059 32.6419 32.2213C32.8265 32.0367 32.9302 31.7863 32.9302 31.5252Z" fill="black"/>
<path d="M36.7985 43.3726L36.8744 43.3866H36.8806L36.7985 43.3726Z" fill="black"/>
<path d="M3.90738 61.6747L3.51363 64.5654C3.44009 65.1024 3.48235 65.6489 3.63757 66.1682C3.79279 66.6875 4.05738 67.1675 4.41354 67.5761C4.7697 67.9846 5.20919 68.3122 5.70247 68.5367C6.19575 68.7613 6.73139 68.8777 7.27338 68.8781H44.4996C45.0419 68.8778 45.5779 68.7615 46.0715 68.537C46.5652 68.3125 47.0051 67.985 47.3617 67.5764C47.7184 67.1679 47.9835 66.6878 48.1393 66.1684C48.2951 65.6489 48.3379 65.1022 48.265 64.5648L48.1683 63.8623L51.4308 64.458C51.5479 64.479 51.6679 64.479 51.7851 64.458L67.7151 61.5498C67.9417 61.5083 68.1466 61.3886 68.294 61.2116C68.4415 61.0346 68.5223 60.8116 68.5223 60.5812V55.2993C68.5223 55.0382 68.4186 54.7879 68.234 54.6033C68.0494 54.4187 67.799 54.3149 67.5379 54.3149C67.2769 54.3149 67.0265 54.4187 66.8419 54.6033C66.6573 54.7879 66.5536 55.0382 66.5536 55.2993V59.7605L55.7299 61.736V47.3281L66.5536 45.3481V50.1693C66.5536 50.4304 66.6573 50.6808 66.8419 50.8654C67.0265 51.05 67.2769 51.1537 67.5379 51.1537C67.799 51.1537 68.0494 51.05 68.234 50.8654C68.4186 50.6808 68.5223 50.4304 68.5223 50.1693V39.0825C68.5224 38.9382 68.4907 38.7957 68.4296 38.6651C68.3684 38.5344 68.2793 38.4188 68.1686 38.3264C68.0578 38.234 67.9281 38.167 67.7886 38.1303C67.6491 38.0936 67.5032 38.0879 67.3613 38.1138L55.8424 40.2187C54.9759 40.3772 54.1518 40.714 53.4224 41.2078C52.6929 41.7017 52.0741 42.3418 51.6051 43.0874C51.1368 42.3417 50.5184 41.7016 49.7893 41.2077C49.0602 40.7138 48.2363 40.377 47.3701 40.2187L47.2784 40.2018V24.5137C47.2784 18.8402 45.0246 13.3991 41.0128 9.38736C37.0011 5.37561 31.56 3.12183 25.8865 3.12183C20.213 3.12183 14.7719 5.37561 10.7602 9.38736C6.74841 13.3991 4.49463 18.8402 4.49463 24.5137V26.7806C4.49463 27.0416 4.59834 27.292 4.78295 27.4766C4.96756 27.6612 5.21794 27.765 5.47901 27.765C5.74008 27.765 5.99046 27.6612 6.17507 27.4766C6.35967 27.292 6.46338 27.0416 6.46338 26.7806V24.5137C6.46338 19.3624 8.50974 14.422 12.1523 10.7795C15.7948 7.13694 20.7352 5.09058 25.8865 5.09058C31.0378 5.09058 35.9782 7.13694 39.6207 10.7795C43.2633 14.422 45.3096 19.3624 45.3096 24.5137V39.8413L39.5946 38.7978C39.9388 38.0417 40.2188 37.258 40.4316 36.455C41.7766 36.3379 43.0257 35.7102 43.9221 34.7007C44.8186 33.6913 45.2944 32.3768 45.2518 31.0274C45.2091 29.678 44.6513 28.3962 43.6929 27.4454C42.7345 26.4945 41.4483 25.9468 40.0986 25.9149C35.7207 25.1015 28.2231 22.8583 26.7634 16.943C26.712 16.7343 26.5937 16.5481 26.4265 16.413C26.2593 16.2779 26.0524 16.2013 25.8376 16.1949C25.6233 16.1912 25.4135 16.2562 25.239 16.3806C25.0644 16.5049 24.9343 16.6819 24.8678 16.8856C23.245 22.0865 18.097 25.6286 11.7526 25.9098C11.7441 25.9098 11.7363 25.9126 11.7278 25.9132C10.3731 25.931 9.07702 26.4687 8.10751 27.4151C7.13799 28.3615 6.56916 29.6442 6.5186 30.9981C6.46804 32.3519 6.93962 33.6735 7.83585 34.6896C8.73209 35.7056 9.98446 36.3384 11.3341 36.4573C11.9524 38.7546 13.1053 40.873 14.6988 42.6396C16.2924 44.4061 18.2812 45.7706 20.5028 46.6216V48.5904C15.6123 47.8769 10.8704 46.3726 6.46282 44.1365V39.8306C6.46282 39.5695 6.35911 39.3191 6.1745 39.1345C5.9899 38.9499 5.73952 38.8462 5.47845 38.8462C5.21737 38.8462 4.96699 38.9499 4.78239 39.1345C4.59778 39.3191 4.49407 39.5695 4.49407 39.8306V44.7412C4.4939 44.9228 4.544 45.1009 4.63881 45.2558C4.73363 45.4106 4.86946 45.5363 5.03126 45.6187C8.16225 47.2319 11.4531 48.5138 14.8503 49.4437C12.0123 50.1543 9.45263 51.6996 7.50193 53.88C5.55123 56.0603 4.29913 58.7755 3.90738 61.6747ZM40.9559 32.5462V28.0265C41.6419 28.2388 42.2403 28.6683 42.661 29.2502C43.0818 29.8321 43.3021 30.535 43.2888 31.253C43.2755 31.9709 43.0292 32.6652 42.5872 33.2311C42.1451 33.797 41.5311 34.2039 40.8378 34.3906C40.9146 33.7788 40.954 33.1628 40.9559 32.5462ZM8.53057 31.7401C8.39705 30.9507 8.55471 30.1397 8.97425 29.4577C9.39379 28.7758 10.0467 28.2694 10.8115 28.0327V32.5462C10.8131 33.16 10.852 33.7731 10.9279 34.3822C10.3165 34.2192 9.76506 33.8832 9.33982 33.4145C8.91458 32.9459 8.63359 32.3645 8.53057 31.7401ZM33.2271 50.9456H33.3441L30.3426 58.9151L27.1926 56.1408L30.7988 50.9439L33.2271 50.9456ZM31.2696 48.5999V46.6256C32.4846 46.1587 33.6341 45.5366 34.6896 44.7749V47.9722C33.5444 48.2338 32.4003 48.4447 31.2696 48.5999ZM29.3009 49.6501L25.8854 54.5726L22.4721 49.653V47.2258C24.7179 47.753 27.0552 47.753 29.3009 47.2258V49.6501ZM39.7634 66.9099H26.8698V58.4803L30.1103 61.3361C30.2301 61.4413 30.3736 61.5159 30.5285 61.5534C30.6834 61.5909 30.8451 61.5903 30.9997 61.5516C31.1543 61.5129 31.2972 61.4372 31.4162 61.3311C31.5351 61.2249 31.6265 61.0915 31.6825 60.9423L34.6896 52.961V60.5812C34.6897 60.8116 34.7704 61.0346 34.9179 61.2116C35.0654 61.3886 35.2702 61.5083 35.4968 61.5498L39.7634 62.3283V66.9099ZM45.8789 66.2816C45.7072 66.4788 45.4953 66.6369 45.2574 66.7453C45.0195 66.8537 44.7611 66.9098 44.4996 66.9099H41.7321V62.6883L46.1303 63.491L46.3148 64.8326C46.3498 65.0911 46.329 65.3542 46.2538 65.604C46.1786 65.8539 46.0508 66.0853 45.8789 66.2816ZM47.4792 61.7355L36.6584 59.7611V45.3481L47.4792 47.3276V61.7355ZM56.194 42.1548L66.553 40.2631V43.3468L52.6317 45.8926C52.7549 44.9733 53.1658 44.1166 53.8057 43.4451C54.4457 42.7737 55.2817 42.322 56.194 42.1548ZM51.7739 48.0498H51.7846L53.7606 47.6881V62.0943L51.6063 62.4881L49.4457 62.0943V47.6876C51.3486 48.0374 51.5084 48.0965 51.7761 48.0498H51.7739ZM47.0151 42.1548C47.9271 42.3218 48.7626 42.7733 49.402 43.4446C50.0414 44.116 50.4517 44.9725 50.5741 45.8915L36.8789 43.3873H36.8744L36.7782 43.3693H36.763L36.7152 43.3608H36.7017H36.6933H36.682L36.6634 43.3575H36.6584V40.262L47.0151 42.1548ZM13.0677 35.276C12.8762 34.3787 12.7799 33.4637 12.7803 32.5462V27.8128C18.574 27.2823 23.3946 24.269 25.774 19.7977C27.8322 23.5923 32.407 26.3475 38.9871 27.7036V32.5462C38.9875 33.4649 38.891 34.381 38.6991 35.2794C38.4659 36.3733 38.0911 37.4322 37.5843 38.4294L35.8501 38.1127C35.7081 38.087 35.5623 38.0928 35.4228 38.1297C35.2833 38.1665 35.1537 38.2336 35.043 38.3261C34.9323 38.4186 34.8433 38.5343 34.7822 38.665C34.7212 38.7957 34.6895 38.9382 34.6896 39.0825V42.2488C32.9838 43.7982 30.8994 44.8702 28.6468 45.3566C26.3942 45.843 24.0532 45.7266 21.86 45.0191C19.6668 44.3116 17.699 43.038 16.1553 41.327C14.6116 39.6159 13.5466 37.528 13.0677 35.2738V35.276ZM20.9708 50.9456L24.5759 56.1408L21.4214 58.9168L18.4233 50.9456H20.9708ZM16.3887 51.129L20.0815 60.944C20.1373 61.0933 20.2286 61.2268 20.3475 61.333C20.4664 61.4392 20.6093 61.515 20.7639 61.5537C20.9185 61.5924 21.0802 61.593 21.2351 61.5554C21.3901 61.5178 21.5335 61.4431 21.6531 61.3378L24.9021 58.4786V66.9093H12.0108V62.0966C12.0108 61.8355 11.907 61.5851 11.7224 61.4005C11.5378 61.2159 11.2875 61.1122 11.0264 61.1122C10.7653 61.1122 10.5149 61.2159 10.3303 61.4005C10.1457 61.5851 10.042 61.8355 10.042 62.0966V66.9093H7.27338C7.0127 66.9108 6.7548 66.8556 6.51754 66.7476C6.28027 66.6396 6.06929 66.4814 5.8992 66.2838C5.72711 66.0869 5.59925 65.8553 5.52424 65.6048C5.44924 65.3543 5.42882 65.0905 5.46438 64.8314L5.85813 61.9402C6.22185 59.2473 7.4419 56.7427 9.33812 54.7964C11.2343 52.85 13.7062 51.5651 16.3887 51.1312V51.129Z" fill="black"/>
<path d="M36.6978 43.354H36.7017H36.7152L36.7428 43.3591L36.6978 43.354Z" fill="black"/>
</svg>
