<svg width="72" height="72" viewBox="0 0 72 72" fill="none" xmlns="http://www.w3.org/2000/svg">
<path d="M37.0271 1.05469H44.0046V7.11942H37.0271V1.05469Z" fill="#78D090"/>
<path d="M7.97583 36.4663V70.9453H16.7854H57.269H66.0786V36.4663" fill="#EAB14D"/>
<path d="M16.7854 38.2401H4.73535L11.8825 18.5386H37.0264H62.1717L69.3188 38.2401H57.2689" fill="#C32430"/>
<path d="M57.2689 38.24V70.9453H16.7854V38.24L35.6106 16.9973L37.0264 15.3997L38.4424 16.9973L57.2689 38.24Z" fill="#F6E266"/>
<path d="M57.2689 61.6326H60.1105C61.38 61.6326 62.4097 60.6027 62.4097 59.3334V46.8805C62.4097 45.6111 61.3798 44.5813 60.1105 44.5813H57.2689" fill="#D3EFFB"/>
<path d="M16.7855 44.5813H13.9437C12.6743 44.5813 11.6445 45.6112 11.6445 46.8805V59.3334C11.6445 60.6028 12.6745 61.6326 13.9437 61.6326H16.7854" fill="#D3EFFB"/>
<path d="M57.2689 38.2399V46.5846C56.2954 46.5846 55.3289 46.1845 54.6329 45.3983L37.0264 25.5335L19.4214 45.3984C18.7255 46.1845 17.7589 46.5847 16.7854 46.5847V38.24L35.6106 16.9972C36.053 16.8042 36.5334 16.7 37.0265 16.7C37.5197 16.7 38.0015 16.8042 38.4425 16.9972L57.2689 38.2399Z" fill="#EAB14D"/>
<path d="M57.27 41.7625C56.2971 41.7625 55.3288 41.3617 54.6328 40.5763L37.0272 20.7102L19.4215 40.5763C18.1314 42.0322 15.9051 42.1663 14.4495 40.8762C12.9938 39.5862 12.8595 37.3601 14.1496 35.9043L34.3911 13.0639C35.0597 12.3095 36.0192 11.8777 37.0272 11.8777C38.0352 11.8777 38.9946 12.3094 39.6632 13.0639L59.9047 35.9043C61.1948 37.3601 61.0605 39.5862 59.6048 40.8762C58.9343 41.4704 58.1005 41.7625 57.27 41.7625Z" fill="#DA4A54"/>
<path d="M37.0271 38.0539C39.8403 38.0539 42.1209 35.7733 42.1209 32.9601C42.1209 30.1468 39.8403 27.8662 37.0271 27.8662C34.2138 27.8662 31.9332 30.1468 31.9332 32.9601C31.9332 35.7733 34.2138 38.0539 37.0271 38.0539Z" fill="#D3EFFB"/>
<path d="M31.8818 61.6329H26.1994C24.9294 61.6329 23.8999 60.6034 23.8999 59.3334V46.881C23.8999 45.6111 24.9294 44.5815 26.1994 44.5815H31.8818C33.1518 44.5815 34.1813 45.6111 34.1813 46.881V59.3334C34.1813 60.6034 33.1518 61.6329 31.8818 61.6329Z" fill="#D3EFFB"/>
<path d="M47.8548 61.6329H42.1724C40.9024 61.6329 39.8729 60.6034 39.8729 59.3334V46.881C39.8729 45.6111 40.9024 44.5815 42.1724 44.5815H47.8548C49.1248 44.5815 50.1543 45.6111 50.1543 46.881V59.3334C50.1543 60.6034 49.1248 61.6329 47.8548 61.6329Z" fill="#D3EFFB"/>
<path d="M30.8895 64.7449C30.8895 68.1684 28.1126 70.9454 24.6891 70.9454H8.88171C5.4582 70.9454 2.68127 68.1684 2.68127 64.7449C2.68127 61.32 5.4582 58.5431 8.88171 58.5431C9.16774 58.5431 9.44801 58.5642 9.72279 58.6023C11.1472 56.1833 13.776 54.5603 16.7854 54.5603C19.7948 54.5603 22.4236 56.1833 23.848 58.6023C24.1228 58.5642 24.4031 58.5431 24.6891 58.5431C28.1126 58.5432 30.8895 61.32 30.8895 64.7449Z" fill="#78D090"/>
<path d="M13.9438 61.6328C13.9438 61.6328 8.52396 64.4561 12.3785 70.9454H8.88171C5.4582 70.9454 2.68127 68.1684 2.68127 64.7449C2.68127 61.32 5.4582 58.5431 8.88171 58.5431C9.16774 58.5431 9.44801 58.5642 9.72279 58.6023C11.1472 56.1833 13.776 54.5603 16.7854 54.5603C13.3436 54.5603 12.2038 58.0868 13.9438 61.6328Z" fill="#66B49D"/>
<path d="M70.3103 37.8804L63.1632 18.179C63.0119 17.7618 62.6154 17.484 62.1716 17.484H44.9897L40.4524 12.3642C39.8218 11.6527 38.9903 11.1631 38.0812 10.9477V8.17411H44.0046C44.5872 8.17411 45.0593 7.70189 45.0593 7.11942V1.05469C45.0593 0.472219 44.5872 0 44.0046 0H37.027C36.4444 0 35.9724 0.472219 35.9724 1.05469H35.9718V10.9479C35.0631 11.1637 34.2321 11.653 33.6017 12.3642L29.0646 17.4839H20.0124C19.4298 17.4839 18.9577 17.9561 18.9577 18.5386C18.9577 19.1211 19.4298 19.5933 20.0124 19.5933H27.1952L13.3601 35.2046C12.8505 35.7796 12.5011 36.4579 12.3299 37.1853H6.23917L12.6212 19.5933H15.7858C16.3684 19.5933 16.8405 19.1211 16.8405 18.5386C16.8405 17.9561 16.3684 17.4839 15.7858 17.4839H11.8817C11.4379 17.4839 11.0415 17.7618 10.8902 18.1789L3.74308 37.8804C3.6258 38.2037 3.67361 38.5639 3.87091 38.8455C4.06834 39.1271 4.39066 39.2948 4.73462 39.2948H6.92106V57.7607C3.87062 58.6187 1.62695 61.4236 1.62695 64.7446C1.62695 68.7452 4.88186 72 8.8825 72H66.0785C66.6611 72 67.1332 71.5278 67.1332 70.9453V39.2947H69.3189C69.6627 39.2947 69.985 39.1271 70.1826 38.8454C70.3798 38.5639 70.4276 38.2037 70.3103 37.8804ZM38.0817 2.10938H42.9499V6.06473H38.0817V2.10938ZM14.9388 36.6037L35.1804 13.7633C35.6484 13.2352 36.3214 12.9323 37.0269 12.9323C37.7326 12.9323 38.4056 13.2352 38.8736 13.7633L59.1152 36.6037C60.0175 37.622 59.9232 39.1845 58.9051 40.0868C58.4534 40.4872 57.8724 40.7077 57.2697 40.7077C56.5635 40.7077 55.8898 40.4048 55.4219 39.8767L37.8162 20.0107C37.616 19.7848 37.3287 19.6554 37.0269 19.6554C36.7251 19.6554 36.4378 19.7847 36.2376 20.0107L18.632 39.8767C18.195 40.3701 17.592 40.6634 16.934 40.7031C16.2767 40.743 15.6421 40.5238 15.149 40.0867C14.6557 39.6495 14.3622 39.0465 14.3226 38.3887C14.2829 37.7308 14.5016 37.0969 14.9388 36.6037ZM58.3229 45.636H60.1105C60.7967 45.636 61.3552 46.1943 61.3552 46.8806V59.3335C61.3552 60.0197 60.7967 60.578 60.1105 60.578H58.3229V45.636ZM12.6992 54.465V46.8806C12.6992 46.1943 13.2575 45.636 13.9437 45.636H15.7305V53.5674C14.6685 53.6909 13.6438 53.9982 12.6992 54.465ZM12.3319 39.2947C12.5461 40.2075 13.0339 41.0309 13.7498 41.6654C14.3248 42.175 15.0029 42.5242 15.7304 42.6954V43.5265H13.9436C12.0944 43.5265 10.5897 45.0311 10.5897 46.8804V55.8962C10.0639 56.3698 9.589 56.9047 9.17964 57.4954C9.12944 57.4933 9.08008 57.4933 9.0303 57.4921V39.2947H12.3319ZM8.88236 69.8906C6.04469 69.8906 3.73619 67.5821 3.73619 64.7446C3.73619 61.9071 6.04469 59.5986 8.88236 59.5986C9.10792 59.5986 9.34291 59.6149 9.58098 59.6472C10.0017 59.7045 10.416 59.5034 10.6317 59.1373C11.9114 56.9645 14.2693 55.6148 16.7855 55.6148C19.3017 55.6148 21.6595 56.9645 22.9392 59.1373C23.1548 59.5034 23.5691 59.7045 23.9898 59.6472C24.2279 59.6149 24.463 59.5986 24.6887 59.5986C27.5263 59.5986 29.8348 61.9071 29.8348 64.7446C29.8348 67.5821 27.5263 69.8906 24.6887 69.8906H8.88236ZM24.9548 57.4959V51.6448H33.1272V59.3335C33.1272 60.0197 32.5682 60.578 31.8813 60.578H30.623C29.3567 58.7798 27.2959 57.5809 24.9548 57.4959ZM33.1272 49.5354H24.9548V46.8806C24.9548 46.1943 25.5131 45.636 26.1993 45.636H31.8813C32.5684 45.636 33.1272 46.1943 33.1272 46.8806V49.5354ZM29.7975 69.8906C31.1222 68.5754 31.9439 66.7543 31.9439 64.7446C31.9439 64.0301 31.8384 63.34 31.645 62.6875H31.8813C33.7314 62.6875 35.2366 61.183 35.2366 59.3336V46.8807C35.2366 45.0314 33.7314 43.5268 31.8813 43.5268H26.1993C24.3501 43.5268 22.8454 45.0314 22.8454 46.8807V55.7765C21.4457 54.5645 19.6994 53.7836 17.8397 53.5676V42.6938C18.7527 42.4797 19.5762 41.9919 20.2107 41.2758L37.0269 22.3005L53.8433 41.2758C54.4734 41.9868 55.3045 42.4762 56.2134 42.6919V69.8906H29.7975ZM65.0238 69.8906H58.323V62.6874H60.1106C61.96 62.6874 63.4647 61.1828 63.4647 59.3335V46.8806C63.4647 45.0312 61.9601 43.5267 60.1106 43.5267H58.323V42.6939C59.0527 42.5213 59.734 42.1709 60.3044 41.6655C61.0371 41.0161 61.5106 40.1823 61.7195 39.2948H65.0239L65.0238 69.8906ZM61.7211 37.1853C61.5534 36.4725 61.2127 35.7899 60.6939 35.2046L46.859 19.5933H61.4322L67.8142 37.1853H61.7211Z" fill="black"/>
<path d="M43.1757 32.9601C43.1757 29.5697 40.4174 26.8115 37.027 26.8115C33.6368 26.8115 30.8784 29.5697 30.8784 32.9601C30.8784 36.3504 33.6366 39.1086 37.027 39.1086C40.4174 39.1086 43.1757 36.3504 43.1757 32.9601ZM37.0271 36.9992C34.7999 36.9992 32.9879 35.1873 32.9879 32.9601C32.9879 30.7329 34.7999 28.9209 37.0271 28.9209C39.2543 28.9209 41.0664 30.7329 41.0664 32.9601C41.0664 35.1873 39.2543 36.9992 37.0271 36.9992Z" fill="black"/>
<path d="M47.8542 43.5266H42.1724C40.323 43.5266 38.8184 45.0312 38.8184 46.8805V59.3334C38.8184 61.1828 40.3229 62.6873 42.1724 62.6873H47.8542C49.7043 62.6873 51.2095 61.1828 51.2095 59.3334V57.2638C51.2095 56.6814 50.7375 56.2092 50.1548 56.2092C49.5722 56.2092 49.1002 56.6814 49.1002 57.2638V59.3334C49.1002 60.0197 48.5412 60.578 47.8542 60.578H42.1724C41.4862 60.578 40.9277 60.0197 40.9277 59.3334V51.6448H49.1002V53.0372C49.1002 53.6197 49.5722 54.0919 50.1548 54.0919C50.7375 54.0919 51.2095 53.6197 51.2095 53.0372V46.8805C51.2095 45.0312 49.7043 43.5266 47.8542 43.5266ZM40.9277 49.5354V46.8805C40.9277 46.1943 41.4862 45.636 42.1724 45.636H47.8542C48.5413 45.636 49.1002 46.1943 49.1002 46.8805V49.5354H40.9277Z" fill="black"/>
<path d="M38.1746 31.9053H38.0818V30.9382C38.0818 30.3558 37.6097 29.8835 37.0271 29.8835C36.4445 29.8835 35.9724 30.3558 35.9724 30.9382V32.96C35.9724 33.5425 36.4445 34.0147 37.0271 34.0147H38.1746C38.7572 34.0147 39.2293 33.5425 39.2293 32.96C39.2293 32.3775 38.7571 31.9053 38.1746 31.9053Z" fill="black"/>
</svg>
