<svg width="70" height="70" viewBox="0 0 70 70" fill="none" xmlns="http://www.w3.org/2000/svg">
<path d="M4.625 13.625C5.22174 13.625 5.79403 13.8621 6.21599 14.284C6.63795 14.706 6.875 15.2783 6.875 15.875V67.625H2.375V15.875C2.375 15.2783 2.61205 14.706 3.03401 14.284C3.45597 13.8621 4.02826 13.625 4.625 13.625Z" fill="#F9D423"/>
<path d="M33.875 13.625C34.4717 13.625 35.044 13.8621 35.466 14.284C35.8879 14.706 36.125 15.2783 36.125 15.875V62.7155H31.625V15.875C31.625 15.2783 31.8621 14.706 32.284 14.284C32.706 13.8621 33.2783 13.625 33.875 13.625Z" fill="#F9D423"/>
<path d="M6.875 18.125H31.625V22.625H6.875V18.125Z" fill="#F9B53D"/>
<path d="M36.125 28.25V62.72H31.625V15.875C31.6268 15.2788 31.8644 14.7075 32.286 14.286C32.7075 13.8644 33.2788 13.6268 33.875 13.625V26C33.8768 26.5962 34.1144 27.1675 34.536 27.589C34.9575 28.0106 35.5288 28.2482 36.125 28.25Z" fill="#F9B53D"/>
<path d="M6.875 53V67.625H2.375V15.875C2.37678 15.2788 2.61441 14.7075 3.03598 14.286C3.45755 13.8644 4.02881 13.6268 4.625 13.625V50.75C4.62678 51.3462 4.86441 51.9174 5.28598 52.339C5.70755 52.7606 6.27881 52.9982 6.875 53Z" fill="#F9B53D"/>
<path d="M29.375 18.125C29.3732 18.7212 29.1356 19.2925 28.714 19.714C28.2925 20.1356 27.7212 20.3732 27.125 20.375H24.875V18.125H22.625V20.375H13.625V18.125H11.375V20.375C10.7788 20.3732 10.2075 20.1356 9.78598 19.714C9.36441 19.2925 9.12678 18.7212 9.125 18.125H6.875V22.625H31.625V18.125H29.375Z" fill="#FC913A"/>
<path d="M13.625 55.25C13.3266 55.25 13.0405 55.1315 12.8295 54.9205C12.6185 54.7095 12.5 54.4234 12.5 54.125V18.125C12.5 17.8266 12.6185 17.5405 12.8295 17.3295C13.0405 17.1185 13.3266 17 13.625 17C13.9234 17 14.2095 17.1185 14.4205 17.3295C14.6315 17.5405 14.75 17.8266 14.75 18.125V54.125C14.75 54.4234 14.6315 54.7095 14.4205 54.9205C14.2095 55.1315 13.9234 55.25 13.625 55.25Z" fill="#A3DAFF"/>
<path d="M24.875 55.25C24.5766 55.25 24.2905 55.1315 24.0795 54.9205C23.8685 54.7095 23.75 54.4234 23.75 54.125V18.125C23.75 17.8266 23.8685 17.5405 24.0795 17.3295C24.2905 17.1185 24.5766 17 24.875 17C25.1734 17 25.4595 17.1185 25.6705 17.3295C25.8815 17.5405 26 17.8266 26 18.125V54.125C26 54.4234 25.8815 54.7095 25.6705 54.9205C25.4595 55.1315 25.1734 55.25 24.875 55.25Z" fill="#A3DAFF"/>
<path d="M11.375 54.125H27.125V58.625H11.375V54.125Z" fill="#1EC0FF"/>
<path d="M27.125 54.125V58.625H11.375V56.375H11.4875C13.5453 56.3752 15.5209 55.5672 16.9887 54.125H27.125Z" fill="#299CFC"/>
<path d="M51.875 2.375C50.4129 2.37505 48.9884 2.8382 47.8059 3.698L37.25 11.375H66.5L55.9441 3.698C54.7616 2.8382 53.3371 2.37505 51.875 2.375Z" fill="#FF8B7B"/>
<path d="M36.125 36.125V67.625H67.625V36.125H36.125ZM51.875 63.125C50.095 63.125 48.3549 62.5972 46.8749 61.6082C45.3948 60.6193 44.2413 59.2137 43.5601 57.5691C42.8789 55.9246 42.7007 54.115 43.0479 52.3692C43.3952 50.6234 44.2524 49.0197 45.511 47.761C46.7697 46.5024 48.3734 45.6452 50.1192 45.2979C51.865 44.9507 53.6746 45.1289 55.3191 45.8101C56.9637 46.4913 58.3693 47.6448 59.3582 49.1249C60.3472 50.6049 60.875 52.345 60.875 54.125C60.875 56.5119 59.9268 58.8011 58.239 60.489C56.5511 62.1768 54.2619 63.125 51.875 63.125Z" fill="#FF8B7B"/>
<path d="M14.75 67.625H2.375V63.125H13.5215L33.1077 32.6589C33.3114 32.3419 33.5913 32.0811 33.922 31.9005C34.2526 31.7199 34.6233 31.6251 35 31.625H40.625V36.125H36.2285L16.6423 66.5911C16.4386 66.9081 16.1587 67.1689 15.828 67.3495C15.4974 67.5301 15.1267 67.6249 14.75 67.625Z" fill="#C5E99B"/>
<path d="M40.625 31.625V36.125H36.2262L16.64 66.59C16.4363 66.9064 16.1566 67.1669 15.8265 67.3477C15.4964 67.5284 15.1263 67.6238 14.75 67.625H2.375V63.125H5.75C5.75178 63.7212 5.98941 64.2924 6.41098 64.714C6.83255 65.1356 7.40381 65.3732 8 65.375H14.6488L34.235 34.91C34.4387 34.5936 34.7184 34.3331 35.0485 34.1524C35.3786 33.9716 35.7486 33.8762 36.125 33.875C36.7212 33.8732 37.2924 33.6356 37.714 33.214C38.1356 32.7925 38.3732 32.2212 38.375 31.625H40.625Z" fill="#A8D38C"/>
<path d="M40.625 11.375V36.125H46.25V26C46.25 24.5082 46.8426 23.0774 47.8975 22.0225C48.9524 20.9676 50.3832 20.375 51.875 20.375C53.3668 20.375 54.7976 20.9676 55.8525 22.0225C56.9074 23.0774 57.5 24.5082 57.5 26V36.125H63.125V11.375H40.625Z" fill="#A3DAFF"/>
<path d="M63.125 58.625V44C63.125 43.1049 62.7694 42.2465 62.1365 41.6135C61.5035 40.9806 60.6451 40.625 59.75 40.625H46.25C45.0565 40.625 43.9119 40.1509 43.068 39.307C42.2241 38.4631 41.75 37.3185 41.75 36.125H36.125V67.625H67.625V63.125C66.4315 63.125 65.2869 62.6509 64.443 61.807C63.5991 60.9631 63.125 59.8185 63.125 58.625ZM51.875 63.125C50.095 63.125 48.3549 62.5972 46.8749 61.6082C45.3948 60.6193 44.2413 59.2137 43.5601 57.5691C42.8789 55.9246 42.7007 54.115 43.0479 52.3692C43.3952 50.6234 44.2524 49.0197 45.511 47.761C46.7697 46.5024 48.3734 45.6452 50.1192 45.2979C51.865 44.9507 53.6746 45.1289 55.3191 45.8101C56.9637 46.4913 58.3693 47.6448 59.3582 49.1249C60.3472 50.6049 60.875 52.345 60.875 54.125C60.875 56.5119 59.9268 58.8011 58.239 60.489C56.5511 62.1768 54.2619 63.125 51.875 63.125Z" fill="#FF6464"/>
<path d="M59.75 17V29.375C59.75 30.2701 60.1056 31.1286 60.7385 31.7615C61.3715 32.3944 62.2299 32.75 63.125 32.75V36.125H57.5V26C57.5 24.5082 56.9074 23.0774 55.8525 22.0225C54.7976 20.9676 53.3668 20.375 51.875 20.375C51.4971 20.3723 51.1199 20.41 50.75 20.4875V20.375C48.6614 20.375 46.6584 21.2047 45.1815 22.6815C43.7047 24.1584 42.875 26.1614 42.875 28.25V29.375C42.875 30.2701 43.2306 31.1286 43.8635 31.7615C44.4965 32.3944 45.3549 32.75 46.25 32.75V36.125H40.625V11.375H63.125V14.75H62C61.4038 14.7518 60.8326 14.9894 60.411 15.411C59.9894 15.8325 59.7518 16.4038 59.75 17Z" fill="#1EC0FF"/>
<path d="M66.5 11.3751H37.25L46.6213 4.56885C47.0779 5.89777 47.938 7.05104 49.0815 7.8678C50.2249 8.68456 51.5948 9.12409 53 9.1251H63.4062L66.5 11.3751Z" fill="#FF6464"/>
<path d="M58.625 17C59.2463 17 59.75 16.4963 59.75 15.875C59.75 15.2537 59.2463 14.75 58.625 14.75C58.0037 14.75 57.5 15.2537 57.5 15.875C57.5 16.4963 58.0037 17 58.625 17Z" fill="#F9D423"/>
<path d="M63.125 41.75C63.7463 41.75 64.25 41.2463 64.25 40.625C64.25 40.0037 63.7463 39.5 63.125 39.5C62.5037 39.5 62 40.0037 62 40.625C62 41.2463 62.5037 41.75 63.125 41.75Z" fill="#F9D423"/>
<path d="M45.125 17C45.7463 17 46.25 16.4963 46.25 15.875C46.25 15.2537 45.7463 14.75 45.125 14.75C44.5037 14.75 44 15.2537 44 15.875C44 16.4963 44.5037 17 45.125 17Z" fill="#F9D423"/>
<path d="M40.625 41.75C41.2463 41.75 41.75 41.2463 41.75 40.625C41.75 40.0037 41.2463 39.5 40.625 39.5C40.0037 39.5 39.5 40.0037 39.5 40.625C39.5 41.2463 40.0037 41.75 40.625 41.75Z" fill="#F9B53D"/>
<path d="M63.125 64.25C63.7463 64.25 64.25 63.7463 64.25 63.125C64.25 62.5037 63.7463 62 63.125 62C62.5037 62 62 62.5037 62 63.125C62 63.7463 62.5037 64.25 63.125 64.25Z" fill="#F9B53D"/>
<path d="M40.625 64.25C41.2463 64.25 41.75 63.7463 41.75 63.125C41.75 62.5037 41.2463 62 40.625 62C40.0037 62 39.5 62.5037 39.5 63.125C39.5 63.7463 40.0037 64.25 40.625 64.25Z" fill="#F9B53D"/>
<path d="M51.875 64.25C49.8725 64.25 47.9149 63.6562 46.2499 62.5436C44.5848 61.4311 43.2871 59.8498 42.5207 57.9997C41.7544 56.1496 41.5539 54.1138 41.9446 52.1497C42.3352 50.1857 43.2995 48.3816 44.7155 46.9655C46.1316 45.5495 47.9357 44.5852 49.8997 44.1946C51.8638 43.8039 53.8996 44.0044 55.7497 44.7707C57.5998 45.5371 59.1811 46.8348 60.2936 48.4999C61.4062 50.1649 62 52.1225 62 54.125C61.997 56.8094 60.9293 59.383 59.0312 61.2812C57.133 63.1793 54.5594 64.247 51.875 64.25ZM51.875 46.25C50.3175 46.25 48.7949 46.7119 47.4999 47.5772C46.2049 48.4425 45.1955 49.6724 44.5995 51.1114C44.0034 52.5503 43.8475 54.1337 44.1513 55.6613C44.4552 57.1889 45.2052 58.5921 46.3065 59.6935C47.4079 60.7948 48.8111 61.5448 50.3387 61.8487C51.8663 62.1525 53.4497 61.9966 54.8886 61.4006C56.3276 60.8045 57.5575 59.7952 58.4228 58.5001C59.2881 57.2051 59.75 55.6825 59.75 54.125C59.7476 52.0372 58.9172 50.0355 57.4408 48.5592C55.9645 47.0828 53.9629 46.2524 51.875 46.25Z" fill="#1EC0FF"/>
<path d="M58.625 36.125H56.375V26C56.375 24.8065 55.9009 23.6619 55.057 22.818C54.2131 21.9741 53.0685 21.5 51.875 21.5C50.6815 21.5 49.5369 21.9741 48.693 22.818C47.8491 23.6619 47.375 24.8065 47.375 26V36.125H45.125V26C45.125 24.2098 45.8362 22.4929 47.102 21.227C48.3679 19.9612 50.0848 19.25 51.875 19.25C53.6652 19.25 55.3821 19.9612 56.648 21.227C57.9138 22.4929 58.625 24.2098 58.625 26V36.125Z" fill="#F9D423"/>
</svg>
