<svg width="72" height="72" viewBox="0 0 72 72" fill="none" xmlns="http://www.w3.org/2000/svg">
<g clip-path="url(#clip0_123_8433)">
<g clip-path="url(#clip1_123_8433)">
<path d="M45.2862 45.3557V52.2927H26.7138V45.2376C26.7138 44.3333 27.4493 43.5979 28.3562 43.5979H31.7829V26.9296L29.3545 29.3582C28.7259 29.9868 27.7065 29.9868 27.0779 29.3582L23.3882 25.6668C22.7596 25.0382 22.7596 24.0201 23.3882 23.3915L31.0981 15.681C31.5368 15.2437 32.1301 14.9976 32.7489 14.9976H38.725C39.5519 14.9976 40.2197 15.6669 40.2197 16.4924V43.7146H43.6451C44.5523 43.7146 45.2862 44.4501 45.2862 45.3557Z" fill="#FF4A4A"/>
<path d="M45.2862 45.3557V52.2927H36V14.9976H38.7252C39.552 14.9976 40.2199 15.6669 40.2199 16.4924V43.7146H43.6452C44.5522 43.7146 45.2862 44.4501 45.2862 45.3557Z" fill="#C73C50"/>
<path d="M38.0817 2.10938V6.75C38.0817 7.91437 37.1382 8.85938 35.9725 8.85938C34.8083 8.85938 33.8633 7.91437 33.8633 6.75V2.10938C33.8633 0.945 34.8081 0 35.9725 0C37.1382 0 38.0817 0.945 38.0817 2.10938Z" fill="#FFCC00"/>
<path d="M17.9866 21.6853H13.3463C12.1814 21.6853 11.2371 20.7409 11.2371 19.5759C11.2371 18.411 12.1814 17.4666 13.3463 17.4666H17.9866C19.1516 17.4666 20.0959 18.411 20.0959 19.5759C20.0959 20.7409 19.1514 21.6853 17.9866 21.6853Z" fill="#FFCC00"/>
<path d="M55.7969 21.6853H51.1566C49.9917 21.6853 49.0474 20.7409 49.0474 19.5759C49.0474 18.411 49.9917 17.4666 51.1566 17.4666H55.7969C56.9619 17.4666 57.9062 18.411 57.9062 19.5759C57.9062 20.7409 56.9619 21.6853 55.7969 21.6853Z" fill="#FF8756"/>
<path d="M46.4128 10.2318C45.589 9.40815 45.589 8.07263 46.4128 7.24871L49.4026 4.25846C50.2262 3.43482 51.5617 3.43454 52.3854 4.25846C53.209 5.0821 53.2092 6.41762 52.3854 7.24154L49.3956 10.2318C48.5719 11.0554 47.2363 11.0556 46.4128 10.2318Z" fill="#FF8756"/>
<path d="M22.5601 10.2318L19.5701 7.24154C18.7465 6.4179 18.7465 5.08224 19.5701 4.25846C20.3938 3.43468 21.7291 3.43468 22.5531 4.25846L25.543 7.24871C26.3667 8.07235 26.3667 9.40801 25.543 10.2318C24.7195 11.0553 23.384 11.0557 22.5601 10.2318Z" fill="#FFCC00"/>
<path d="M38.0818 2.10938V6.75C38.0818 7.91437 37.1382 8.85938 35.9725 8.85938V0C37.1382 0 38.0818 0.945 38.0818 2.10938Z" fill="#FF8756"/>
<path d="M71.4422 68.4647C72.6805 69.8106 71.7232 72 69.8884 72H55.6454C54.4797 72 53.5361 71.055 53.5361 69.8906V57.2344C53.5361 56.07 54.4797 55.125 55.6454 55.125H69.8883C71.7244 55.125 72.6793 57.3155 71.4421 58.6603L66.9453 63.5625L71.4422 68.4647Z" fill="#FF8756"/>
<path d="M18.4639 57.2344V69.8906C18.4639 71.055 17.5204 72 16.3547 72H2.11179C0.275648 72 -0.679336 69.8095 0.557883 68.4647L5.05479 63.5625L0.557883 58.6603C-0.680461 57.3144 0.277054 55.125 2.11179 55.125H16.3547C17.5204 55.125 18.4639 56.07 18.4639 57.2344Z" fill="#FFCC00"/>
<path d="M39.0079 54.5888L36 50.9062H16.3547C15.1905 50.9062 14.2455 51.8513 14.2455 53.0156V65.6719C14.2455 66.8363 15.1905 67.7812 16.3547 67.7812H36L39.0079 64.2666V54.5888Z" fill="#FFF161"/>
<path d="M57.7545 53.0156V65.6719C57.7545 66.8363 56.8095 67.7812 55.6453 67.7812H36V50.9062H55.6453C56.8097 50.9062 57.7545 51.8513 57.7545 53.0156Z" fill="#FFCC00"/>
</g>
</g>
<defs>
<clipPath id="clip0_123_8433">
<rect width="72" height="72" fill="white"/>
</clipPath>
<clipPath id="clip1_123_8433">
<rect width="72" height="72" fill="white"/>
</clipPath>
</defs>
</svg>
