<svg width="25" height="24" viewBox="0 0 25 24" fill="none" xmlns="http://www.w3.org/2000/svg">
<path d="M18.5 1.25H6.5C5.24055 1.25106 4.03298 1.75184 3.14241 2.64241C2.25184 3.53298 1.75106 4.74055 1.75 6V18C1.75106 19.2595 2.25184 20.467 3.14241 21.3576C4.03298 22.2482 5.24055 22.7489 6.5 22.75H18.5C19.7595 22.7489 20.967 22.2482 21.8576 21.3576C22.7482 20.467 23.2489 19.2595 23.25 18V6C23.2489 4.74055 22.7482 3.53298 21.8576 2.64241C20.967 1.75184 19.7595 1.25106 18.5 1.25ZM21.75 18C21.7484 18.8615 21.4055 19.6872 20.7963 20.2963C20.1872 20.9055 19.3615 21.2484 18.5 21.25H6.5C5.63853 21.2484 4.8128 20.9055 4.20365 20.2963C3.59451 19.6872 3.25159 18.8615 3.25 18V6C3.25159 5.13853 3.59451 4.3128 4.20365 3.70365C4.8128 3.09451 5.63853 2.75159 6.5 2.75H18.5C19.3615 2.75159 20.1872 3.09451 20.7963 3.70365C21.4055 4.3128 21.7484 5.13853 21.75 6V18Z" fill="black"/>
<path d="M16.5 9.75C18.0188 9.75 19.25 8.51878 19.25 7C19.25 5.48122 18.0188 4.25 16.5 4.25C14.9812 4.25 13.75 5.48122 13.75 7C13.75 8.51878 14.9812 9.75 16.5 9.75Z" fill="black"/>
<path d="M17.25 22.0001C17.2525 22.2536 17.2189 22.5061 17.15 22.7501H6.5C5.24055 22.749 4.03298 22.2483 3.14241 21.3577C2.25184 20.4671 1.75106 19.2596 1.75 18.0001V12.3601C2.23259 12.1191 2.7343 11.9184 3.25 11.7601C4.7998 11.2701 6.4405 11.1378 8.0488 11.373C9.65709 11.6083 11.1912 12.205 12.5357 13.1183C13.8802 14.0317 15.0002 15.2379 15.8116 16.6463C16.6229 18.0548 17.1044 19.6288 17.22 21.2501C17.24 21.5001 17.25 21.7501 17.25 22.0001Z" fill="black"/>
<path d="M23.25 15.18V18C23.2489 19.2595 22.7482 20.467 21.8576 21.3576C20.967 22.2482 19.7595 22.749 18.5 22.75H18.17C18.2224 22.5034 18.2492 22.2521 18.25 22C18.25 21.72 18.24 21.45 18.22 21.18C18.0619 18.8462 17.2008 16.6149 15.75 14.78C16.7979 14.4302 17.8953 14.2512 19 14.25C19.9298 14.2486 20.8554 14.3765 21.75 14.63C22.2659 14.7668 22.768 14.9509 23.25 15.18Z" fill="black"/>
</svg>
