<svg width="25" height="24" viewBox="0 0 25 24" fill="none" xmlns="http://www.w3.org/2000/svg">
<path d="M11.4165 3.25V14.75H6.1665C4.90673 14.75 3.69854 14.2496 2.80775 13.3588C1.91695 12.468 1.4165 11.2598 1.4165 10V8C1.4165 6.74022 1.91695 5.53204 2.80775 4.64124C3.69854 3.75045 4.90673 3.25 6.1665 3.25H11.4165Z" fill="black"/>
<path d="M22.1886 0.966946C21.9636 0.805094 21.7034 0.69902 21.4294 0.657467C21.1554 0.615913 20.8754 0.64007 20.6126 0.727946L12.4126 3.45895V14.5409L20.6126 17.2719C20.7908 17.3319 20.9776 17.3623 21.1656 17.3619C21.3954 17.3622 21.6231 17.3172 21.8355 17.2294C22.048 17.1416 22.241 17.0128 22.4036 16.8504C22.5662 16.6879 22.6953 16.4951 22.7833 16.2827C22.8713 16.0704 22.9166 15.8428 22.9166 15.6129V2.38695C22.9164 2.10951 22.8503 1.83608 22.7238 1.5892C22.5972 1.34231 22.4138 1.12904 22.1886 0.966946Z" fill="black"/>
<path d="M12.5667 21.53C12.1996 21.9991 11.7081 22.3558 11.1483 22.5592C10.5884 22.7627 9.98265 22.8048 9.40002 22.6807C8.81739 22.5567 8.28131 22.2715 7.85286 21.8577C7.42441 21.4438 7.12081 20.918 6.97666 20.34L5.82666 15.73C5.93919 15.7466 6.05296 15.7533 6.16666 15.75H12.3767L13.1367 18.8C13.2554 19.2684 13.2658 19.7578 13.167 20.2308C13.0682 20.7039 12.8629 21.1482 12.5667 21.53Z" fill="black"/>
</svg>
