<svg width="25" height="24" viewBox="0 0 25 24" fill="none" xmlns="http://www.w3.org/2000/svg">
<g clip-path="url(#clip0_1025_8148)">
<path d="M24.3816 8.31165C24.3153 8.28286 22.6992 7.58275 13.131 3.43639C12.9406 3.35389 12.725 3.35389 12.5347 3.43639L1.28408 8.31165C0.680397 8.57271 0.68621 9.42963 1.28408 9.68797C3.4697 10.6349 7.04275 12.1834 12.5347 14.5632C12.7239 14.6453 12.9395 14.6462 13.131 14.5632C13.6525 14.3372 20.7584 11.2579 21.0833 11.1173V19.1043C21.0833 19.5083 21.3939 19.8558 21.7974 19.8745C22.2281 19.8946 22.5833 19.5516 22.5833 19.1253V10.8452C22.5833 10.7274 22.496 10.6279 22.3791 10.6128C20.9714 10.4314 14.3321 9.57448 12.7367 9.36873C12.2753 9.31107 11.9877 8.8438 12.109 8.4279C12.2042 8.07665 12.5377 7.8529 12.8755 7.87615C12.9091 7.87812 23.5978 9.25745 23.5901 9.25646C23.7898 9.28215 23.954 9.41003 24.0328 9.58343C24.088 9.70466 24.2283 9.76021 24.3489 9.70367C24.5507 9.60907 24.7257 9.48457 24.8053 9.20279C24.9078 8.83766 24.7226 8.45912 24.3816 8.31165Z" fill="black"/>
<path d="M11.938 15.9394L5.6601 13.219C5.50531 13.152 5.33252 13.2655 5.33252 13.4341V16.1251C5.33252 18.6485 8.62707 20.6253 12.8329 20.6253C17.0388 20.6253 20.3333 18.6485 20.3333 16.1251V13.4341C20.3333 13.2655 20.1605 13.152 20.0057 13.219L13.7273 15.9394C13.1573 16.1872 12.5086 16.187 11.938 15.9394Z" fill="black"/>
</g>
<defs>
<clipPath id="clip0_1025_8148">
<rect width="24" height="24" fill="white" transform="translate(0.833496)"/>
</clipPath>
</defs>
</svg>
