<svg width="25" height="24" viewBox="0 0 25 24" fill="none" xmlns="http://www.w3.org/2000/svg">
<g clip-path="url(#clip0_1025_8144)">
<path d="M23.8529 10.4388C23.8524 10.4383 23.8518 10.4377 23.8513 10.4372L14.0612 0.647461C13.6439 0.22998 13.0891 0 12.4989 0C11.9088 0 11.354 0.229797 10.9365 0.647278L1.15151 10.4321C1.14822 10.4354 1.14492 10.4388 1.14163 10.4421C0.284693 11.304 0.286157 12.7024 1.14584 13.5621C1.5386 13.955 2.05734 14.1826 2.61196 14.2064C2.63449 14.2086 2.65719 14.2097 2.68008 14.2097H3.07028V21.4144C3.07028 22.84 4.23025 24 5.65627 24H9.48647C9.87466 24 10.1896 23.6852 10.1896 23.2969V17.6484C10.1896 16.9979 10.7188 16.4687 11.3693 16.4687H13.6285C14.2791 16.4687 14.8083 16.9979 14.8083 17.6484V23.2969C14.8083 23.6852 15.123 24 15.5114 24H19.3416C20.7676 24 21.9276 22.84 21.9276 21.4144V14.2097H22.2894C22.8794 14.2097 23.4342 13.9799 23.8518 13.5624C24.7124 12.7013 24.7128 11.3005 23.8529 10.4388Z" fill="black"/>
</g>
<defs>
<clipPath id="clip0_1025_8144">
<rect width="24" height="24" fill="white" transform="translate(0.5)"/>
</clipPath>
</defs>
</svg>
