<svg width="177" height="88" viewBox="0 0 177 88" fill="none" xmlns="http://www.w3.org/2000/svg">
<path d="M122.457 18.8145C119.963 19.2501 117.867 21.081 116.308 24.364C108.524 40.7537 102.841 52.8755 98.2705 62.6866C98.2705 62.6866 92.9231 51.3539 88.4721 41.9848C83.8822 51.7327 80.7002 58.2987 78.8062 62.6866C78.8062 62.6866 68.3259 40.3559 60.7687 24.364C59.2156 21.081 57.0943 19.2501 54.5626 18.8145V18.0127C59.3356 18.2337 66.6529 18.2337 71.2112 18.0127C71.249 18.0127 71.2112 18.9345 71.2112 18.9345C69.7906 18.9345 68.0418 20.1151 67.865 21.7818C67.7893 22.4952 67.7703 23.2276 68.3575 24.3577C71.8677 31.0941 80.4477 47.7805 80.4477 47.7805L86.0982 36.9214C83.9138 32.3694 83.3203 30.8037 81.2937 26.7063C79.0524 22.6278 82.247 18.2274 86.5717 19.6542C89.5517 20.6391 89.5769 23.6885 89.5769 23.6885C88.592 22.6026 86.4455 23.1834 86.5086 25.0143C86.5339 25.835 87.2599 26.7189 87.6324 27.4513C88.0743 28.3225 89.3623 30.5891 89.3623 30.5891L91.0101 27.3945C91.5657 26.378 92.1907 25.3805 92.2286 24.6986C92.3107 23.3223 90.5808 22.5647 89.5769 23.6885C89.5769 23.6885 89.7158 21.2452 92.4054 20.5318C94.7476 19.9067 96.4965 21.7944 96.5912 23.9473C96.6354 25.0964 95.1706 27.7101 94.4635 29.2443L91.7677 34.9643L99.9941 49.9271L111.876 24.6292C112.406 23.4612 112.728 22.5079 112.514 21.523C112.217 20.134 111.093 19.0607 109.679 18.7956L109.71 18.0821C111.882 18.1895 114.452 18.2652 116.27 18.2652C118.088 18.2652 122.464 18.1958 122.464 18.1453V18.7956L122.457 18.8145Z" fill="#646363"/>
<path d="M88.7247 0.416992V15.1273H106.548L88.7247 0.416992Z" fill="#646363"/>
<path d="M129.409 19.3637C129.409 19.3637 122.628 18.2021 118.764 24.8122C116.049 29.4652 106.144 50.6405 106.144 50.6405C106.144 50.6405 131.795 53.7909 135.091 62.6802C138.898 72.9459 112.994 78.0724 112.994 78.0724C112.994 78.0724 141.707 74.0444 141.884 62.4719C142.048 51.8969 115.456 47.2439 115.456 47.2439L117.975 41.9595C117.975 41.9595 147.257 47.7552 149.264 60.7294C151.581 75.6922 115.475 82.9274 115.475 82.9274C115.475 82.9274 159.839 76.1215 157.062 56.8782C154.833 41.4734 121.34 35.0337 121.34 35.0337L124.522 28.4488C124.522 28.4488 163.886 35.9428 166.361 55.8428C168.034 69.2904 149.264 81.7973 119.282 87.5993C119.282 87.5993 139.946 85.0487 157.169 75.9637C168.432 70.0164 177.826 61.3733 176.305 50.0975C173.382 28.3225 129.402 19.37 129.402 19.37L129.409 19.3637Z" fill="#FBBC13"/>
<path d="M47.6115 19.3637C47.6115 19.3637 54.3921 18.2021 58.256 24.8122C60.9707 29.4652 70.8765 50.6405 70.8765 50.6405C70.8765 50.6405 45.225 53.7909 41.9294 62.6802C38.1224 72.9459 64.0264 78.0724 64.0264 78.0724C64.0264 78.0724 35.3193 74.0444 35.1425 62.4719C34.9846 51.8969 61.5705 47.2439 61.5705 47.2439L59.0578 41.9595C59.0578 41.9595 29.7761 47.7552 27.7621 60.7294C25.445 75.6922 61.5516 82.9274 61.5516 82.9274C61.5516 82.9274 17.1934 76.1215 19.9713 56.8782C22.1936 41.4734 55.6927 35.0337 55.6927 35.0337L52.5044 28.4488C52.5044 28.4488 13.1465 35.9428 10.6653 55.8428C8.98592 69.2904 27.7558 81.7973 57.7383 87.5993C57.7383 87.5993 37.0744 85.0487 19.8577 75.9637C8.59449 70.0164 -0.799901 61.3733 0.715324 50.0975C3.63844 28.3225 47.6178 19.37 47.6178 19.37L47.6115 19.3637Z" fill="#FBBC13"/>
<path d="M88.7243 0.416992V15.1273H70.9015L88.7243 0.416992Z" fill="#FBBC13"/>
<path d="M97.7911 10.3859L109.111 6.09912L106.422 15.1273H83.8195L97.7911 10.3796V10.3859Z" fill="#FBBC13"/>
<path d="M79.6331 10.3859L68.3195 6.09912L71.009 15.1273H93.6111L79.6394 10.3796L79.6331 10.3859Z" fill="#FBBC13"/>
</svg>
