<svg width="177" height="88" viewBox="0 0 177 88" fill="none" xmlns="http://www.w3.org/2000/svg">
<path d="M122.457 18.8145C119.963 19.2501 117.867 21.081 116.308 24.364C108.523 40.7537 102.841 52.8755 98.2704 62.6866C98.2704 62.6866 92.9229 51.3539 88.472 41.9848C83.8821 51.7327 80.7001 58.2987 78.8061 62.6866C78.8061 62.6866 68.3258 40.3559 60.7686 24.364C59.2155 21.081 57.0942 19.2501 54.5625 18.8145V18.0127C59.3355 18.2337 66.6527 18.2337 71.211 18.0127C71.2489 18.0127 71.211 18.9345 71.211 18.9345C69.7905 18.9345 68.0417 20.1151 67.8649 21.7818C67.7891 22.4952 67.7702 23.2276 68.3574 24.3577C71.8676 31.0941 80.4476 47.7805 80.4476 47.7805L86.0981 36.9214C83.9137 32.3694 83.3202 30.8037 81.2936 26.7063C79.0523 22.6278 82.2469 18.2274 86.5716 19.6542C89.5516 20.6391 89.5768 23.6885 89.5768 23.6885C88.5919 22.6026 86.4454 23.1834 86.5085 25.0143C86.5337 25.835 87.2598 26.7189 87.6323 27.4513C88.0742 28.3225 89.3622 30.5891 89.3622 30.5891L91.01 27.3945C91.5655 26.378 92.1906 25.3805 92.2285 24.6986C92.3105 23.3223 90.5807 22.5647 89.5768 23.6885C89.5768 23.6885 89.7157 21.2452 92.4052 20.5318C94.7475 19.9067 96.4963 21.7944 96.591 23.9473C96.6352 25.0964 95.1705 27.7101 94.4634 29.2443L91.7676 34.9643L99.994 49.9271L111.876 24.6292C112.406 23.4612 112.728 22.5079 112.514 21.523C112.217 20.134 111.093 19.0607 109.679 18.7956L109.71 18.0821C111.882 18.1895 114.452 18.2652 116.27 18.2652C118.088 18.2652 122.464 18.1958 122.464 18.1453V18.7956L122.457 18.8145Z" fill="#646363"/>
<path d="M88.7246 0.416992V15.1273H106.547L88.7246 0.416992Z" fill="#646363"/>
<path d="M129.409 19.3637C129.409 19.3637 122.628 18.2021 118.764 24.8122C116.049 29.4652 106.144 50.6405 106.144 50.6405C106.144 50.6405 131.795 53.7909 135.091 62.6802C138.898 72.9459 112.994 78.0724 112.994 78.0724C112.994 78.0724 141.707 74.0444 141.884 62.4719C142.048 51.8969 115.456 47.2439 115.456 47.2439L117.975 41.9595C117.975 41.9595 147.257 47.7552 149.264 60.7294C151.581 75.6922 115.475 82.9274 115.475 82.9274C115.475 82.9274 159.839 76.1215 157.061 56.8782C154.833 41.4734 121.34 35.0337 121.34 35.0337L124.522 28.4488C124.522 28.4488 163.886 35.9428 166.361 55.8428C168.034 69.2904 149.264 81.7973 119.282 87.5993C119.282 87.5993 139.946 85.0487 157.169 75.9637C168.432 70.0164 177.826 61.3733 176.305 50.0975C173.382 28.3225 129.402 19.37 129.402 19.37L129.409 19.3637Z" fill="#FBBC13"/>
<path d="M47.6114 19.3637C47.6114 19.3637 54.392 18.2021 58.2558 24.8122C60.9706 29.4652 70.8764 50.6405 70.8764 50.6405C70.8764 50.6405 45.2249 53.7909 41.9293 62.6802C38.1223 72.9459 64.0263 78.0724 64.0263 78.0724C64.0263 78.0724 35.3191 74.0444 35.1424 62.4719C34.9845 51.8969 61.5704 47.2439 61.5704 47.2439L59.0576 41.9595C59.0576 41.9595 29.7759 47.7552 27.762 60.7294C25.4449 75.6922 61.5515 82.9274 61.5515 82.9274C61.5515 82.9274 17.1933 76.1215 19.9712 56.8782C22.1935 41.4734 55.6926 35.0337 55.6926 35.0337L52.5043 28.4488C52.5043 28.4488 13.1464 35.9428 10.6652 55.8428C8.9858 69.2904 27.7556 81.7973 57.7381 87.5993C57.7381 87.5993 37.0743 85.0487 19.8575 75.9637C8.59437 70.0164 -0.800023 61.3733 0.715202 50.0975C3.63832 28.3225 47.6177 19.37 47.6177 19.37L47.6114 19.3637Z" fill="#FBBC13"/>
<path d="M88.7242 0.416992V15.1273H70.9014L88.7242 0.416992Z" fill="#FBBC13"/>
<path d="M97.791 10.3859L109.111 6.09912L106.421 15.1273H83.8193L97.791 10.3796V10.3859Z" fill="#FBBC13"/>
<path d="M79.633 10.3859L68.3193 6.09912L71.0089 15.1273H93.611L79.6393 10.3796L79.633 10.3859Z" fill="#FBBC13"/>
</svg>
