<svg width="132" height="132" viewBox="0 0 132 132" fill="none" xmlns="http://www.w3.org/2000/svg">
<circle cx="66" cy="66" r="66" fill="#F5CC49"/>
<path d="M69.1743 88L81.2467 68.386C78.0885 68.1848 75.4397 66.9778 73.3003 64.7649C71.2627 62.552 70.244 59.8363 70.244 56.6175C70.244 53.1977 71.4156 50.4316 73.7587 48.3193C76.2038 46.1064 79.1072 45 82.4692 45C85.933 45 88.8874 46.1064 91.3324 48.3193C93.7775 50.4316 95 53.3988 95 57.2211C95 60.4398 93.7265 64.1614 91.1796 68.386C88.7346 72.6105 84.7105 78.5953 79.1072 86.3404L78.0375 88H69.1743ZM38 88L50.0724 68.386C46.9142 68.1848 44.2654 66.9778 42.126 64.7649C40.0885 62.552 39.0697 59.8363 39.0697 56.6175C39.0697 53.1977 40.2413 50.4316 42.5845 48.3193C44.9276 46.1064 47.7802 45 51.1421 45C54.7078 45 57.6622 46.1064 60.0054 48.3193C62.4504 50.4316 63.6729 53.3988 63.6729 57.2211C63.6729 60.4398 62.4504 64.1614 60.0054 68.386C57.5603 72.6105 53.5362 78.5953 47.933 86.3404L46.8633 88H38Z" fill="black"/>
</svg>
