<svg width="33" height="32" viewBox="0 0 33 32" fill="none" xmlns="http://www.w3.org/2000/svg">
<path fill-rule="evenodd" clip-rule="evenodd" d="M7.28881 8H26.0444C26.3522 8 26.6405 8.07569 26.9012 8.20044L18.0806 16.9766C17.3007 17.7565 16.0325 17.7565 15.2525 16.9766L6.43196 8.20044C6.69272 8.07569 6.98094 8 7.28881 8ZM5.48926 9.14306C5.36451 9.40381 5.28882 9.69203 5.28882 9.9999V21.9999C5.28882 22.3078 5.36451 22.596 5.48926 22.8567L12.3906 15.9999L5.48926 9.14306ZM20.9426 15.9999L27.8439 9.14306C27.9687 9.40381 28.0444 9.69203 28.0444 9.9999V21.9999C28.0444 22.3077 27.9687 22.596 27.8439 22.8567L20.9426 15.9999ZM19.0233 17.9193L19.9999 16.9427L26.9012 23.7996C26.6405 23.9243 26.3522 24 26.0444 24H7.28881C6.98094 24 6.69272 23.9243 6.43196 23.7996L13.3333 16.9427L14.3098 17.9193C15.6093 19.2188 17.7238 19.2188 19.0233 17.9193Z" fill="white"/>
</svg>
