<svg width="33" height="32" viewBox="0 0 33 32" fill="none" xmlns="http://www.w3.org/2000/svg">
<path d="M16.6666 3.55566C12.2555 3.55566 8.66663 7.27748 8.66663 11.852C8.66663 13.2252 8.9977 14.5868 9.62709 15.7945L16.2291 28.1772C16.317 28.3423 16.4845 28.4446 16.6666 28.4446C16.8487 28.4446 17.0162 28.3423 17.1041 28.1772L23.7086 15.7904C24.3355 14.5868 24.6666 13.2252 24.6666 11.8519C24.6666 7.27748 21.0777 3.55566 16.6666 3.55566ZM16.6666 16.0001C14.4611 16.0001 12.6666 14.1392 12.6666 11.852C12.6666 9.56473 14.4611 7.70384 16.6666 7.70384C18.8722 7.70384 20.6666 9.56473 20.6666 11.852C20.6666 14.1392 18.8722 16.0001 16.6666 16.0001Z" fill="white"/>
</svg>
