<svg width="33" height="32" viewBox="0 0 33 32" fill="none" xmlns="http://www.w3.org/2000/svg">
<path d="M26.1422 20.678L23.3452 17.8869C22.3463 16.8901 20.6482 17.2889 20.2486 18.5847C19.949 19.4818 18.9501 19.9802 18.051 19.7808C16.0532 19.2824 13.3562 16.6907 12.8567 14.5975C12.5571 13.7003 13.1564 12.7035 14.0554 12.4045C15.354 12.0058 15.7536 10.3112 14.7547 9.31438L11.9577 6.52332C11.1586 5.82556 9.95992 5.82556 9.26069 6.52332L7.36277 8.41725C5.46485 10.4109 7.56255 15.6939 12.2574 20.3789C16.9523 25.0639 22.2464 27.2569 24.2443 25.2633L26.1422 23.3693C26.8414 22.5719 26.8414 21.3757 26.1422 20.678Z" fill="white"/>
</svg>
