<svg width="152" height="156" viewBox="0 0 152 156" fill="none" xmlns="http://www.w3.org/2000/svg">
                    <g filter="url(#filter0_d_305_17718)">
                    <path d="M134 0.5H18C10.268 0.5 4 6.76802 4 14.5V117.096C4 123.326 8.1163 128.806 14.0993 130.542L72.0993 147.368C74.6472 148.108 77.3528 148.108 79.9008 147.368L137.901 130.542C143.884 128.806 148 123.326 148 117.096V14.5C148 6.76801 141.732 0.5 134 0.5Z" fill="white"/>
                    <path d="M93.3956 21.5009C91.9703 21.7495 90.7724 22.7946 89.8811 24.6685C85.4321 34.0234 82.1847 40.9423 79.5723 46.5423C79.5723 46.5423 76.5161 40.0739 73.9722 34.7261C71.349 40.2901 69.5304 44.0378 68.448 46.5423C68.448 46.5423 62.4582 33.7964 58.1391 24.6685C57.2515 22.7946 56.0391 21.7495 54.5922 21.5009V21.0432C57.32 21.1694 61.502 21.1694 64.1072 21.0432C64.1288 21.0432 64.1072 21.5694 64.1072 21.5694C63.2953 21.5694 62.2958 22.2432 62.1948 23.1946C62.1515 23.6018 62.1407 24.0198 62.4763 24.6648C64.4825 28.5099 69.3861 38.0342 69.3861 38.0342L72.6155 31.836C71.3671 29.2378 71.0279 28.3441 69.8696 26.0054C68.5887 23.6775 70.4145 21.1658 72.8861 21.9802C74.5893 22.5423 74.6037 24.2829 74.6037 24.2829C74.0408 23.663 72.814 23.9946 72.8501 25.0396C72.8645 25.5081 73.2794 26.0126 73.4923 26.4306C73.7449 26.9279 74.481 28.2216 74.481 28.2216L75.4228 26.3982C75.7403 25.818 76.0975 25.2486 76.1192 24.8594C76.1661 24.0739 75.1774 23.6414 74.6037 24.2829C74.6037 24.2829 74.6831 22.8883 76.2202 22.4811C77.5589 22.1243 78.5584 23.2018 78.6125 24.4306C78.6377 25.0865 77.8006 26.5784 77.3965 27.454L75.8558 30.7189L80.5574 39.2594L87.3481 24.8198C87.6512 24.1531 87.8352 23.609 87.7126 23.0468C87.543 22.254 86.9007 21.6414 86.0924 21.4901L86.1105 21.0829C87.3517 21.1441 88.8203 21.1874 89.8595 21.1874C90.8987 21.1874 93.3992 21.1477 93.3992 21.1189V21.4901L93.3956 21.5009Z" fill="#646363"/>
                    <path d="M74.1165 11V19.3964H84.3027L74.1165 11Z" fill="#646363"/>
                    <path d="M97.3684 21.8144C97.3684 21.8144 93.4931 21.1513 91.2849 24.9243C89.7333 27.5802 84.0719 39.6667 84.0719 39.6667C84.0719 39.6667 98.7323 41.4649 100.616 46.5387C102.792 52.3982 87.9869 55.3243 87.9869 55.3243C87.9869 55.3243 104.397 53.0252 104.498 46.4198C104.592 40.3838 89.3941 37.7279 89.3941 37.7279L90.8338 34.7117C90.8338 34.7117 107.569 38.0198 108.716 45.4252C110.041 53.9658 89.4049 58.0955 89.4049 58.0955C89.4049 58.0955 114.76 54.2108 113.173 43.227C111.899 34.4342 92.757 30.7586 92.757 30.7586L94.5756 27C94.5756 27 117.073 31.2775 118.488 42.636C119.444 50.3117 108.716 57.4504 91.5807 60.7621C91.5807 60.7621 103.391 59.3063 113.234 54.1207C119.671 50.7261 125.04 45.7928 124.171 39.3568C122.5 26.9279 97.3648 21.818 97.3648 21.818L97.3684 21.8144Z" fill="#FBBC13"/>
                    <path d="M50.6195 21.8144C50.6195 21.8144 54.4948 21.1513 56.703 24.9243C58.2546 27.5802 63.916 39.6667 63.916 39.6667C63.916 39.6667 49.2555 41.4649 47.372 46.5387C45.1962 52.3982 60.001 55.3243 60.001 55.3243C60.001 55.3243 43.5942 53.0252 43.4931 46.4198C43.4029 40.3838 58.5974 37.7279 58.5974 37.7279L57.1613 34.7117C57.1613 34.7117 40.4261 38.0198 39.275 45.4252C37.9508 53.9658 58.5866 58.0955 58.5866 58.0955C58.5866 58.0955 33.2348 54.2108 34.8224 43.227C36.0925 34.4342 55.2381 30.7586 55.2381 30.7586L53.4159 27C53.4159 27 30.9219 31.2775 29.5038 42.636C28.544 50.3117 39.2714 57.4504 56.4072 60.7621C56.4072 60.7621 44.5973 59.3063 34.7575 54.1207C28.3203 50.7261 22.9512 45.7928 23.8172 39.3568C25.4878 26.9279 50.6231 21.818 50.6231 21.818L50.6195 21.8144Z" fill="#FBBC13"/>
                    <path d="M74.1165 11V19.3964H63.9304L74.1165 11Z" fill="#FBBC13"/>
                    <path d="M79.2982 16.6901L85.7678 14.2433L84.2307 19.3964H71.313L79.2982 16.6865V16.6901Z" fill="#FBBC13"/>
                    <path d="M68.9208 16.6901L62.4547 14.2433L63.9918 19.3964H76.9095L68.9244 16.6865L68.9208 16.6901Z" fill="#FBBC13"/>
                    <path d="M131.803 76.7638H131.544L131.415 76.3979C131.39 76.3261 131.354 76.2687 131.308 76.2365C131.265 76.197 131.204 76.1827 131.128 76.1827H130.827V76.7638H130.587V75.3325H131.221C131.293 75.3325 131.369 75.3433 131.433 75.3576C131.494 75.3684 131.552 75.3899 131.598 75.4222C131.641 75.458 131.681 75.4939 131.706 75.5477C131.727 75.5979 131.745 75.6625 131.745 75.7378C131.745 75.8383 131.717 75.9208 131.659 75.9854C131.609 76.0463 131.53 76.0858 131.433 76.1073C131.483 76.1288 131.53 76.1611 131.562 76.2042C131.602 76.2508 131.63 76.3118 131.659 76.3835L131.803 76.7638ZM130.83 75.9782H131.2C131.254 75.9782 131.297 75.9746 131.336 75.9674C131.372 75.9567 131.404 75.9459 131.433 75.928C131.455 75.91 131.473 75.8885 131.483 75.8562C131.494 75.8275 131.501 75.7916 131.501 75.7522C131.501 75.6769 131.48 75.6195 131.433 75.5872C131.39 75.5477 131.318 75.5262 131.225 75.5262H130.83V75.9782Z" fill="#646363"/>
                    <path d="M129.934 76.0894C129.934 75.4258 130.472 74.8877 131.132 74.8877C131.799 74.8877 132.33 75.4258 132.33 76.0894C132.33 76.753 131.796 77.2911 131.132 77.2911C130.468 77.2911 129.934 76.753 129.934 76.0894ZM130.077 76.0894C130.077 76.6741 130.547 77.1404 131.132 77.144C131.717 77.144 132.187 76.6705 132.187 76.0894C132.187 75.5083 131.717 75.0348 131.132 75.0348C130.547 75.0348 130.081 75.5047 130.077 76.0894Z" fill="#646363"/>
                    <path d="M26.3647 78.0049L30.9886 78.8084C31.6379 82.1912 32.506 86.7182 33.1553 89.9502C33.5427 87.9235 34.7336 81.384 35.121 79.4111L38.4105 79.8703C38.4105 79.8703 37.5854 83.7731 37.1872 85.4411C36.312 89.1001 35.3685 92.8523 34.4574 96.7372C33.0763 96.9488 31.6953 97.1748 30.3214 97.408C29.8479 94.6566 29.378 91.855 28.9044 89.0032C28.3771 91.9232 27.8534 94.9005 27.3261 97.9353C26.0275 98.172 22.5444 99.0366 21.2494 99.2912C21.2494 99.2912 21.7301 88.2571 19.0002 76.3728L23.764 77.4417C23.764 77.4417 24.4563 81.7177 24.6393 82.7651C25.0949 85.4196 25.5504 88.0311 26.006 90.5959C26.4401 88.3755 26.8705 86.1945 27.3046 84.0457C27.1252 82.9875 26.5441 79.0703 26.3647 77.9977" fill="#646363"/>
                    <path d="M48.3937 89.5879C48.3937 93.0962 46.2378 95.4852 42.7762 95.9372C38.9415 96.4502 36.8215 94.6028 36.8215 90.6712C36.8215 86.7397 39.1531 84.2681 42.8228 84.2717C46.1194 84.2717 48.3937 86.4419 48.3937 89.5879ZM41.3054 90.3986C41.3054 92.7626 41.7 93.7706 42.5897 93.6773C43.569 93.5768 43.8954 92.6872 43.8954 90.2228C43.8954 87.3208 43.6407 86.5783 42.6578 86.6034C41.7718 86.6285 41.3054 87.927 41.3054 90.3986Z" fill="#646363"/>
                    <path d="M70.9714 92.1994C71.0539 93.0388 71.1257 93.3868 71.3194 93.6917C70.9212 93.7275 69.3787 93.7311 68.69 93.7347C68.0048 93.7419 67.4057 93.7383 66.6847 93.8065C66.6632 93.5589 66.6417 93.3114 66.6202 93.0675C66.1036 93.5446 64.9987 94.2082 63.4096 94.1975C61.5335 94.1867 59.8655 92.5258 59.8189 90.2982C59.7364 86.3164 63.1262 83.8449 66.6237 84.3937C66.6094 83.2673 66.4121 81.8396 66.1395 81.2011C66.9645 81.2477 69.002 81.2477 70.4297 81.0899C70.7382 81.8647 70.8315 83.088 70.8817 83.913C70.9284 84.7381 70.8674 88.1638 70.8494 90.6928C70.8315 91.4497 70.9786 92.1958 70.9786 92.1958M66.5305 90.9546C66.6668 90.1117 66.6453 87.4392 66.6417 86.9406C66.6417 86.5711 66.1753 86.3989 65.9314 86.4061C65.7305 86.4133 65.1853 86.6716 64.7369 87.2778C64.4033 87.7262 64.1522 88.5799 64.1522 89.2364C64.1414 91.2093 64.6544 91.5824 65.4866 91.6577C65.8417 91.69 66.4336 91.5358 66.5305 90.9582" fill="#646363"/>
                    <path d="M59.4026 86.9227C59.4672 88.1208 59.3883 89.5736 59.3883 90.6497C59.3883 91.8048 59.4349 93.4728 59.5712 94.1472C57.6162 94.219 56.3966 94.4342 54.8577 94.4593C55.0406 92.82 55.0837 90.2193 55.037 89.4696C54.994 88.727 54.994 87.7154 54.7214 87.3711C54.3734 86.9298 53.5914 86.998 53.3188 87.4966C53.0461 87.9952 53.1071 88.4831 53.0928 89.1539C53.0497 91.4282 53.1825 93.7885 53.3654 94.5705C52.2319 94.7033 49.7459 94.7786 48.7917 95.0153C48.885 93.6701 49.0644 91.5394 49.0177 89.8426C48.9747 88.1423 48.8814 86.033 48.4761 84.5587C49.1541 84.4583 51.8229 84.261 52.5942 84.3004C52.7305 84.7022 52.9098 85.6815 52.9098 85.9469C54.1797 84.7237 55.4496 84.4654 56.7625 84.5408C57.7023 84.5982 58.5991 85.0322 59.0618 85.7281C59.3237 86.1586 59.4098 86.5281 59.4026 86.9227Z" fill="#646363"/>
                    <path d="M81.7941 93.7885C83.1106 93.7706 85.5606 93.8961 86.3749 93.9894C86.174 92.1635 85.8655 89.1718 86.8663 88.1889C87.8636 87.2025 89.155 87.0231 89.858 87.2168C89.858 87.2168 89.858 85.2295 89.9047 84.4439C89.3164 84.2108 87.3219 84.2825 86.0951 86.0797C86.0951 85.4447 86.0521 84.9031 85.8476 84.4977C84.4163 84.5049 82.9886 84.5085 81.5573 84.5157C82.2819 86.0008 82.1456 88.0024 82.1456 89.2543C82.1456 90.3986 82.1205 92.3142 81.7941 93.7885Z" fill="#646363"/>
                    <path d="M71.8358 91.9483C72.564 93.0639 73.8662 93.8351 75.6705 94.0755C77.2668 94.2907 78.6192 94.1903 80.0684 93.5446C80.6531 93.2863 80.9652 93.15 80.9652 93.15C80.9186 92.4864 80.8719 91.8263 80.8253 91.1699C80.8253 91.1699 80.5562 91.3313 80.0218 91.6721C79.1214 92.1492 77.9663 92.3034 77.1807 92.1779C76.1081 91.9985 75.2795 91.1663 75.2221 90.083C75.2221 90.0722 80.2226 89.7135 81.3418 89.1718C81.5104 89.0714 81.7185 88.7916 81.7185 88.7916C81.6683 87.5863 81.6754 87.597 81.5786 87.1809C81.5499 87.0877 81.5212 86.9872 81.4817 86.8796C80.9185 85.2331 79.6953 84.4977 77.7834 84.2502C74.702 83.852 71.8035 85.6815 71.2834 88.5512C71.122 89.4516 71.1399 90.2982 71.391 91.0371C71.4735 91.3241 71.6887 91.7331 71.8358 91.9483ZM75.2795 88.4042C75.2149 87.1845 76.0436 86.0474 76.8543 86.0474C77.6435 86.0402 78.0775 87.0123 78.0775 87.7154C78.0775 87.9809 78.0165 88.049 77.7762 88.1028C77.5394 88.153 75.9718 88.3181 75.2795 88.4077" fill="#646363"/>
                    <path d="M90.7726 82.862C90.8228 82.1087 90.6291 81.2836 90.4892 80.8711C91.9456 80.8496 95.2099 80.5088 95.2099 80.5088L95.0915 85.3084V91.6111C95.0915 92.4828 95.1382 93.437 95.1848 94.2333C95.192 94.3589 95.2028 94.4809 95.2099 94.6064C93.6925 94.4809 92.1716 94.3696 90.6542 94.2692C90.726 93.2971 90.7726 92.6765 90.7726 91.3744V82.8584V82.862Z" fill="#646363"/>
                    <path d="M128.409 97.0349C128.488 98.355 128.56 98.911 128.75 99.4276C128.363 99.3917 126.845 99.0437 126.171 98.8967C125.497 98.7496 124.908 98.6061 124.202 98.5415C124.18 98.1756 124.159 97.8097 124.137 97.4474C123.628 98.0357 122.544 98.7245 120.973 98.3155C119.122 97.8133 117.476 95.2449 117.429 92.3752C117.346 87.3065 120.7 84.0709 124.137 84.8421C124.119 83.1992 124.072 79.9958 123.588 77.3556L129.209 75.1137C129.209 75.1137 128.391 79.9958 128.316 84.1892C128.295 85.4698 128.302 90.7753 128.287 94.6853C128.269 95.8583 128.413 97.0385 128.413 97.0385M124.044 94.3732C124.184 93.1679 124.159 89.2758 124.155 88.5512C124.151 88.0096 123.696 87.7262 123.455 87.7262C123.258 87.719 122.72 88.0562 122.279 88.8777C121.949 89.4839 121.701 90.6426 121.701 91.5645C121.691 94.3158 122.196 94.9328 123.018 95.1947C123.366 95.3059 123.95 95.1947 124.04 94.3732" fill="#646363"/>
                    <path d="M117.02 87.945C117.081 89.5018 117.002 91.3779 117.002 92.7698C117.002 94.2692 117.049 96.4287 117.181 97.3434C115.251 96.9739 114.039 96.9452 112.514 96.608C112.694 94.6889 112.74 91.5716 112.694 90.6713C112.647 89.7745 112.647 88.5584 112.378 88.1244C112.034 87.5683 111.252 87.6006 110.983 88.1566C110.714 88.7091 110.775 89.2794 110.757 90.0543C110.714 92.6765 110.846 95.4314 111.026 96.3928C109.903 96.2744 107.388 95.844 106.423 95.7256C106.513 94.3122 106.746 92.1492 106.703 90.3161C106.66 88.4867 106.567 86.2088 106.162 84.6304C106.84 84.5408 109.498 84.3686 110.262 84.4296C110.394 84.8887 110.577 86.0259 110.577 86.3344C111.836 84.982 113.096 84.6735 114.401 84.8026C115.338 84.8923 116.22 85.4663 116.679 86.3882C116.941 86.9549 117.024 87.4428 117.02 87.9486" fill="#646363"/>
                    <path d="M95.5147 91.4353C95.6617 90.0578 96.4114 88.9315 97.3549 88.3252C98.8364 87.3639 100.408 87.163 101.319 87.4499C101.082 86.6679 100.278 86.2913 99.3278 86.3774C98.4418 86.4599 97.2437 86.7827 96.6303 87.0912C96.598 86.3666 96.5657 85.6384 96.5334 84.9138C97.484 84.6017 98.9691 84.3112 100.257 84.3506C102.015 84.4044 103.163 84.7847 104.171 85.6169C105.114 86.3881 105.548 87.2204 105.659 88.44C105.724 89.1861 105.666 90.6963 105.652 91.8084C105.634 92.924 105.76 95.27 106.09 95.7435C105.372 95.6287 102.832 95.2843 101.885 95.2341C101.835 94.9974 101.785 94.7642 101.735 94.531C101.003 94.8862 100.017 95.1911 99.0157 95.1839C97.7459 95.1767 96.4617 94.7463 95.6438 93.0746C95.3532 92.2352 95.4931 91.8012 95.5147 91.4353ZM101.548 90.5529C101.534 90.0865 101.534 89.6991 101.52 89.5556C101.491 89.2938 101.268 89.2041 100.924 89.3332C100.379 89.5377 99.3565 90.517 99.3601 91.7617C99.3601 92.7303 99.9376 93.1428 100.408 93.1141C100.924 93.0818 101.516 92.7733 101.566 92.0918C101.595 91.7259 101.559 91.116 101.545 90.5529" fill="#646363"/>
                    <path d="M20.6322 102.369V110.498C20.6322 110.498 42.7507 98.3693 76.316 98.3693C109.881 98.3693 128.484 110.498 128.484 110.498V102.369C128.484 102.369 102.38 95.7112 76.316 95.7112C42.7328 95.7112 20.6322 102.369 20.6322 102.369Z" fill="#FBBC13"/>
                    <path d="M30.2461 114.307L28.8327 110.698L29.7869 110.329L31.0532 111.355C31.4155 111.653 31.7993 112.022 32.1257 112.363H32.1365C31.8997 111.9 31.6953 111.419 31.48 110.874L31.0711 109.823L31.8208 109.529L33.2342 113.138L32.3768 113.471L31.0603 112.381C30.6944 112.08 30.2712 111.71 29.934 111.355L29.9124 111.362C30.1277 111.832 30.3393 112.338 30.5689 112.926L30.9958 114.013L30.2461 114.304V114.307Z" fill="#FBBC13"/>
                    <path d="M35.5909 108.733C35.7093 108.844 35.8241 109.009 35.8922 109.199C36.0106 109.529 35.8922 109.809 35.5694 109.96C35.7523 110.114 35.9066 110.329 36.0106 110.62C36.355 111.588 35.8241 112.277 35.1138 112.528C34.339 112.804 33.5642 112.506 33.2593 111.649C32.9543 110.788 33.3238 110.038 34.174 109.737C34.3569 109.673 34.5255 109.644 34.6869 109.64C34.8376 109.637 35.0493 109.676 35.1784 109.63C35.3039 109.586 35.347 109.497 35.2932 109.368C35.243 109.228 35.1497 109.12 35.0457 109.03L35.5909 108.726V108.733ZM34.1022 111.326C34.2637 111.782 34.5757 112.054 34.9273 111.932C35.2465 111.821 35.3362 111.427 35.1676 110.946C35.0277 110.555 34.7336 110.207 34.3605 110.34C33.9695 110.48 33.9623 110.939 34.1022 111.326Z" fill="#FBBC13"/>
                    <path d="M36.7746 108.105C36.8499 108.335 36.7423 108.575 36.4625 108.668C36.2006 108.754 35.9711 108.625 35.8957 108.395C35.8168 108.159 35.9316 107.922 36.2006 107.836C36.4697 107.746 36.6921 107.872 36.7746 108.105ZM37.0436 111.8L36.1648 109.131L36.9934 108.855L37.8759 111.524L37.0436 111.796V111.8Z" fill="#FBBC13"/>
                    <path d="M41.5887 106.699C41.6999 106.821 41.8075 106.989 41.8577 107.165C41.9546 107.502 41.7931 107.761 41.5169 107.883L41.4739 107.897L41.9043 109.346C42.0084 109.698 42.1052 109.981 42.1841 110.207L41.4559 110.422L41.3053 110.053H41.2873C41.23 110.254 41.0614 110.605 40.5771 110.749C40.0247 110.91 39.526 110.688 39.2821 109.859L38.8122 108.27L39.6516 108.022L40.0821 109.472C40.1968 109.863 40.3941 110.06 40.6919 109.974C40.9215 109.906 41.0147 109.705 41.0219 109.558C41.0291 109.504 41.0219 109.439 41.0004 109.368L40.5233 107.764L41.0291 107.613C41.2551 107.545 41.2945 107.434 41.2551 107.301C41.2192 107.187 41.1331 107.075 41.0255 106.971L41.5851 106.699H41.5887Z" fill="#FBBC13"/>
                    <path d="M44.8567 106.01C44.9643 106.128 45.0648 106.304 45.1186 106.501C45.2083 106.839 45.072 107.108 44.7383 107.233C44.9069 107.402 45.0468 107.628 45.1258 107.929C45.3912 108.923 44.8065 109.569 44.0783 109.762C43.282 109.974 42.5322 109.615 42.2991 108.736C42.0623 107.854 42.4892 107.136 43.3645 106.907C43.5546 106.857 43.7232 106.842 43.8846 106.849C44.0353 106.857 44.2433 106.914 44.376 106.878C44.5016 106.846 44.5518 106.76 44.5124 106.631C44.4729 106.487 44.3904 106.369 44.2899 106.272L44.8603 106.014L44.8567 106.01ZM43.1636 108.478C43.2855 108.944 43.5761 109.246 43.9348 109.149C44.2648 109.059 44.3868 108.679 44.2541 108.18C44.1465 107.782 43.881 107.409 43.4972 107.513C43.099 107.617 43.0524 108.076 43.16 108.478H43.1636Z" fill="#FBBC13"/>
                    <path d="M45.6205 107.301C45.5416 106.957 45.4627 106.677 45.3981 106.43L46.1227 106.265L46.2411 106.627H46.2591C46.3344 106.419 46.5209 106.103 46.9873 105.996C47.346 105.913 47.6616 106.035 47.8446 106.297H47.8554C47.9271 106.121 48.0204 105.985 48.1387 105.877C48.2715 105.759 48.4293 105.669 48.6302 105.623C49.1575 105.501 49.6382 105.78 49.8283 106.605L50.1978 108.22L49.3691 108.41L49.0284 106.918C48.9387 106.519 48.7557 106.319 48.4795 106.38C48.2786 106.426 48.1746 106.591 48.1495 106.767C48.1459 106.831 48.1531 106.921 48.171 106.993L48.5369 108.596L47.7047 108.787L47.3531 107.244C47.2742 106.903 47.0985 106.695 46.8222 106.76C46.6034 106.81 46.5137 107.007 46.4922 107.154C46.4815 107.23 46.4922 107.309 46.5102 107.38L46.8761 108.98L46.0474 109.17L45.6205 107.305V107.301Z" fill="#FBBC13"/>
                    <path d="M51.6292 105.971C51.5683 105.626 51.5073 105.339 51.4499 105.092L52.1781 104.963L52.2785 105.328H52.2965C52.3826 105.124 52.587 104.819 53.0569 104.737C53.4193 104.672 53.7313 104.808 53.8999 105.077H53.9107C53.9932 104.909 54.0901 104.772 54.2156 104.672C54.3519 104.561 54.5169 104.482 54.7178 104.442C55.2487 104.349 55.7186 104.65 55.8657 105.486L56.1527 107.115L55.3133 107.262L55.0478 105.755C54.9761 105.354 54.8075 105.145 54.5277 105.192C54.3232 105.228 54.212 105.389 54.1797 105.562C54.1726 105.626 54.1797 105.712 54.1905 105.788L54.4775 107.405L53.6381 107.552L53.3619 105.996C53.3009 105.648 53.1359 105.436 52.8561 105.483C52.6372 105.522 52.5368 105.712 52.5081 105.859C52.4902 105.931 52.5009 106.014 52.5153 106.089L52.7987 107.703L51.9593 107.85L51.6292 105.963V105.971Z" fill="#FBBC13"/>
                    <path d="M59.026 106.024C59.0619 106.293 59.1085 106.541 59.1659 106.695L58.3875 106.806L58.2978 106.537H58.2799C58.1292 106.788 57.8638 106.946 57.5301 106.993C56.967 107.075 56.576 106.713 56.5114 106.268C56.4074 105.544 57.01 105.113 57.9929 104.973V104.937C57.9678 104.787 57.8566 104.586 57.4333 104.647C57.1463 104.686 56.8593 104.826 56.6943 104.966L56.4576 104.432C56.6369 104.295 56.9957 104.102 57.5015 104.026C58.4305 103.897 58.7964 104.403 58.8897 105.059L59.0296 106.028L59.026 106.024ZM57.6736 102.832L58.3014 103.625L57.7561 103.703L57.4297 103.244H57.4189L57.2396 103.775L56.6872 103.854L57.071 102.914L57.6736 102.828V102.832ZM58.1005 105.508C57.6449 105.572 57.3077 105.73 57.3544 106.06C57.3867 106.283 57.5481 106.369 57.7454 106.344C57.9534 106.315 58.1149 106.146 58.1507 105.96C58.1543 105.913 58.1507 105.859 58.1436 105.809L58.1005 105.508ZM58.1794 102.197L58.6888 103L58.2548 103.061L57.5301 102.287L58.1794 102.197Z" fill="#FBBC13"/>
                    <path d="M59.5711 104.704C59.5316 104.356 59.4922 104.066 59.4527 103.811L60.1881 103.732L60.2634 104.105H60.2813C60.3818 103.908 60.6042 103.617 61.0777 103.567C61.4436 103.528 61.7449 103.686 61.8956 103.965H61.9063C61.9996 103.804 62.1072 103.675 62.2363 103.582C62.3798 103.477 62.5448 103.409 62.7529 103.388C63.291 103.33 63.7358 103.664 63.8291 104.503L64.0048 106.15L63.1583 106.243L62.9968 104.722C62.9538 104.317 62.7959 104.098 62.5161 104.127C62.3081 104.148 62.1861 104.299 62.1431 104.471C62.1323 104.536 62.1323 104.622 62.1395 104.697L62.3153 106.333L61.4687 106.426L61.3001 104.855C61.2606 104.507 61.11 104.277 60.8302 104.31C60.6078 104.335 60.493 104.518 60.4571 104.661C60.4356 104.733 60.4392 104.815 60.4463 104.887L60.6221 106.516L59.7755 106.605L59.5711 104.701V104.704Z" fill="#FBBC13"/>
                    <path d="M66.5482 102.394L66.5984 103.151L67.2226 103.108L67.2657 103.75L66.6379 103.793L66.7061 104.808C66.7276 105.149 66.8244 105.296 67.0827 105.278C67.2047 105.267 67.2585 105.26 67.341 105.235L67.3912 105.895C67.2836 105.945 67.0755 105.992 66.8352 106.006C66.5554 106.024 66.3115 105.945 66.1608 105.809C65.9886 105.651 65.8918 105.389 65.8631 104.995L65.7842 103.851L65.4111 103.872L65.368 103.23L65.7411 103.205L65.7052 102.685L66.5446 102.391L66.5482 102.394Z" fill="#FBBC13"/>
                    <path d="M70.2073 105.095C70.218 105.361 70.2431 105.619 70.2826 105.77L69.497 105.806L69.4324 105.526H69.4145C69.2423 105.759 68.9589 105.892 68.6289 105.91C68.0621 105.935 67.7034 105.537 67.6819 105.088C67.6496 104.36 68.2881 103.983 69.2818 103.937V103.904C69.2746 103.746 69.1849 103.538 68.7545 103.56C68.4675 103.574 68.1662 103.682 67.9868 103.807L67.8003 103.251C67.9904 103.133 68.367 102.972 68.88 102.95C69.8163 102.907 70.1319 103.445 70.1642 104.109L70.2073 105.092V105.095ZM68.7509 101.799L69.2854 102.649L68.6899 102.678L67.9473 101.835L68.7509 101.799ZM69.3356 104.482C68.8764 104.503 68.5249 104.629 68.5392 104.963C68.55 105.185 68.7042 105.289 68.8979 105.282C69.1132 105.271 69.289 105.12 69.3356 104.937C69.3463 104.891 69.3499 104.837 69.3463 104.787L69.332 104.482H69.3356Z" fill="#FBBC13"/>
                    <path d="M71.721 102.143C71.7282 102.383 71.556 102.584 71.2618 102.591C70.9856 102.599 70.8027 102.409 70.7955 102.165C70.7883 101.917 70.9677 101.723 71.2511 101.716C71.5309 101.709 71.7102 101.896 71.721 102.139V102.143ZM70.9139 105.759L70.8385 102.947L71.7102 102.925L71.7856 105.734L70.9139 105.755V105.759Z" fill="#FBBC13"/>
                    <path d="M73.6293 103.786C73.6293 103.434 73.6222 103.14 73.6114 102.889H74.3683L74.4077 103.284H74.4257C74.5405 103.101 74.8239 102.832 75.2974 102.835C75.8713 102.835 76.3018 103.226 76.2982 104.055L76.291 105.716L75.4157 105.709L75.4229 104.152C75.4229 103.79 75.3009 103.542 74.9817 103.538C74.7413 103.538 74.5943 103.707 74.5333 103.865C74.5118 103.922 74.5046 104.001 74.5046 104.084L74.4974 105.705H73.6222L73.6329 103.79L73.6293 103.786Z" fill="#FBBC13"/>
                    <path d="M79.3222 105.128C79.3151 105.393 79.3151 105.655 79.3474 105.809L78.5582 105.784L78.5151 105.501H78.4972C78.3071 105.719 78.0129 105.831 77.6829 105.82C77.1161 105.802 76.7897 105.379 76.804 104.93C76.8292 104.202 77.4928 103.876 78.4864 103.908V103.876C78.4936 103.721 78.4183 103.506 77.9878 103.492C77.7008 103.481 77.3923 103.571 77.2058 103.682L77.0623 103.112C77.2596 103.011 77.6506 102.875 78.1636 102.893C79.0998 102.925 79.3761 103.485 79.3545 104.152L79.3222 105.135V105.128ZM77.9125 101.781C77.934 101.989 78.0344 102.136 78.2389 102.143C78.4757 102.154 78.5833 101.989 78.6012 101.806L79.0568 101.82C79.0353 102.304 78.7483 102.627 78.2282 102.609C77.6937 102.591 77.4533 102.229 77.4605 101.77L77.9161 101.781H77.9125ZM78.4972 104.453C78.038 104.435 77.6793 104.536 77.6686 104.869C77.6614 105.095 77.8085 105.206 78.0022 105.214C78.2138 105.221 78.4039 105.085 78.4685 104.905C78.4793 104.859 78.49 104.808 78.49 104.758L78.5008 104.453H78.4972Z" fill="#FBBC13"/>
                    <path d="M80.0864 103.922C80.1079 103.571 80.1151 103.277 80.1151 103.025L80.872 103.072L80.8899 103.463H80.9078C81.0334 103.287 81.3311 103.036 81.801 103.065C82.375 103.097 82.7839 103.51 82.7337 104.335L82.6333 105.992L81.7616 105.942L81.8548 104.385C81.8764 104.023 81.7652 103.768 81.4495 103.75C81.2091 103.739 81.0549 103.894 80.9832 104.051C80.9545 104.109 80.9473 104.188 80.9437 104.267L80.8468 105.884L79.9752 105.831L80.09 103.922H80.0864Z" fill="#FBBC13"/>
                    <path d="M85.9872 105.874C85.9405 106.412 85.7899 106.842 85.4455 107.097C85.1191 107.334 84.6922 107.373 84.2797 107.337C83.9102 107.305 83.53 107.194 83.2896 107.032L83.5228 106.387C83.6914 106.505 83.9819 106.641 84.3155 106.67C84.7281 106.71 85.0617 106.519 85.1083 105.996L85.1227 105.816H85.1119C84.9254 106.032 84.6456 106.136 84.3227 106.11C83.6304 106.049 83.1892 105.443 83.2609 104.643C83.3398 103.739 83.9712 103.216 84.6635 103.28C85.0473 103.312 85.2733 103.503 85.3953 103.75H85.406L85.4634 103.417L86.2203 103.485C86.1916 103.668 86.1594 103.901 86.1235 104.32L85.9836 105.877L85.9872 105.874ZM85.2303 104.543C85.2339 104.493 85.2303 104.435 85.2267 104.381C85.1836 104.145 85.033 103.976 84.7926 103.955C84.4734 103.926 84.1936 104.191 84.1505 104.697C84.1111 105.117 84.2904 105.461 84.6491 105.493C84.8787 105.511 85.0689 105.382 85.1442 105.185C85.1729 105.117 85.1872 105.027 85.1944 104.955L85.2303 104.539V104.543Z" fill="#FBBC13"/>
                    <path d="M88.7709 103.775L88.9826 105.117C89.022 105.364 89.04 105.59 89.0543 105.816H89.0723C89.1476 105.597 89.2193 105.393 89.3126 105.16L89.8363 103.912L90.7475 104.03L89.3557 106.684L88.4876 106.573L87.8275 103.653L88.7709 103.775Z" fill="#FBBC13"/>
                    <path d="M93.1436 106.548C93.1041 106.81 93.0754 107.068 93.0862 107.226L92.3078 107.108L92.297 106.821H92.2791C92.0638 107.011 91.7625 107.086 91.4325 107.036C90.8729 106.95 90.5967 106.491 90.6648 106.046C90.776 105.325 91.4755 105.085 92.4584 105.235L92.4656 105.203C92.4871 105.049 92.4405 104.826 92.0136 104.762C91.7302 104.719 91.4146 104.769 91.2137 104.855L91.1419 104.274C91.35 104.195 91.7553 104.112 92.2575 104.188C93.183 104.331 93.3911 104.92 93.2907 105.58L93.1436 106.552V106.548ZM92.4046 105.78C91.9491 105.709 91.5796 105.763 91.5329 106.093C91.5007 106.315 91.6298 106.444 91.8235 106.473C92.0351 106.505 92.2396 106.39 92.3221 106.225C92.3401 106.182 92.3544 106.132 92.3616 106.078L92.4082 105.78H92.4046ZM92.3616 103.033L92.7203 103.969L92.1284 103.879L91.5688 102.907L92.3652 103.029L92.3616 103.033Z" fill="#FBBC13"/>
                    <path d="M95.1955 105.648C95.2601 105.303 95.3067 105.013 95.3426 104.762L96.0887 104.905L96.0564 105.296H96.0744C96.2215 105.138 96.5479 104.93 97.0106 105.016C97.5774 105.128 97.9254 105.583 97.7711 106.397L97.4554 108.03L96.5981 107.868L96.8923 106.336C96.9604 105.981 96.8815 105.716 96.573 105.655C96.3362 105.612 96.1641 105.748 96.0708 105.892C96.0385 105.942 96.017 106.021 96.0026 106.1L95.6977 107.692L94.8404 107.527L95.1991 105.648H95.1955Z" fill="#FBBC13"/>
                    <path d="M98.9977 104.181L99.8515 104.371L99.5035 105.942H99.5143C99.6327 105.841 99.7654 105.77 99.9125 105.734C100.06 105.694 100.225 105.691 100.379 105.727C100.924 105.849 101.254 106.315 101.071 107.147L100.716 108.743L99.8622 108.557L100.196 107.047C100.275 106.688 100.207 106.412 99.8874 106.344C99.6614 106.293 99.4892 106.408 99.3923 106.552C99.36 106.598 99.3349 106.67 99.3242 106.731L98.9654 108.356L98.1117 108.169L98.9941 104.184L98.9977 104.181Z" fill="#FBBC13"/>
                    <path d="M103.812 108.812C103.747 109.07 103.697 109.321 103.694 109.479L102.93 109.289L102.947 109.002L102.93 108.995C102.696 109.17 102.388 109.213 102.065 109.134C101.513 108.998 101.283 108.51 101.391 108.076C101.566 107.37 102.287 107.194 103.252 107.434L103.26 107.402C103.299 107.251 103.27 107.025 102.854 106.921C102.574 106.853 102.255 106.871 102.047 106.939L102.029 106.354C102.244 106.297 102.653 106.247 103.152 106.372C104.063 106.598 104.21 107.208 104.049 107.854L103.812 108.808V108.812ZM103.148 107.976C102.7 107.865 102.33 107.883 102.248 108.205C102.194 108.424 102.313 108.564 102.503 108.611C102.711 108.661 102.922 108.568 103.019 108.41C103.041 108.367 103.059 108.32 103.073 108.27L103.148 107.976ZM103.755 105.336L104.095 106.322L103.543 106.182L103.378 105.626H103.367L102.969 106.039L102.417 105.899L103.181 105.189L103.755 105.332V105.336Z" fill="#FBBC13"/>
                    <path d="M104.809 107.793C104.902 107.456 104.97 107.169 105.028 106.921L105.76 107.126L105.691 107.513H105.709C105.871 107.37 106.215 107.187 106.667 107.312C107.223 107.466 107.532 107.954 107.313 108.751L106.865 110.35L106.022 110.114L106.441 108.614C106.538 108.266 106.484 107.994 106.179 107.908C105.946 107.843 105.763 107.965 105.659 108.101C105.623 108.152 105.595 108.227 105.573 108.302L105.139 109.863L104.296 109.626L104.813 107.782L104.809 107.793Z" fill="#FBBC13"/>
                    <path d="M110.649 111.448C110.477 111.473 110.183 111.441 109.863 111.341C108.995 111.064 108.612 110.358 108.877 109.522C109.125 108.74 109.863 108.27 110.864 108.582C111.083 108.65 111.313 108.769 111.467 108.887L111.14 109.464C111.058 109.393 110.922 109.307 110.699 109.235C110.262 109.095 109.878 109.317 109.745 109.759C109.591 110.246 109.838 110.612 110.244 110.742C110.441 110.802 110.602 110.82 110.746 110.806L110.653 111.448H110.649Z" fill="#FBBC13"/>
                    <path d="M113.522 111.785C113.436 112.036 113.364 112.284 113.346 112.442L112.6 112.187L112.643 111.907L112.625 111.9C112.378 112.054 112.069 112.076 111.75 111.965C111.212 111.782 111.026 111.283 111.169 110.856C111.406 110.168 112.138 110.053 113.077 110.372L113.088 110.34C113.138 110.193 113.131 109.963 112.722 109.827C112.45 109.734 112.13 109.726 111.919 109.777L111.947 109.192C112.166 109.152 112.579 109.138 113.063 109.307C113.949 109.612 114.05 110.229 113.831 110.856L113.511 111.785H113.522ZM112.934 110.899C112.496 110.752 112.127 110.742 112.019 111.054C111.947 111.269 112.051 111.419 112.238 111.48C112.439 111.549 112.658 111.473 112.772 111.323C112.801 111.283 112.819 111.237 112.841 111.186L112.937 110.896L112.934 110.899ZM114.354 108.525L113.407 109.124L112.841 108.93L113.594 108.266L114.354 108.525Z" fill="#FBBC13"/>
                    <path d="M115.94 113.314C115.768 113.331 115.474 113.285 115.158 113.17C114.304 112.854 113.953 112.133 114.258 111.305C114.541 110.533 115.302 110.096 116.284 110.458C116.5 110.537 116.722 110.663 116.873 110.788L116.518 111.351C116.439 111.272 116.306 111.183 116.091 111.1C115.657 110.942 115.266 111.147 115.111 111.577C114.932 112.058 115.162 112.438 115.56 112.582C115.754 112.653 115.919 112.679 116.062 112.668L115.937 113.306L115.94 113.314Z" fill="#FBBC13"/>
                    <path d="M117.845 109.748L118.659 110.067L118.067 111.567H118.078C118.211 111.488 118.354 111.437 118.509 111.427C118.656 111.409 118.821 111.434 118.971 111.491C119.492 111.696 119.746 112.209 119.431 113.001L118.828 114.526L118.014 114.207L118.58 112.768C118.717 112.427 118.692 112.144 118.387 112.026C118.171 111.943 117.985 112.026 117.867 112.155C117.827 112.194 117.795 112.262 117.77 112.32L117.156 113.873L116.342 113.55L117.841 109.755L117.845 109.748Z" fill="#FBBC13"/>
                    <path d="M38.4211 70.2387V77.3771H37.1333V70.2387H35.5227V69.0477H40.0426V70.2387H38.4211Z" fill="#646363"/>
                    <path d="M43.913 77.3807L42.8153 73.9586H42.0405V77.3807H40.7527V69.0513H42.7651C43.5435 69.0513 44.1426 69.2558 44.5479 69.6575C44.9569 70.0629 45.1613 70.6548 45.1613 71.4368C45.1613 71.8888 45.0788 72.3085 44.9102 72.6995C44.7452 73.0905 44.4547 73.3954 44.0385 73.6142L45.2582 77.3807H43.9094H43.913ZM43.8305 71.5085C43.8305 71.3256 43.809 71.1498 43.7659 70.9776C43.7229 70.8054 43.6404 70.6512 43.5184 70.5149C43.3928 70.3786 43.2386 70.2997 43.0557 70.2781C42.8727 70.253 42.6933 70.2423 42.5176 70.2423H42.0441V72.7712H42.5176C42.9947 72.7712 43.3319 72.6851 43.5292 72.5094C43.7265 72.3336 43.8269 72 43.8269 71.5085H43.8305Z" fill="#646363"/>
                    <path d="M50.6317 69.6898V74.6975C50.6317 75.0634 50.6101 75.4221 50.5635 75.7773C50.5205 76.1324 50.3841 76.4588 50.1617 76.7602C49.9609 77.0256 49.7026 77.2157 49.3905 77.3305C49.0784 77.4489 48.7627 77.5063 48.4363 77.5063C48.0955 77.5063 47.7763 77.4489 47.4821 77.3305C47.188 77.2157 46.9297 77.0256 46.7109 76.7602C46.4885 76.4696 46.3522 76.136 46.3055 75.7737C46.2589 75.4078 46.2374 75.0491 46.2374 74.7011V69.0549H47.5216V74.9092C47.5216 75.0778 47.5287 75.2428 47.5503 75.4114C47.5682 75.5764 47.6077 75.7271 47.6686 75.8598C47.7296 75.9961 47.8193 76.1001 47.9449 76.179C48.0668 76.258 48.2318 76.2974 48.4399 76.2974C48.6479 76.2974 48.8094 76.258 48.9313 76.179C49.0533 76.1001 49.143 75.9925 49.2075 75.8598C49.2685 75.7235 49.308 75.5764 49.3259 75.4114C49.3439 75.2428 49.351 75.0778 49.351 74.9092V69.0549H50.4236L50.4918 68.8468H50.0577V67.8173H50.9904V68.8468L50.6352 69.6934L50.6317 69.6898Z" fill="#646363"/>
                    <path d="M55.9156 69.7759C56.1165 70.0414 56.2457 70.3427 56.2923 70.6727C56.3389 71.0135 56.364 71.3543 56.364 71.6951V74.7334C56.364 75.0921 56.3389 75.4365 56.2887 75.7629C56.2385 76.0929 56.1058 76.405 55.8905 76.6992C55.6825 76.9933 55.417 77.1978 55.0978 77.3198C54.7749 77.4417 54.4413 77.4991 54.0898 77.4991C53.7382 77.4991 53.4082 77.4381 53.0889 77.3198C52.7697 77.2014 52.5042 76.9933 52.289 76.6992C52.0738 76.4194 51.941 76.1073 51.8908 75.7629C51.8406 75.4185 51.8155 75.0742 51.8155 74.7334V71.6951C51.8155 71.3471 51.8442 71.0063 51.898 70.6727C51.9518 70.3391 52.0845 70.027 52.2926 69.7365C52.5006 69.4459 52.7625 69.2378 53.0853 69.1123C53.4046 68.9903 53.7418 68.9258 54.0898 68.9258C54.4377 68.9258 54.7821 68.9867 55.0978 69.1087C55.2879 69.1876 55.4601 69.2952 55.6143 69.4315L55.8044 68.8397H55.3704V67.8101H56.303V68.8397L55.912 69.7759H55.9156ZM53.7275 68.3841L52.8307 67.2721H54.0431L54.6027 68.3841H53.7239H53.7275ZM55.0798 71.7202C55.0798 71.53 55.0762 71.3363 55.0691 71.139C55.0619 70.9453 55.0117 70.7588 54.9184 70.5866C54.8359 70.436 54.7211 70.3212 54.5704 70.2458C54.4198 70.1705 54.2619 70.1346 54.0933 70.1346C53.8494 70.1346 53.6629 70.1849 53.5302 70.2781C53.3974 70.375 53.3006 70.4969 53.2396 70.6512C53.1786 70.8054 53.1392 70.9776 53.1284 71.1642C53.1176 71.3507 53.1105 71.5372 53.1105 71.7202V74.7083C53.1105 74.8912 53.1176 75.0742 53.1284 75.2643C53.1392 75.4508 53.1786 75.623 53.2396 75.7773C53.3042 75.9315 53.401 76.0571 53.5302 76.1539C53.6629 76.2508 53.8494 76.2974 54.0933 76.2974C54.3373 76.2974 54.5202 76.2508 54.6529 76.1539C54.7857 76.0571 54.8825 75.9351 54.9435 75.7773C55.0045 75.623 55.044 75.4508 55.0547 75.2643C55.0691 75.0778 55.0762 74.8948 55.0762 74.7083V71.7202H55.0798Z" fill="#646363"/>
                    <path d="M60.9988 77.3807L58.7676 71.8386V77.3807H57.5408V69.0513H58.8393L60.9235 74.2384V69.0513H62.1467V77.3807H60.9952H60.9988Z" fill="#646363"/>
                    <path d="M67.2188 77.3807L66.9821 76.6669C66.774 76.9503 66.5516 77.1619 66.3149 77.2982C66.0781 77.4345 65.7804 77.5027 65.4217 77.5027C65.0629 77.5027 64.7222 77.4202 64.4137 77.2623C64.1088 77.1009 63.872 76.857 63.6962 76.5341C63.5133 76.1898 63.4057 75.831 63.377 75.4436C63.3483 75.0598 63.3339 74.6796 63.3339 74.3065V72.0071C63.3339 71.7991 63.3339 71.5946 63.3411 71.3973C63.3411 71.1964 63.359 71.0027 63.3913 70.8054C63.42 70.6117 63.4667 70.418 63.5348 70.2351C63.603 70.0485 63.6962 69.8727 63.8254 69.697C64.0334 69.4244 64.2953 69.2306 64.611 69.1087C64.9266 68.9903 65.2531 68.9293 65.5867 68.9293C65.9777 68.9293 66.3149 68.9975 66.6018 69.1266C66.8888 69.2593 67.1256 69.4423 67.3085 69.6683C67.4915 69.8979 67.6242 70.1705 67.7139 70.4862C67.8 70.8018 67.843 71.1426 67.843 71.5085V71.756H66.5588C66.5588 71.5802 66.548 71.4009 66.5337 71.2144C66.5158 71.0278 66.4763 70.852 66.4081 70.6906C66.34 70.5256 66.2431 70.3929 66.114 70.2924C65.9848 70.1884 65.8127 70.1346 65.5867 70.1346C65.3607 70.1346 65.1706 70.1848 65.0414 70.2924C64.9123 70.3965 64.8154 70.5256 64.7544 70.687C64.6935 70.8449 64.654 71.0206 64.6432 71.2108C64.6325 71.4009 64.6253 71.5838 64.6253 71.7596V74.3101C64.6253 74.493 64.6325 74.6975 64.6361 74.9307C64.6432 75.1602 64.6791 75.3755 64.7437 75.5764C64.8083 75.7808 64.9051 75.9494 65.045 76.0893C65.1813 76.2292 65.3786 76.2974 65.6405 76.2974C65.9023 76.2974 66.0925 76.2292 66.2252 76.0893C66.3579 75.9494 66.4512 75.7808 66.505 75.5764C66.5552 75.3755 66.5875 75.1567 66.5911 74.9307C66.5983 74.7011 66.6018 74.493 66.6018 74.3101H65.5365V73.2483H67.8825V77.3843H67.2224L67.2188 77.3807Z" fill="#646363"/>
                    <path d="M76.9688 77.3807V71.2574L75.5052 77.3807H74.7913L73.3601 71.2574V77.3807H72.1332V69.0513H74.0201L75.1716 74.285L76.3302 69.0513H78.192V77.3807H76.9723H76.9688Z" fill="#646363"/>
                    <path d="M82.8842 77.3807L82.5363 75.5692H80.7498L80.427 77.3807H79.1643L80.7606 69.0513H82.5219L84.2043 77.3807H82.8806H82.8842ZM82.0376 68.3877L81.643 67.968L81.252 68.3877H80.201L80.9902 67.2757H82.2995L83.0743 68.3877H82.0376ZM81.374 67.0819L80.4772 65.9735H81.6825L82.26 67.0819H81.3704H81.374ZM81.6251 70.6512L80.9687 74.3819H82.3138L81.6251 70.6512Z" fill="#646363"/>
                    <path d="M89.9258 77.3807V71.2574L88.4622 77.3807H87.7484L86.3171 71.2574V77.3807H85.0903V69.0513H86.9735L88.125 74.285L89.2837 69.0513H91.1454V77.3807H89.9258Z" fill="#646363"/>
                    <path d="M98.9977 77.3807L96.7664 71.8386V77.3807H95.5432V69.0513H96.8418L98.9259 74.2384V69.0513H100.153V77.3807H99.0013H98.9977Z" fill="#646363"/>
                    <path d="M105.878 74.7334C105.878 75.0921 105.853 75.4365 105.806 75.7629C105.756 76.0929 105.627 76.405 105.412 76.6992C105.2 76.9933 104.935 77.1978 104.615 77.3198C104.296 77.4417 103.959 77.4991 103.611 77.4991C103.263 77.4991 102.926 77.4381 102.61 77.3198C102.291 77.2014 102.025 76.9933 101.81 76.6992C101.595 76.4194 101.462 76.1073 101.412 75.7629C101.362 75.4185 101.333 75.0742 101.333 74.7334V71.6951C101.333 71.3471 101.362 71.0063 101.416 70.6727C101.469 70.3391 101.602 70.027 101.81 69.7365C102.018 69.4459 102.28 69.2378 102.603 69.1123C102.922 68.9903 103.259 68.9258 103.611 68.9258C103.962 68.9258 104.303 68.9867 104.615 69.1123C104.924 69.2378 105.189 69.4459 105.412 69.7365C105.627 70.0163 105.76 70.3283 105.806 70.6727C105.857 71.0135 105.878 71.3543 105.878 71.6951V74.7334ZM104.597 71.7202C104.597 71.53 104.594 71.3363 104.583 71.139C104.572 70.9453 104.522 70.7588 104.432 70.5866C104.35 70.436 104.232 70.3212 104.081 70.2458C103.934 70.1705 103.776 70.1346 103.611 70.1346C103.367 70.1346 103.177 70.1849 103.044 70.2781C102.911 70.375 102.815 70.4969 102.754 70.6512C102.689 70.8054 102.653 70.9776 102.642 71.1642C102.628 71.3507 102.624 71.5372 102.624 71.7202V74.7083C102.624 74.8912 102.632 75.0742 102.642 75.2643C102.653 75.4508 102.689 75.623 102.754 75.7773C102.815 75.9315 102.915 76.0571 103.044 76.1539C103.177 76.2508 103.363 76.2974 103.611 76.2974C103.858 76.2974 104.038 76.2508 104.171 76.1539C104.307 76.0571 104.4 75.9351 104.461 75.7773C104.522 75.623 104.562 75.4508 104.576 75.2643C104.59 75.0778 104.597 74.8948 104.597 74.7083V71.7202Z" fill="#646363"/>
                    <path d="M110.516 77.3807L108.285 71.8386V77.3807H107.062V69.0513H108.361L110.448 74.2384V69.0513H111.671V77.3807H110.52H110.516Z" fill="#646363"/>
                    </g>
                    <defs>
                    <filter id="filter0_d_305_17718" x="0" y="0" width="152" height="156.5" filterUnits="userSpaceOnUse" color-interpolation-filters="sRGB">
                    <feFlood flood-opacity="0" result="BackgroundImageFix"/>
                    <feColorMatrix in="SourceAlpha" type="matrix" values="0 0 0 0 0 0 0 0 0 0 0 0 0 0 0 0 0 0 127 0" result="hardAlpha"/>
                    <feOffset dy="4"/>
                    <feGaussianBlur stdDeviation="2"/>
                    <feComposite in2="hardAlpha" operator="out"/>
                    <feColorMatrix type="matrix" values="0 0 0 0 0 0 0 0 0 0 0 0 0 0 0 0 0 0 0.25 0"/>
                    <feBlend mode="normal" in2="BackgroundImageFix" result="effect1_dropShadow_305_17718"/>
                    <feBlend mode="normal" in="SourceGraphic" in2="effect1_dropShadow_305_17718" result="shape"/>
                    </filter>
                    </defs>
                </svg>