<svg width="81" height="80" viewBox="0 0 81 80" fill="none" xmlns="http://www.w3.org/2000/svg">
<path d="M31.539 15C35.388 8.33334 45.0105 8.33333 48.8595 15L66.18 45C70.029 51.6667 65.2177 60 57.5197 60H22.8787C15.1807 60 10.3695 51.6667 14.2185 45L31.539 15Z" fill="url(#paint0_linear_964_4402)"/>
<mask id="mask0_964_4402" style="mask-type:alpha" maskUnits="userSpaceOnUse" x="12" y="10" width="56" height="50">
<path d="M31.539 15C35.388 8.33334 45.0105 8.33333 48.8595 15L66.18 45C70.029 51.6667 65.2177 60 57.5197 60H22.8787C15.1807 60 10.3695 51.6667 14.2185 45L31.539 15Z" fill="url(#paint1_linear_964_4402)"/>
</mask>
<g mask="url(#mask0_964_4402)">
<path d="M35.2238 2.85167C38.3044 1.08541 42.0908 1.08541 45.1714 2.85167L74.6804 19.7701L42.6845 38.1144C41.1442 38.9975 39.251 38.9975 37.7107 38.1144L5.71484 19.7701L35.2238 2.85167Z" fill="url(#paint2_linear_964_4402)" fill-opacity="0.7"/>
<path d="M40.1976 40.3672V58.3488V79.9074L5.71484 60.1373L40.1976 40.3672Z" fill="url(#paint3_linear_964_4402)"/>
</g>
<path opacity="0.8" d="M35.1173 11.0726C38.253 9.22215 42.1467 9.22225 45.2824 11.0729L63.327 21.7228C66.3743 23.5213 68.2443 26.7963 68.2443 30.3348V50.4115C68.2443 53.9499 66.3743 57.2249 63.327 59.0234L45.2824 69.6734C42.1467 71.524 38.253 71.5241 35.1173 69.6736L17.07 59.0234C14.0225 57.2249 12.1523 53.9498 12.1523 50.4112L12.1523 30.3351C12.1523 26.7965 14.0225 23.5213 17.07 21.7229L35.1173 11.0726Z" fill="url(#paint4_linear_964_4402)"/>
<path d="M22.4947 57L34.5907 21.48H44.4307L56.5267 57H48.7507L46.4947 50.04H32.5747L30.2707 57H22.4947ZM34.6387 43.608H44.4307L39.5347 28.776L34.6387 43.608Z" fill="url(#paint5_linear_964_4402)"/>
<defs>
<linearGradient id="paint0_linear_964_4402" x1="40.1992" y1="17.6147" x2="40.1992" y2="80" gradientUnits="userSpaceOnUse">
<stop stop-color="#FF612F" stop-opacity="0.49"/>
<stop offset="1" stop-color="#C23434"/>
</linearGradient>
<linearGradient id="paint1_linear_964_4402" x1="40.1992" y1="17.6147" x2="40.1992" y2="80" gradientUnits="userSpaceOnUse">
<stop stop-color="#5013FA" stop-opacity="0.49"/>
<stop offset="1" stop-color="#712BCB"/>
</linearGradient>
<linearGradient id="paint2_linear_964_4402" x1="37.9959" y1="37.4312" x2="37.9959" y2="2.20994e-07" gradientUnits="userSpaceOnUse">
<stop stop-color="#FA1313" stop-opacity="0.42"/>
<stop offset="1" stop-color="#FFD7B3" stop-opacity="0.79"/>
</linearGradient>
<linearGradient id="paint3_linear_964_4402" x1="22.95" y1="68.991" x2="44.2344" y2="54.3121" gradientUnits="userSpaceOnUse">
<stop stop-color="#FA1313" stop-opacity="0.42"/>
<stop offset="1" stop-color="#FFE589" stop-opacity="0.2"/>
</linearGradient>
<linearGradient id="paint4_linear_964_4402" x1="40.1983" y1="5.18387" x2="40.1983" y2="70.4712" gradientUnits="userSpaceOnUse">
<stop stop-color="#E70000" stop-opacity="0.33"/>
<stop offset="1" stop-color="#FFBE72" stop-opacity="0.8"/>
</linearGradient>
<linearGradient id="paint5_linear_964_4402" x1="30.3906" y1="20" x2="30.3906" y2="67.7649" gradientUnits="userSpaceOnUse">
<stop stop-color="white"/>
<stop offset="1" stop-color="white" stop-opacity="0.62"/>
</linearGradient>
</defs>
</svg>
