<svg width="80" height="80" viewBox="0 0 80 80" fill="none" xmlns="http://www.w3.org/2000/svg">
<path d="M31.3397 15C35.1887 8.33334 44.8113 8.33333 48.6603 15L65.9808 45C69.8298 51.6667 65.0185 60 57.3205 60H22.6795C14.9815 60 10.1702 51.6667 14.0192 45L31.3397 15Z" fill="url(#paint0_linear_964_4376)"/>
<mask id="mask0_964_4376" style="mask-type:alpha" maskUnits="userSpaceOnUse" x="12" y="10" width="56" height="50">
<path d="M31.3397 15C35.1887 8.33334 44.8113 8.33333 48.6603 15L65.9808 45C69.8298 51.6667 65.0185 60 57.3205 60H22.6795C14.9815 60 10.1702 51.6667 14.0192 45L31.3397 15Z" fill="url(#paint1_linear_964_4376)"/>
</mask>
<g mask="url(#mask0_964_4376)">
<path d="M35.0245 2.85167C38.1052 1.08541 41.8915 1.08541 44.9722 2.85167L74.4811 19.7701L42.4853 38.1144C40.945 38.9975 39.0518 38.9975 37.5115 38.1144L5.51562 19.7701L35.0245 2.85167Z" fill="url(#paint2_linear_964_4376)" fill-opacity="0.7"/>
<path d="M39.9984 40.3672V58.3488V79.9074L5.51562 60.1373L39.9984 40.3672Z" fill="url(#paint3_linear_964_4376)"/>
</g>
<path opacity="0.8" d="M34.9181 11.0726C38.0538 9.22215 41.9475 9.22225 45.0831 11.0729L63.1278 21.7228C66.1751 23.5213 68.0451 26.7963 68.0451 30.3348V50.4115C68.0451 53.9499 66.1751 57.2249 63.1278 59.0234L45.0831 69.6734C41.9475 71.524 38.0538 71.5241 34.9181 69.6736L16.8708 59.0234C13.8233 57.2249 11.9531 53.9498 11.9531 50.4112L11.9531 30.3351C11.9531 26.7965 13.8233 23.5213 16.8708 21.7229L34.9181 11.0726Z" fill="url(#paint4_linear_964_4376)"/>
<path d="M28.3656 57V21.48H52.8456V27.912H35.7576V35.88H50.6376V42.072H35.7576V50.568H53.0856V57H28.3656Z" fill="url(#paint5_linear_964_4376)"/>
<defs>
<linearGradient id="paint0_linear_964_4376" x1="40" y1="17.6147" x2="40" y2="80" gradientUnits="userSpaceOnUse">
<stop stop-color="#FF612F" stop-opacity="0.49"/>
<stop offset="1" stop-color="#C23434"/>
</linearGradient>
<linearGradient id="paint1_linear_964_4376" x1="40" y1="17.6147" x2="40" y2="80" gradientUnits="userSpaceOnUse">
<stop stop-color="#5013FA" stop-opacity="0.49"/>
<stop offset="1" stop-color="#712BCB"/>
</linearGradient>
<linearGradient id="paint2_linear_964_4376" x1="37.7967" y1="37.4312" x2="37.7967" y2="2.20994e-07" gradientUnits="userSpaceOnUse">
<stop stop-color="#FA1313" stop-opacity="0.42"/>
<stop offset="1" stop-color="#FFD7B3" stop-opacity="0.79"/>
</linearGradient>
<linearGradient id="paint3_linear_964_4376" x1="22.7508" y1="68.991" x2="44.0352" y2="54.3121" gradientUnits="userSpaceOnUse">
<stop stop-color="#FA1313" stop-opacity="0.42"/>
<stop offset="1" stop-color="#FFE589" stop-opacity="0.2"/>
</linearGradient>
<linearGradient id="paint4_linear_964_4376" x1="39.9991" y1="5.18387" x2="39.9991" y2="70.4712" gradientUnits="userSpaceOnUse">
<stop stop-color="#E70000" stop-opacity="0.33"/>
<stop offset="1" stop-color="#FFBE72" stop-opacity="0.8"/>
</linearGradient>
<linearGradient id="paint5_linear_964_4376" x1="31.3906" y1="20" x2="31.3906" y2="67.7649" gradientUnits="userSpaceOnUse">
<stop stop-color="white"/>
<stop offset="1" stop-color="white" stop-opacity="0.62"/>
</linearGradient>
</defs>
</svg>
