<svg width="81" height="80" viewBox="0 0 81 80" fill="none" xmlns="http://www.w3.org/2000/svg">
<path d="M32.1395 15C35.9885 8.33334 45.6111 8.33333 49.4601 15L66.7806 45C70.6296 51.6667 65.8183 60 58.1203 60H23.4793C15.7813 60 10.97 51.6667 14.819 45L32.1395 15Z" fill="url(#paint0_linear_964_4358)"/>
<mask id="mask0_964_4358" style="mask-type:alpha" maskUnits="userSpaceOnUse" x="13" y="10" width="56" height="50">
<path d="M32.1395 15C35.9885 8.33334 45.6111 8.33333 49.4601 15L66.7806 45C70.6296 51.6667 65.8183 60 58.1203 60H23.4793C15.7813 60 10.97 51.6667 14.819 45L32.1395 15Z" fill="url(#paint1_linear_964_4358)"/>
</mask>
<g mask="url(#mask0_964_4358)">
<path d="M35.8243 2.85167C38.905 1.08541 42.6913 1.08541 45.772 2.85167L75.2809 19.7701L43.2851 38.1144C41.7448 38.9975 39.8516 38.9975 38.3113 38.1144L6.31543 19.7701L35.8243 2.85167Z" fill="url(#paint2_linear_964_4358)" fill-opacity="0.7"/>
<path d="M40.7982 40.3672V58.3488V79.9074L6.31543 60.1373L40.7982 40.3672Z" fill="url(#paint3_linear_964_4358)"/>
</g>
<path opacity="0.8" d="M35.7179 11.0726C38.8536 9.22215 42.7473 9.22225 45.8829 11.0729L63.9276 21.7228C66.9749 23.5213 68.8449 26.7963 68.8449 30.3348V50.4115C68.8449 53.9499 66.9749 57.2249 63.9276 59.0234L45.8829 69.6734C42.7473 71.524 38.8536 71.5241 35.7179 69.6736L17.6706 59.0234C14.6231 57.2249 12.7529 53.9498 12.7529 50.4112L12.7529 30.3351C12.7529 26.7965 14.6231 23.5213 17.6706 21.7229L35.7179 11.0726Z" fill="url(#paint4_linear_964_4358)"/>
<path d="M37.8149 57V27.912H26.9189V21.48H56.1029V27.912H45.2069V57H37.8149Z" fill="url(#paint5_linear_964_4358)"/>
<defs>
<linearGradient id="paint0_linear_964_4358" x1="40.7998" y1="17.6147" x2="40.7998" y2="80" gradientUnits="userSpaceOnUse">
<stop stop-color="#FF612F" stop-opacity="0.49"/>
<stop offset="1" stop-color="#C23434"/>
</linearGradient>
<linearGradient id="paint1_linear_964_4358" x1="40.7998" y1="17.6147" x2="40.7998" y2="80" gradientUnits="userSpaceOnUse">
<stop stop-color="#5013FA" stop-opacity="0.49"/>
<stop offset="1" stop-color="#712BCB"/>
</linearGradient>
<linearGradient id="paint2_linear_964_4358" x1="38.5965" y1="37.4312" x2="38.5965" y2="2.20994e-07" gradientUnits="userSpaceOnUse">
<stop stop-color="#FA1313" stop-opacity="0.42"/>
<stop offset="1" stop-color="#FFD7B3" stop-opacity="0.79"/>
</linearGradient>
<linearGradient id="paint3_linear_964_4358" x1="23.5506" y1="68.991" x2="44.835" y2="54.3121" gradientUnits="userSpaceOnUse">
<stop stop-color="#FA1313" stop-opacity="0.42"/>
<stop offset="1" stop-color="#FFE589" stop-opacity="0.2"/>
</linearGradient>
<linearGradient id="paint4_linear_964_4358" x1="40.7989" y1="5.18387" x2="40.7989" y2="70.4712" gradientUnits="userSpaceOnUse">
<stop stop-color="#E70000" stop-opacity="0.33"/>
<stop offset="1" stop-color="#FFBE72" stop-opacity="0.8"/>
</linearGradient>
<linearGradient id="paint5_linear_964_4358" x1="32.3906" y1="20" x2="32.3906" y2="67.7649" gradientUnits="userSpaceOnUse">
<stop stop-color="white"/>
<stop offset="1" stop-color="white" stop-opacity="0.62"/>
</linearGradient>
</defs>
</svg>
