<svg width="32" height="32" viewBox="0 0 32 32" fill="none" xmlns="http://www.w3.org/2000/svg">
<g clip-path="url(#clip0_544_5575)">
<path d="M9.49689 17.9096C9.94081 17.4004 9.57919 16.6053 8.9036 16.6053H6.88087C6.8677 16.4051 6.86033 16.2034 6.86033 16C6.86033 10.9603 10.9604 6.8603 16 6.8603C18.4219 6.8603 20.6264 7.80747 22.2635 9.35043L25.1158 6.01367C22.6189 3.72961 19.4058 2.47852 16 2.47852C12.3883 2.47852 8.99277 3.88503 6.43888 6.43886C3.88506 8.99274 2.47855 12.3883 2.47855 16C2.47855 16.2025 2.4836 16.4042 2.49241 16.6052H0.788653C0.113058 16.6052 -0.248625 17.4003 0.195361 17.9095L4.0388 22.3182L4.84609 23.2442L7.74455 19.9195L9.49689 17.9096Z" fill="black"/>
<path d="M31.8047 15.3376L28.938 12.0493L27.1539 10.0029L24.6067 12.9247L22.5032 15.3376C22.0593 15.8468 22.4209 16.6419 23.0965 16.6419H25.1168C24.7863 21.3833 20.8239 25.1398 16 25.1398C13.8943 25.1398 11.9529 24.4237 10.4058 23.2226L7.55338 26.5596C9.94297 28.4786 12.8911 29.5216 16.0001 29.5216C19.6118 29.5216 23.0073 28.1152 25.5612 25.5613C27.9632 23.1593 29.3499 20.0127 29.5063 16.642H31.2114C31.887 16.6419 32.2486 15.8468 31.8047 15.3376V15.3376Z" fill="black"/>
</g>
<defs>
<clipPath id="clip0_544_5575">
<rect width="32" height="32" fill="white"/>
</clipPath>
</defs>
</svg>
