<svg width="72" height="72" viewBox="0 0 72 72" fill="none" xmlns="http://www.w3.org/2000/svg">
<path d="M33.2728 58.5818L34.0364 53.0182C32.291 52.9091 30.6546 52.5818 29.0182 51.9272L28.1455 58.2545V59.1272L29.5637 66.3272C29.7819 67.7454 31.2001 68.6182 32.5091 68.2909C33.9273 67.9636 34.8001 66.6545 34.4728 65.3454L33.2728 58.5818Z" fill="#80B672"/>
<path d="M39.8182 58.0363L40.6909 51.9272C38.9455 52.5818 37.2 53.0182 35.3455 53.0182L34.6909 57.7091V58.5818L36.1091 65.7818C36.3273 67.0909 37.6364 68.0727 39.0546 67.7454C40.4727 67.5272 41.3455 66.1091 41.0182 64.8L39.8182 58.0363Z" fill="#80B672"/>
<path d="M58.3636 12.8728C60.9544 12.8728 63.0545 10.7726 63.0545 8.18188C63.0545 5.59116 60.9544 3.49097 58.3636 3.49097C55.7729 3.49097 53.6727 5.59116 53.6727 8.18188C53.6727 10.7726 55.7729 12.8728 58.3636 12.8728Z" fill="#80B672"/>
<path d="M14.0727 19.5273C16.6635 19.5273 18.7637 17.4271 18.7637 14.8364C18.7637 12.2457 16.6635 10.1455 14.0727 10.1455C11.482 10.1455 9.38184 12.2457 9.38184 14.8364C9.38184 17.4271 11.482 19.5273 14.0727 19.5273Z" fill="#80B672"/>
<path d="M34.8 28.3637C37.2 28.3637 39.2727 26.4 39.2727 23.8909C39.2727 21.3818 37.3091 19.4182 34.8 19.4182C32.2909 19.4182 30.3273 21.3818 30.3273 23.8909C30.3273 26.4 32.4 28.3637 34.8 28.3637Z" fill="#80B672"/>
<path d="M70.691 25.4182C66.2183 17.7818 66.5455 17.7818 65.7819 17.3454C61.091 13.4182 56.0728 12.7636 51.2728 15.9272L50.9455 16.1454C50.7274 16.2545 50.8364 16.2545 47.4546 20.0727L44.8364 18C43.9637 17.3454 42.6546 17.4545 42.0001 18.3272C41.6728 18.6545 41.5637 19.2 41.5637 19.6363C41.891 19.3091 42.4365 19.2 42.9819 19.0909C44.4001 18.9818 45.6001 20.0727 45.7092 21.4909C45.7092 22.2545 45.7092 23.0182 45.6001 23.7818L46.4728 24.4363C47.3455 25.0909 48.5455 24.9818 49.3092 24.2182L50.9455 22.3636L50.8364 38.2909C50.8364 38.5091 50.9455 38.6182 51.0546 38.7272L49.9637 46.6909C49.8546 47.1272 49.9637 47.5636 50.0728 47.8909L54.8728 60.8727C55.4183 62.1818 56.8364 62.8363 58.1455 62.4C59.4546 61.9636 60.1092 60.4363 59.6728 59.1273L55.091 46.6909L56.0728 39.1636L56.7274 39.2727L55.7455 46.6909C55.6364 47.1272 55.7455 47.6727 55.9637 48.1091L61.7455 61.0909C62.291 62.4 63.8183 62.9454 65.1274 62.4C66.4364 61.8545 66.9819 60.3272 66.4364 59.0182L60.8728 46.6909L61.7455 39.7091C62.6183 39.7091 62.0728 39.3818 64.8001 23.6727L66.6546 26.8363L65.4546 32.0727C65.2364 33.1636 65.891 34.2545 66.9819 34.4727C68.0728 34.6909 69.1637 34.0363 69.3819 32.9454L70.8001 26.9454C71.0183 26.4 70.9092 25.9636 70.691 25.4182Z" fill="#80B672"/>
<path d="M24.8728 21.7091C25.2001 20.9454 24.7637 20.0727 24.0001 19.7454C23.2364 19.4182 22.3637 19.8545 22.0364 20.6182L20.8364 23.8909L19.3091 22.8L19.2001 22.6909C15.491 19.5273 11.4546 18.9818 7.63641 21.6C7.41823 21.7091 7.20005 21.9273 7.09096 22.0363C6.98187 22.1454 3.16369 27.0545 3.38187 26.7273C3.0546 27.1636 2.94551 27.7091 3.16369 28.1454C4.69096 32.5091 4.90914 32.6182 5.01823 32.8363C5.56369 33.4909 6.54551 33.6 7.20005 33.0545C7.74551 32.6182 7.96369 31.7454 7.52732 31.0909C7.20005 30.4363 6.6546 28.9091 6.32732 27.8182C6.43641 27.7091 7.41823 26.4 7.30914 26.5091V27.6C7.74551 28.9091 8.29096 30.2182 8.40005 30.5454C9.0546 31.6363 8.72732 32.9454 7.74551 33.8182C7.63641 33.9273 7.41823 34.0363 7.30914 34.1454V39.2727C7.30914 39.3818 7.30914 39.3818 7.41823 39.4909L5.67278 47.3454L5.01823 46.9091C3.81823 46.4727 2.18187 46.8 1.41823 48C0.654596 49.2 1.09096 50.7273 2.29096 51.4909L6.00005 53.7818C7.41823 54.6545 9.38187 53.8909 9.81823 52.1454L11.7819 43.4182C13.091 48.8727 14.5091 55.7454 14.4001 57.9273C14.291 59.3454 15.3819 60.5454 16.8001 60.6545C18.2182 60.7636 19.4182 59.6727 19.5273 58.2545C19.7455 54.6545 17.4546 44.9454 16.3637 40.4727C16.4728 40.4727 16.5819 40.3636 16.691 40.1454L18.8728 26.0727L20.7273 27.3818C21.6001 27.9273 22.691 27.6 23.0182 26.7273L23.3455 25.9636C23.2364 25.5273 23.0182 25.0909 23.0182 24.6545C22.4728 23.1273 23.891 21.7091 24.8728 21.7091Z" fill="#80B672"/>
<path d="M42.9818 20.1818C42.1091 20.2909 41.5637 21.0545 41.5637 21.8181C41.7818 24.4363 40.1455 27.9272 38.6182 29.8909C36 28.909 33.3818 28.909 30.7637 30C29.1273 28.8 27.3818 26.2909 26.8364 24C26.6182 23.1272 25.8546 22.6909 24.9818 22.8C24.2182 23.0181 23.6728 23.7818 23.7818 24.5454V24.6545C24.5455 28.0363 27.1637 31.309 29.5637 33.0545V38.0727L27.0546 50.0727C31.6364 52.6909 37.3091 52.909 42.3273 50.0727L39.8182 38.0727V33.1636C40.6909 32.7272 44.9455 26.7272 44.5091 21.709C44.5091 20.7272 43.8546 20.0727 42.9818 20.1818Z" fill="#80B672"/>
</svg>
