<svg width="72" height="72" viewBox="0 0 72 72" fill="none" xmlns="http://www.w3.org/2000/svg">
<path d="M61.2 64.7999V0H10.8V64.7999H3.59998V72H68.3999V64.7999H61.2ZM32.4 7.20005H39.6001V14.4001H32.4V7.20005ZM32.4 21.6H39.6001V28.8H32.4V21.6ZM32.4 35.9999H39.6001V43.2H32.4V35.9999ZM25.2 43.2H17.9999V35.9999H25.2V43.2ZM25.2 28.8H17.9999V21.6H25.2V28.8ZM25.2 14.3999H17.9999V7.20005H25.2V14.3999ZM43.2 64.7999H28.8001V57.5999C28.8001 53.6398 32.0401 50.3998 36.0001 50.3998C39.9602 50.3998 43.2 53.64 43.2 57.5999V64.7999ZM54 43.2H46.7999V35.9999H54V43.2ZM54 28.8H46.7999V21.6H54V28.8ZM54 14.3999H46.7999V7.20005H54V14.3999Z" fill="#80B672"/>
</svg>
