<svg width="72" height="72" viewBox="0 0 72 72" fill="none" xmlns="http://www.w3.org/2000/svg">
<path d="M9 2.25C7.13604 2.25 5.625 3.76104 5.625 5.625V47.25H3.375C2.75368 47.25 2.25 47.7537 2.25 48.375C2.25 48.9963 2.75368 49.5 3.375 49.5H10.125H10.1292H12.375C12.375 44.3304 15.5449 39.9012 20.047 38.05C17.4692 36.467 15.75 33.6217 15.75 30.375C15.75 25.4044 19.7794 21.375 24.75 21.375C29.7206 21.375 33.75 25.4044 33.75 30.375C33.75 33.622 32.0305 36.4674 29.4524 38.0503C31.13 38.7402 32.6217 39.7875 33.8328 41.0955L40.3151 38.442C41.5196 37.949 42.789 37.8641 43.9696 38.121L53.2809 20.8952C54.1673 19.2554 56.2151 18.6446 57.8548 19.531C59.4945 20.4173 60.1053 22.4651 59.219 24.1049L48.7978 43.384C49.1092 45.8116 47.9476 48.2388 45.8004 49.5H68.625C69.2463 49.5 69.75 48.9963 69.75 48.375C69.75 47.7537 69.2463 47.25 68.625 47.25H66.375V5.625C66.375 3.76103 64.864 2.25 63 2.25H9Z" fill="#80B672"/>
<path d="M56.7849 21.5103C57.3315 21.8057 57.5351 22.4884 57.2397 23.0349L46.4297 43.0332C47.0103 44.9537 46.0452 47.0368 44.1506 47.8124L34.875 51.6092V68.625C34.875 69.2463 34.3713 69.75 33.75 69.75H15.75C15.1287 69.75 14.625 69.2463 14.625 68.625V49.5C14.625 43.908 19.1581 39.375 24.75 39.375C28.2358 39.375 31.3087 41.1368 33.1291 43.8147L41.1674 40.5243C42.4785 39.9875 43.9114 40.2095 44.9787 40.986L55.2602 21.965C55.5558 21.4184 56.2383 21.2149 56.7849 21.5103Z" fill="#80B672"/>
<path d="M24.75 23.625C21.0221 23.625 18 26.6471 18 30.375C18 34.1029 21.0221 37.125 24.75 37.125C28.4779 37.125 31.5 34.1029 31.5 30.375C31.5 26.6471 28.4779 23.625 24.75 23.625Z" fill="#80B672"/>
</svg>
