<svg width="81" height="80" viewBox="0 0 81 80" fill="none" xmlns="http://www.w3.org/2000/svg">
<path d="M31.9394 15C35.7884 8.33334 45.4109 8.33333 49.2599 15L66.5804 45C70.4294 51.6667 65.6181 60 57.9201 60H23.2791C15.5811 60 10.7698 51.6667 14.6188 45L31.9394 15Z" fill="url(#paint0_linear_964_4344)"/>
<mask id="mask0_964_4344" style="mask-type:alpha" maskUnits="userSpaceOnUse" x="13" y="10" width="55" height="50">
<path d="M31.9394 15C35.7884 8.33334 45.4109 8.33333 49.2599 15L66.5804 45C70.4294 51.6667 65.6181 60 57.9201 60H23.2791C15.5811 60 10.7698 51.6667 14.6188 45L31.9394 15Z" fill="url(#paint1_linear_964_4344)"/>
</mask>
<g mask="url(#mask0_964_4344)">
<path d="M35.6241 2.85167C38.7048 1.08541 42.4911 1.08541 45.5718 2.85167L75.0807 19.7701L43.0849 38.1144C41.5446 38.9975 39.6514 38.9975 38.1111 38.1144L6.11523 19.7701L35.6241 2.85167Z" fill="url(#paint2_linear_964_4344)" fill-opacity="0.7"/>
<path d="M40.598 40.3672V58.3488V79.9074L6.11523 60.1373L40.598 40.3672Z" fill="url(#paint3_linear_964_4344)"/>
</g>
<path opacity="0.8" d="M35.5177 11.0726C38.6534 9.22215 42.5471 9.22225 45.6828 11.0729L63.7274 21.7228C66.7747 23.5213 68.6447 26.7963 68.6447 30.3348V50.4115C68.6447 53.9499 66.7747 57.2249 63.7274 59.0234L45.6827 69.6734C42.5471 71.524 38.6534 71.5241 35.5177 69.6736L17.4704 59.0234C14.4229 57.2249 12.5527 53.9498 12.5527 50.4112L12.5527 30.3351C12.5527 26.7965 14.4229 23.5213 17.4704 21.7229L35.5177 11.0726Z" fill="url(#paint4_linear_964_4344)"/>
<path d="M41.0276 58.48C38.7236 58.48 36.7556 58.208 35.1236 57.664C33.5236 57.088 32.1796 56.368 31.0916 55.504C30.0356 54.608 29.1876 53.68 28.5476 52.72C27.9076 51.728 27.4276 50.8 27.1076 49.936C26.8196 49.04 26.6276 48.32 26.5316 47.776C26.4676 47.2 26.4356 46.912 26.4356 46.912H33.9236C33.9236 46.912 33.9876 47.184 34.1156 47.728C34.2756 48.272 34.5956 48.912 35.0756 49.648C35.5556 50.352 36.2916 50.976 37.2836 51.52C38.2756 52.032 39.6196 52.288 41.3156 52.288C43.3956 52.288 44.9316 51.856 45.9236 50.992C46.9156 50.096 47.4116 49.04 47.4116 47.824C47.4116 46.736 47.0276 45.872 46.2596 45.232C45.5236 44.592 44.3716 44.112 42.8036 43.792L38.0516 42.88C36.1316 42.528 34.3396 41.968 32.6756 41.2C31.0436 40.432 29.7156 39.376 28.6916 38.032C27.6676 36.656 27.1556 34.896 27.1556 32.752C27.1556 30.576 27.6996 28.688 28.7876 27.088C29.8756 25.456 31.3956 24.208 33.3476 23.344C35.3316 22.448 37.6516 22 40.3076 22C42.8036 22 44.8676 22.368 46.4996 23.104C48.1636 23.808 49.4756 24.688 50.4356 25.744C51.4276 26.768 52.1476 27.808 52.5956 28.864C53.0756 29.92 53.3796 30.8 53.5076 31.504C53.6676 32.208 53.7476 32.56 53.7476 32.56H46.4516C46.4516 32.56 46.3876 32.336 46.2596 31.888C46.1636 31.44 45.9076 30.928 45.4916 30.352C45.0756 29.776 44.4356 29.264 43.5716 28.816C42.7396 28.368 41.5876 28.144 40.1156 28.144C38.0996 28.144 36.6436 28.592 35.7476 29.488C34.8516 30.352 34.4036 31.296 34.4036 32.32C34.4036 33.376 34.8516 34.192 35.7476 34.768C36.6436 35.344 37.8116 35.776 39.2516 36.064L44.2916 37.072C46.2116 37.424 47.9716 38.016 49.5716 38.848C51.1716 39.68 52.4356 40.8 53.3636 42.208C54.3236 43.584 54.8036 45.296 54.8036 47.344C54.8036 49.456 54.2756 51.36 53.2196 53.056C52.1636 54.72 50.6116 56.048 48.5636 57.04C46.5156 58 44.0036 58.48 41.0276 58.48Z" fill="url(#paint5_linear_964_4344)"/>
<defs>
<linearGradient id="paint0_linear_964_4344" x1="40.5996" y1="17.6147" x2="40.5996" y2="80" gradientUnits="userSpaceOnUse">
<stop stop-color="#FF612F" stop-opacity="0.49"/>
<stop offset="1" stop-color="#C23434"/>
</linearGradient>
<linearGradient id="paint1_linear_964_4344" x1="40.5996" y1="17.6147" x2="40.5996" y2="80" gradientUnits="userSpaceOnUse">
<stop stop-color="#5013FA" stop-opacity="0.49"/>
<stop offset="1" stop-color="#712BCB"/>
</linearGradient>
<linearGradient id="paint2_linear_964_4344" x1="38.3963" y1="37.4312" x2="38.3963" y2="2.20994e-07" gradientUnits="userSpaceOnUse">
<stop stop-color="#FA1313" stop-opacity="0.42"/>
<stop offset="1" stop-color="#FFD7B3" stop-opacity="0.79"/>
</linearGradient>
<linearGradient id="paint3_linear_964_4344" x1="23.3504" y1="68.991" x2="44.6348" y2="54.3121" gradientUnits="userSpaceOnUse">
<stop stop-color="#FA1313" stop-opacity="0.42"/>
<stop offset="1" stop-color="#FFE589" stop-opacity="0.2"/>
</linearGradient>
<linearGradient id="paint4_linear_964_4344" x1="40.5987" y1="5.18387" x2="40.5987" y2="70.4712" gradientUnits="userSpaceOnUse">
<stop stop-color="#E70000" stop-opacity="0.33"/>
<stop offset="1" stop-color="#FFBE72" stop-opacity="0.8"/>
</linearGradient>
<linearGradient id="paint5_linear_964_4344" x1="31.3906" y1="21" x2="31.3906" y2="68.7649" gradientUnits="userSpaceOnUse">
<stop stop-color="white"/>
<stop offset="1" stop-color="white" stop-opacity="0.62"/>
</linearGradient>
</defs>
</svg>
